<?xml version="1.0" encoding="UTF-8" standalone="no"?>
<svg
   xmlns:dc="http://purl.org/dc/elements/1.1/"
   xmlns:cc="http://creativecommons.org/ns#"
   xmlns:rdf="http://www.w3.org/1999/02/22-rdf-syntax-ns#"
   xmlns:svg="http://www.w3.org/2000/svg"
   xmlns="http://www.w3.org/2000/svg"
   id="svg8"
   version="1.1"
   viewBox="0 0 685.10944 185.70543"
   height="185.70543mm"
   width="685.10944mm">
  <defs
     id="defs2">
    <style
       id="style3519">.cls-1,.cls-40,.cls-54,.cls-68,.cls-70{fill:none;}.cls-2{fill:#43499f;}.cls-3{fill:#5f67b0;}.cls-4{fill:#171717;}.cls-5{clip-path:url(#clip-path);}.cls-6,.cls-89{fill:#c6d4d9;}.cls-40,.cls-54,.cls-6,.cls-63,.cls-88{stroke:#231f20;}.cls-6,.cls-68,.cls-70,.cls-71,.cls-74,.cls-75,.cls-76,.cls-88,.cls-89{stroke-miterlimit:10;}.cls-7{fill:#d1d6ec;}.cls-8{fill:#84bcd5;}.cls-9{fill:#dcf2fd;}.cls-10{fill:#dff3fd;}.cls-11,.cls-69,.cls-71,.cls-88{fill:#231f20;}.cls-12{fill:#4a6e3d;}.cls-13{fill:#fff;}.cls-14{fill:#8fb3c5;}.cls-15{fill:#b8cdeb;}.cls-16{fill:#333c4e;}.cls-17{fill:#bacbd5;}.cls-18{fill:#fafbec;}.cls-19{fill:#f8eeea;}.cls-20{fill:#493940;}.cls-21{fill:#72646d;}.cls-22{fill:#0082c7;}.cls-23{fill:#737577;}.cls-24{fill:#3892c1;}.cls-25{fill:#5e8448;}.cls-26{fill:#789ec4;}.cls-27{fill:#f7fcfe;}.cls-28{fill:#c2e5dc;}.cls-29{fill:#788086;}.cls-30{fill:#c2cdd4;}.cls-31{fill:#c3d0cf;}.cls-32{fill:#696e80;}.cls-33{fill:#414350;}.cls-34{fill:#387a9f;}.cls-35{fill:#007437;}.cls-36{fill:#493230;}.cls-37{fill:#50464e;}.cls-38{fill:#1d0b11;}.cls-39{fill:#0d2244;}.cls-40,.cls-54,.cls-63,.cls-69{stroke-linejoin:round;}.cls-41{fill:#62392d;}.cls-42{fill:#979998;}.cls-43{fill:#ca8086;}.cls-44{fill:#b49b9b;}.cls-45{fill:#9e8385;}.cls-46{fill:#2c3b40;}.cls-47{fill:#233323;}.cls-48{fill:#8193a9;}.cls-49{fill:#3b3b3c;}.cls-50{fill:#2c4364;}.cls-51{fill:#869095;}.cls-52{fill:#cec8ba;}.cls-53{fill:#c9adbc;}.cls-54,.cls-63,.cls-69{stroke-linecap:round;stroke-width:0.5px;}.cls-55{fill:#62154a;}.cls-56{fill:#42312b;}.cls-57{fill:#376b34;}.cls-58{fill:#3a152a;}.cls-59{fill:#1c0d15;}.cls-60{fill:#431218;}.cls-61{fill:#006550;}.cls-62{fill:#59472b;}.cls-64{fill:#010101;}.cls-65{fill:#e5f4f8;}.cls-66{fill:#829b9e;}.cls-67{fill:#d7c975;}.cls-68,.cls-69,.cls-75,.cls-76{stroke:#010101;}.cls-68{stroke-width:9px;}.cls-70,.cls-71,.cls-74{stroke:#fff;}.cls-72{fill:#232038;}.cls-73{fill:#bfbfbf;}.cls-75{stroke-width:5px;}.cls-77{fill:#b1b7c3;}.cls-78{fill:#150000;}.cls-79{fill:#88cdac;}.cls-80{fill:#e1e8f6;}.cls-81{fill:#e7f6fd;}.cls-82{fill:#43454c;}.cls-83{fill:#25181e;}.cls-84{fill:#3b4c56;}.cls-85{fill:#1f2a74;}.cls-86{fill:#d01a1f;}.cls-87{fill:#3a4453;}.cls-88{stroke-width:2px;}.cls-89{stroke:#000;stroke-width:2.5px;}.cls-90{fill:#cccccb;}</style>
    <clipPath
       id="clip-path"
       transform="translate(141.5726 -12.5786)">
      <rect
         style="fill:none"
         class="cls-1"
         x="1169.6504"
         y="-13.4753"
         width="1160.2648"
         height="672.43121"
         id="rect3521" />
    </clipPath>
  </defs>
  <metadata
     id="metadata5">
    <rdf:RDF>
      <cc:Work
         rdf:about="">
        <dc:format>image/svg+xml</dc:format>
        <dc:type
           rdf:resource="http://purl.org/dc/dcmitype/StillImage" />
        <dc:title></dc:title>
      </cc:Work>
    </rdf:RDF>
  </metadata>
  <g
     transform="translate(290.394,-74.123476)"
     id="layer1">
    <g
       transform="matrix(0.26458333,0,0,0.26458333,-290.394,74.123476)"
       id="g7464">
      <g
         id="backhouse1">
        <polygon
           style="fill:#5f67b0"
           class="cls-3"
           points="443.252,287.026 510.331,246.265 556.868,277.076 607.578,249.796 758.383,322.009 758.383,334.526 749.758,334.526 750.721,530.329 353.032,530.329 351.91,334.544 341.596,334.544 341.596,322.972 409.874,253.005 "
           id="polygon3531" />
        <polygon
           style="fill:#5f67b0"
           class="cls-3"
           points="736.737,375.783 725.782,372.566 726.67,358.088 703.427,332.349 760.335,317.067 760.335,292.133 750.646,285.698 773.742,266.394 790.118,289.72 785.689,301.784 870.223,233.416 950.985,300.98 1012.331,332.349 1025.899,331.545 1005.173,350.849 1005.173,362.109 1000.928,369.348 1001.251,379 989.964,390.261 984.509,407.152 976.728,407.152 967.827,426.456 971.532,511.241 758.326,499.761 759.695,465.883 761.292,428.869 744.855,419.217 744.527,403.934 736.737,395.891 "
           id="polygon3533" />
        <polygon
           style="fill:#5f67b0"
           class="cls-3"
           points="1524.932,339.012 1340.432,268.895 1155.932,337.731 1155.932,345.677 1164.163,345.819 1164.39,477.76 1516.281,477.76 1516.281,345.819 1526.553,345.819 "
           id="polygon3535" />
        <path
           style="fill:#5f67b0"
           class="cls-3"
           d="m 1803.5777,300.4858 a 12.9318,12.9318 0 0 1 3.3638,-0.0852 5.2116,5.2116 0 0 0 1.807,-0.1141 8.733,8.733 0 0 1 1.1583,-0.12 1.152,1.152 0 0 1 0.7417,0.2223 36.805,36.805 0 0 1 3.1611,2.2141 q 1.3048,1.1637 2.5893,2.3541 c 0.8546,0.7951 1.6794,1.6285 2.545,2.4091 0.7655,0.69 1.57,1.33 2.3562,1.9932 1.0942,0.9225 2.1907,1.8421 3.28,2.7717 0.2718,0.232 0.5237,0.4924 0.7774,0.7482 a 64.135,64.135 0 0 0 4.9091,4.3938 c 0.9658,0.7924 1.86,1.6878 2.7853,2.5375 0.3966,0.364 0.7886,0.7339 1.1883,1.0939 0.9332,0.84 1.8482,1.7018 2.7556,2.5754 1.1324,1.09 2.3288,2.1044 3.514,3.1292 q 2.1333,1.8445 4.2966,3.6484 c 1.0645,0.8854 2.156,1.7328 3.2331,2.6005 0.278,0.224 0.5508,0.4561 0.82,0.6927 1.5472,1.3617 3.0548,2.7743 4.609,4.1284 1.588,1.3836 3.1945,2.7363 4.8419,4.0346 a 8.7265,8.7265 0 0 1 0.9024,0.805 21.1218,21.1218 0 0 0 2.4264,2.1214 25.2065,25.2065 0 0 1 2.5086,2.2356 30.2657,30.2657 0 0 0 2.6058,2.3295 10.296,10.296 0 0 1 1.0229,0.8683 21.615,21.615 0 0 0 2.9022,2.375 19.7614,19.7614 0 0 1 2.0755,1.6927 5.3587,5.3587 0 0 0 0.9287,0.7666 21.5392,21.5392 0 0 1 2.5445,1.9518 q 1.6608,1.3572 3.3088,2.7329 c 0.4125,0.3423 0.8176,0.6951 1.2268,1.0421 a 7.7438,7.7438 0 0 0 0.7211,0.5985 9.8035,9.8035 0 0 1 1.3606,1.0818 4.4959,4.4959 0 0 0 1.563,0.9853 3.9991,3.9991 0 0 1 0.7188,0.324 1.3152,1.3152 0 0 1 0.6225,1.7631 1.1169,1.1169 0 0 1 -0.114,0.25 2.8369,2.8369 0 0 0 -0.3163,1.8846 c 0.051,0.4626 0.067,0.931 0.072,1.397 a 3.7833,3.7833 0 0 0 0.1426,1.1057 4.1746,4.1746 0 0 1 0.1624,1.3856 c -0.026,0.84 -0.05,1.6816 -0.1138,2.5188 -0.1034,1.35 -0.2393,2.6965 -0.36,4.0448 -0.013,0.1393 -0.018,0.28 -0.019,0.42 q -0.014,2.4529 -0.025,4.9058 c 0,0.2337 0.014,0.4693 -0.01,0.7007 -0.1123,1.2074 -0.2386,2.4133 -0.3505,3.6208 -0.065,0.6973 -0.1318,1.3954 -0.1616,2.0952 -0.072,1.68 -0.1251,3.3614 -0.18,5.0424 a 34.5791,34.5791 0 0 1 -0.1561,3.6383 6.6174,6.6174 0 0 0 -0.012,0.98 c 0.02,1.6839 -0.019,3.3656 -0.1517,5.0429 a 38.8049,38.8049 0 0 0 -0.086,5.1811 c 0.068,1.2585 0.026,2.523 0.046,3.7847 0.022,1.4025 0.036,2.803 -0.058,4.2043 -0.05,0.7437 0,1.4952 -0.016,2.2427 q -0.057,2.8733 -0.1364,5.7459 a 6.9051,6.9051 0 0 1 -0.1268,1.11 8.6554,8.6554 0 0 0 -0.15,1.81 c 0.025,1.4018 0.029,2.8022 -0.053,4.2034 -0.057,0.9779 -0.018,1.9623 -0.05,2.9426 -0.046,1.4 -0.069,2.8049 -0.1951,4.1972 -0.118,1.3037 -0.1779,2.6082 -0.2375,3.9147 -0.066,1.4465 -0.1493,2.8921 -0.2167,4.3386 -0.081,1.7261 -0.1263,3.4547 -0.2337,5.1786 -0.1684,2.7053 -0.093,5.4195 -0.2454,8.1249 -0.018,0.3259 0,0.6544 0,0.9815 a 17.9248,17.9248 0 0 1 -0.059,1.96 29.181,29.181 0 0 0 0,5.0391 c 0.072,1.6832 0.088,3.3685 0.01,5.0443 -0.068,1.408 0.015,2.8014 0.066,4.2012 0.029,0.7934 0.049,1.5872 0.079,2.3806 0.026,0.7 0.05,1.4012 0.094,2.1 0.085,1.3524 0.2033,2.701 0.159,4.061 a 20.57,20.57 0 0 0 0.1123,2.0981 c 0.039,0.5594 0.1126,1.1164 0.144,1.6761 0.087,1.54 0.15,3.082 0.24,4.622 0.054,0.9326 0.1416,1.8631 0.2116,2.7947 0.024,0.3262 0.052,0.6528 0.06,0.98 a 19.07,19.07 0 0 0 0.46,3.7485 7.6633,7.6633 0 0 1 0.1655,0.8221 0.945,0.945 0 0 1 -0.42,0.9511 c -0.1094,0.073 -0.2331,0.1208 -0.3484,0.184 a 0.5671,0.5671 0 0 0 -0.3213,0.557 1.502,1.502 0 0 1 -1.1464,1.6364 3.9116,3.9116 0 0 1 -2.6746,0.1561 3.3289,3.3289 0 0 0 -1.6706,-0.1166 6.047,6.047 0 0 1 -2.1907,-0.0716 9.6867,9.6867 0 0 0 -1.94,-0.13 c -0.6919,-0.006 -1.385,0.0251 -2.0757,0.0715 a 21.0742,21.0742 0 0 1 -3.2418,-0.0253 15.1979,15.1979 0 0 0 -2.0742,0.014 c -1.0808,0.0548 -2.1591,0.0937 -3.2431,0.0412 -0.95,-0.0461 -1.9031,-0.005 -2.8549,-0.005 -2.1637,10e-4 -4.3282,-0.06 -6.49,0.0815 -0.3452,0.0227 -0.6921,0.0165 -1.0382,0.0248 -1.1244,0.0269 -2.2486,0.0588 -3.3731,0.08 -0.7783,0.0147 -1.5569,0.0259 -2.3352,0.0192 a 13.25,13.25 0 0 0 -2.1993,0.1538 9.6179,9.6179 0 0 1 -1.158,0.1477 q -5.3836,0.1936 -10.7682,0.3669 c -0.6054,0.02 -1.2114,0.0291 -1.8166,0.0549 -3.0263,0.1293 -6.0522,0.2679 -9.0788,0.3924 -1.9882,0.0818 -3.9772,0.1455 -5.9658,0.2164 -0.2163,0.008 -0.433,0.0212 -0.649,0.0132 -1.1692,-0.0438 -2.3333,0.0487 -3.5,0.0989 -2.5505,0.11 -5.1039,0.1485 -7.6552,0.2414 -1.0372,0.0378 -2.0716,0.1485 -3.108,0.2126 -2.7216,0.1683 -5.4454,0.2733 -8.173,0.2542 a 37.21,37.21 0 0 0 -4.7977,0.1415 c -0.1716,0.021 -0.3455,0.0226 -0.5184,0.0284 -2.2921,0.0776 -4.5842,0.16 -6.8765,0.23 -2.2056,0.0673 -4.4119,0.1082 -6.6145,0.2558 -0.5179,0.0347 -1.0383,0.06 -1.5568,0.0465 -1.9061,-0.0484 -3.8063,0.0748 -5.7086,0.1536 -1.7292,0.0717 -3.4607,0.084 -5.1908,0.134 -1.903,0.0551 -3.8057,0.1219 -5.7085,0.1864 -3.2437,0.11 -6.4871,0.2315 -9.7311,0.3306 -2.7252,0.0832 -5.4512,0.1394 -8.1766,0.2132 -0.3456,0.009 -0.69,0.0617 -1.0354,0.0788 q -0.8416,0.0414 -1.6843,0.0618 c -1.7737,0.0442 -3.5477,0.0733 -5.3211,0.1279 q -4.8013,0.1479 -9.602,0.3221 c -1.9027,0.0717 -3.8039,0.1831 -5.706,0.2713 -0.6049,0.0281 -1.21,0.04 -1.8157,0.057 -0.173,0.005 -0.3467,-0.005 -0.5192,0.005 -1.77,0.1087 -3.5415,0.21 -5.3109,0.3365 -0.69,0.0494 -1.3786,0.1384 -2.0631,0.2445 -1.5425,0.239 -3.0927,0.3818 -4.6477,0.4927 a 44.8222,44.8222 0 0 0 -5.8029,0.6626 9.9914,9.9914 0 0 1 -2.0687,0.1521 8.9414,8.9414 0 0 0 -1.5495,0.1 7.8342,7.8342 0 0 1 -1.6788,0.1011 c -0.7345,-0.033 -1.4715,-0.0521 -2.2056,-0.0262 a 5.4354,5.4354 0 0 1 -2.6244,-0.6964 1.1764,1.1764 0 0 1 -0.6379,-1.1353 5.2506,5.2506 0 0 1 0.071,-0.836 15.4525,15.4525 0 0 0 0.1472,-2.2339 c 0.065,-2.7122 -0.041,-5.4218 -0.1223,-8.132 q -0.069,-2.3133 -0.1433,-4.6265 c -0.023,-0.7008 -0.068,-1.401 -0.084,-2.1019 -0.016,-0.6537 0,-1.308 -0.012,-1.9619 -0.01,-0.6068 0.01,-1.2185 -0.058,-1.8191 -0.1288,-1.1654 -0.13,-2.3326 -0.15,-3.501 -0.012,-0.7 -0.03,-1.4012 -0.072,-2.1 a 24.0994,24.0994 0 0 1 -0.044,-3.7815 11.626,11.626 0 0 0 0.01,-1.2611 q -0.034,-2.8747 -0.075,-5.75 c -0.01,-0.5139 -0.028,-1.028 -0.056,-1.5412 -0.06,-1.1209 -0.072,-2.2391 -0.039,-3.363 0.036,-1.2591 -0.031,-2.5233 -0.077,-3.7843 -0.057,-1.5418 -0.167,-3.082 -0.2037,-4.6239 -0.036,-1.4948 -0.01,-2.991 -0.01,-4.4866 q 0,-1.8927 0,-3.7853 0,-1.6826 -0.01,-3.365 c 0,-0.9815 0.01,-1.9636 -0.024,-2.9446 -0.051,-1.729 -0.137,-3.457 -0.1887,-5.186 -0.028,-0.9338 -0.016,-1.8687 -0.02,-2.8032 0,-0.2336 0.019,-0.468 0.01,-0.7008 -0.1362,-2.5724 0,-5.14 0.067,-7.7089 0.01,-0.3731 -0.01,-0.7478 -0.023,-1.1211 -0.047,-1.027 -0.1035,-2.0536 -0.1533,-3.08 q -0.078,-1.6124 -0.01,-3.2242 c 0.035,-0.7926 0.01,-1.5888 0.01,-2.3834 0,-0.374 -0.032,-0.7489 -0.017,-1.1217 a 23.8143,23.8143 0 0 0 -0.1076,-3.9205 4.4117,4.4117 0 0 1 -0.022,-0.7 c 0.048,-1.3541 0.091,-2.7085 0.16,-4.0612 a 8.3658,8.3658 0 0 0 -0.033,-1.8177 18.639,18.639 0 0 1 -0.1654,-2.6564 c -0.022,-0.9344 -0.066,-1.8683 -0.09,-2.8026 -0.013,-0.5136 0.039,-1.0322 -0.011,-1.5407 a 35.038,35.038 0 0 1 -0.028,-3.92 c 0.015,-1.12 -0.079,-2.2416 -0.1286,-3.3624 q -0.1227,-2.802 -0.25,-5.6038 c -0.017,-0.3736 -0.034,-0.7473 -0.058,-1.12 -0.1686,-2.7062 -0.322,-5.4135 -0.5153,-8.1177 -0.093,-1.3044 -0.2489,-2.6048 -0.404,-3.9033 -0.055,-0.4613 -0.1921,-0.9117 -0.2912,-1.3671 -0.07,-0.3188 -0.1569,-0.6348 -0.2028,-0.9574 a 2.3821,2.3821 0 0 1 0.2368,-1.6244 1.7553,1.7553 0 0 0 0.18,-1.3382 3.5922,3.5922 0 0 1 -0.035,-0.8348 0.9274,0.9274 0 0 1 0.3771,-0.7009 0.7652,0.7652 0 0 1 0.1059,-0.08 31.3589,31.3589 0 0 0 5.142,-3.9826 c 0.4072,-0.3446 0.8081,-0.6978 1.2136,-1.0447 0.4055,-0.3469 0.81,-0.6965 1.2219,-1.0347 0.3433,-0.2818 0.69,-0.5593 1.0475,-0.82 a 15.753,15.753 0 0 0 1.8413,-1.538 10.4732,10.4732 0 0 1 1.8498,-1.5274 2.3442,2.3442 0 0 0 0.3238,-0.2314 c 0.9674,-0.854 1.953,-1.6857 2.8922,-2.5745 a 26.1189,26.1189 0 0 1 3.5117,-2.8511 8.6029,8.6029 0 0 0 1.7341,-1.4527 18.2493,18.2493 0 0 1 2.8326,-2.43 c 0.177,-0.1327 0.3745,-0.2349 0.5457,-0.3751 1.1694,-0.9574 2.3326,-1.9236 3.5014,-2.8818 a 15.3068,15.3068 0 0 1 1.2558,-0.9855 33.45,33.45 0 0 0 2.9442,-2.2812 14.6487,14.6487 0 0 1 2.0514,-1.4614 11.851,11.851 0 0 0 0.988,-0.6657 c 0.9707,-0.6964 1.9373,-1.3992 2.9056,-2.0994 0.036,-0.0259 0.071,-0.0529 0.109,-0.0755 2.6058,-1.5632 5.0271,-3.45 7.6189,-5.0385 0.45,-0.2758 0.8844,-0.5833 1.3149,-0.894 1.7953,-1.2959 3.6387,-2.5071 5.5152,-3.6608 0.1125,-0.0692 0.2231,-0.1423 0.3334,-0.2156 1.286,-0.8553 2.5661,-1.7214 3.86,-2.5633 1.1091,-0.7218 2.2361,-1.4117 3.3507,-2.1239 0.6685,-0.4271 1.3186,-0.8885 1.9944,-1.3014 0.9392,-0.5738 1.8846,-1.1378 2.8457,-1.6674 a 40.9158,40.9158 0 0 0 3.7806,-2.4341 q 2.2781,-1.6042 4.5509,-3.2169 c 0.3954,-0.2818 0.7688,-0.5993 1.1538,-0.8981 0.3153,-0.2448 0.6251,-0.4989 0.9506,-0.7269 q 1.7926,-1.2561 3.5948,-2.4966 c 1.0538,-0.7272 2.1174,-1.4381 3.1635,-2.1779 a 7.89,7.89 0 0 0 0.8984,-0.7957 22.5771,22.5771 0 0 1 3.7429,-2.9833 11.4078,11.4078 0 0 0 2.1328,-1.8084 1.8491,1.8491 0 0 1 1.5282,-0.6058 2.7721,2.7721 0 0 1 0.6428,0.0846 4.7394,4.7394 0 0 0 2.06,0.0607 c 0.6,-0.0775 1.208,-0.0861 1.8109,-0.1422 0.9907,-0.0923 1.9806,-0.195 2.97,-0.3014 a 4.2446,4.2446 0 0 0 0.6377,-0.1239 1.1549,1.1549 0 0 0 0.9225,-1.18 c 0.022,-0.5134 0.012,-1.0284 0.026,-1.5422 0.016,-0.56 0.023,-1.1222 0.072,-1.6792 a 12.25,12.25 0 0 0 -0.031,-2.3793 c -0.1229,-1.1616 -0.2293,-2.3257 -0.378,-3.4837 a 16.8457,16.8457 0 0 0 -0.3543,-1.7806 0.9762,0.9762 0 0 0 -0.8265,-0.7891 c -0.342,-0.0554 -0.688,-0.0863 -1.0332,-0.1109 a 3.2281,3.2281 0 0 1 -1.1379,-0.2662 2.2957,2.2957 0 0 1 -1.4068,-2.0217 14.949,14.949 0 0 1 -0.021,-1.6817 2.234,2.234 0 0 1 1.4413,-1.9537 c 0.2069,-0.0631 0.4257,-0.08 0.6355,-0.1342 a 8.2056,8.2056 0 0 0 0.8735,-0.2533 0.9666,0.9666 0 0 0 0.6727,-0.93 c 0.014,-0.7 0.01,-1.4016 -0.021,-2.101 a 2.78,2.78 0 0 0 -0.1816,-0.8138 c -0.175,-0.4786 -0.3676,-0.9523 -0.5878,-1.4085 a 2.3083,2.3083 0 0 0 -0.4722,-0.6622 2.35,2.35 0 0 1 -0.7351,-1.7323 3.0179,3.0179 0 0 0 -0.052,-0.417 c -0.1065,-0.6369 -0.3611,-0.9234 -0.9291,-0.9865 -0.56,-0.0623 -1.1223,-0.0925 -1.6839,-0.1315 a 3.1332,3.1332 0 0 1 -1.5771,-0.6 2.3218,2.3218 0 0 1 -0.9653,-1.8908 3.7269,3.7269 0 0 1 0.052,-0.6968 4.1048,4.1048 0 0 0 -0.093,-1.6665 3.3407,3.3407 0 0 1 -0.087,-0.41 1.0813,1.0813 0 0 1 0.7451,-1.2906 4.8706,4.8706 0 0 1 1.0193,-0.1731 c 0.6031,-0.0548 1.21,-0.0665 1.8124,-0.1248 a 0.7859,0.7859 0 0 0 0.7247,-0.8323 4.708,4.708 0 0 0 -0.38,-2.4555 1.48,1.48 0 0 1 -0.1141,-0.4 1.1054,1.1054 0 0 1 0.4351,-1.0879 2.0688,2.0688 0 0 1 1.4947,-0.3254 c 0.3422,0.0528 0.676,0.1734 1.0184,0.2231 0.47,0.0684 0.9446,0.1173 1.4184,0.1385 a 0.6452,0.6452 0 0 0 0.6495,-0.5672 4.1726,4.1726 0 0 0 0.089,-0.8312 c -0.03,-0.8407 -0.073,-1.6818 -0.145,-2.52 a 12.4051,12.4051 0 0 0 -0.22,-1.2377 c -0.043,-0.2289 -0.1071,-0.4545 -0.1358,-0.6851 a 1.2363,1.2363 0 0 1 0.1562,-0.8055 c 0.212,-0.3514 0.4247,-0.7025 0.6476,-1.0457 a 1.216,1.216 0 0 1 0.9822,-0.5969 10.7669,10.7669 0 0 1 1.6848,0.006 28.3066,28.3066 0 0 0 4.6669,-0.0224 c 1.1668,-0.0613 2.3316,-0.1366 3.4924,-0.2912 0.6421,-0.0855 1.2957,-0.0711 1.9437,-0.11 1.1661,-0.07 2.3312,-0.1573 3.4978,-0.2168 0.604,-0.0308 1.2106,-0.037 1.8152,-0.0163 a 3.672,3.672 0 0 1 0.8924,0.1692 0.88,0.88 0 0 1 0.6251,0.8141 5.2188,5.2188 0 0 1 -0.022,0.9762 c -0.082,0.93 -0.1693,1.86 -0.2729,2.7873 a 4.0854,4.0854 0 0 0 0.3458,2.042 0.7507,0.7507 0 0 0 0.5892,0.4912 c 0.2137,0.0366 0.4308,0.0571 0.6406,0.1116 a 2.58,2.58 0 0 1 1.3248,0.8442 2.0441,2.0441 0 0 1 0.4844,0.9753 c 0.1131,0.5955 0.24,1.1881 0.3619,1.7817 0.037,0.1827 0.07,0.367 0.1178,0.5466 a 1.3186,1.3186 0 0 0 0.6057,0.873 c 0.1156,0.0646 0.2278,0.136 0.3416,0.2043 a 1.409,1.409 0 0 1 0.694,1.1157 c 0.051,0.4152 0.1675,0.8216 0.2574,1.2313 a 10.0883,10.0883 0 0 1 0.1809,2.51 2.4615,2.4615 0 0 1 -0.67,1.6225 2.8273,2.8273 0 0 1 -1.8089,0.992 8.5834,8.5834 0 0 0 -1.0223,0.1819 0.7846,0.7846 0 0 0 -0.6364,0.6273 c -0.144,0.8756 -0.54,1.6756 -0.612,2.5713 a 1.4746,1.4746 0 0 1 -0.6717,1.1423 c -0.972,0.6435 -0.9645,0.7792 -0.6777,2.09 0.07,0.3179 0.1543,0.6337 0.2549,0.942 a 1.2573,1.2573 0 0 0 0.8089,0.8484 c 0.33,0.1124 0.6683,0.2 0.994,0.3257 a 0.8592,0.8592 0 0 1 0.5453,0.7268 9.3563,9.3563 0 0 1 0.091,0.9756 16.4563,16.4563 0 0 0 0.2847,2.926 2.4221,2.4221 0 0 1 0.036,0.2776 1.2527,1.2527 0 0 1 -0.9215,1.4667 c -0.3346,0.0865 -0.6856,0.0982 -1.0233,0.1736 a 4.3608,4.3608 0 0 0 -0.8646,0.27 1.01,1.01 0 0 0 -0.5664,0.8736 4.4832,4.4832 0 0 0 -0.01,0.56 q 0.021,0.9107 0.051,1.8212 c 0.041,1.2143 0.082,2.4288 0.1315,3.6428 a 7.9728,7.9728 0 0 0 0.3168,2.35 4.7574,4.7574 0 0 1 0.1275,0.8279 c 0.043,0.2764 0.08,0.5548 0.1415,0.8268 a 0.8386,0.8386 0 0 0 0.8242,0.7464 6.7826,6.7826 0 0 0 0.7783,0.005 c 0.6046,-0.0368 1.2083,-0.0888 1.8123,-0.1345 z m -10.7769,206.8924 v 0.0439 c 1.9467,-0.0335 3.8939,-0.0484 5.84,-0.1074 1.2106,-0.0366 2.4182,-0.1737 3.6287,-0.2057 1.946,-0.0514 3.8917,-0.0842 5.8371,-0.181 2.9383,-0.1462 5.8839,-0.1174 8.8194,-0.356 0.7324,-0.06 1.47,-0.0451 2.2056,-0.0634 0.346,-0.009 0.6925,-0.007 1.0383,-0.0218 q 6.1607,-0.2654 12.3214,-0.5337 2.2046,-0.0945 4.41,-0.1746 c 1.9022,-0.0715 3.8048,-0.13 5.7066,-0.2107 1.5131,-0.0643 3.0246,-0.1668 4.5377,-0.2294 2.1616,-0.0894 4.3238,-0.1609 6.4859,-0.2339 0.9946,-0.0336 1.99,-0.07 2.9847,-0.0743 2.2069,-0.009 4.4139,0.005 6.6208,0.002 0.4757,-6e-4 0.9511,-0.0359 1.4268,-0.05 0.9079,-0.0265 1.8158,-0.055 2.7239,-0.0716 0.8651,-0.0159 1.73,-0.0162 2.5958,-0.0257 2.4228,-0.0267 4.8455,-0.0581 7.2684,-0.08 a 13.6308,13.6308 0 0 0 2.7094,-0.2583 1.7316,1.7316 0 0 0 1.2854,-1.5556 6.5453,6.5453 0 0 0 0,-1.1171 15.2569,15.2569 0 0 1 -0.1188,-2.3767 6.6461,6.6461 0 0 0 -0.077,-1.1174 16.1711,16.1711 0 0 1 -0.096,-3.2167 c 0.042,-0.8854 0.034,-1.7745 0.028,-2.662 0,-0.607 -0.041,-1.214 -0.066,-1.8209 -0.019,-0.4668 -0.033,-0.9343 -0.068,-1.4 a 60.8628,60.8628 0 0 1 -0.2739,-6.7215 6.7964,6.7964 0 0 0 -0.035,-1.26 c -0.1643,-1.0675 -0.1265,-2.1449 -0.2048,-3.2154 -0.1435,-1.9633 -0.088,-3.9238 -0.037,-5.8864 0.019,-0.7459 0,-1.4946 -0.035,-2.241 -0.066,-1.5879 -0.1465,-3.1734 -0.1189,-4.7653 0.02,-1.1708 0.14,-2.33 0.1963,-3.496 0.1,-2.0529 0.175,-4.1074 0.2493,-6.1618 0.034,-0.9338 0.032,-1.8692 0.062,-2.8032 0.029,-0.934 0.029,-1.8724 0.13,-2.7971 0.1175,-1.07 0.1579,-2.1412 0.1866,-3.2154 0.01,-0.3269 0.01,-0.6547 0.033,-0.9805 0.088,-1.2581 0.1414,-2.517 0.1478,-3.78 a 24.0725,24.0725 0 0 1 0.1333,-2.5173 17.499,17.499 0 0 0 0.097,-2.0968 c 0,-0.3738 -0.024,-0.75 0.01,-1.1212 0.1239,-1.4419 0.093,-2.8911 0.2107,-4.3365 0.1624,-1.9986 0.1879,-4.0121 0.2407,-6.02 0.036,-1.354 0.016,-2.71 0.024,-4.0652 a 20.3387,20.3387 0 0 0 -0.037,-2.5211 4.13,4.13 0 0 1 0,-0.7 c 0.075,-1.3987 0.1624,-2.7966 0.2269,-4.1959 0.024,-0.5124 0.01,-1.0281 -0.011,-1.5417 -0.026,-0.7943 -0.06,-1.5887 -0.1063,-2.382 a 46.1556,46.1556 0 0 1 0,-4.6253 c 0.06,-1.447 0.1223,-2.8939 0.1758,-4.3412 0.034,-0.9339 0.021,-1.8716 0.09,-2.8018 0.087,-1.1668 0.1011,-2.3323 0.096,-3.5017 q -0.011,-2.4531 0.039,-4.9059 c 0.017,-0.7929 0.09,-1.5856 0.168,-2.3748 a 28.2333,28.2333 0 0 0 0.1089,-4.8956 10.4312,10.4312 0 0 1 -0.01,-1.3988 c 0.1121,-1.8648 0.2408,-3.7283 0.367,-5.592 a 5.9016,5.9016 0 0 1 0.099,-0.9736 18.43,18.43 0 0 0 0.2676,-4.74 2.8948,2.8948 0 0 0 -0.4226,-1.4538 1.2835,1.2835 0 0 0 -0.9333,-0.6961 14.4074,14.4074 0 0 0 -2.5853,-0.1834 c -1.3382,0.089 -2.68,0.199 -4.019,0.1777 -2.2077,-0.0353 -4.413,-0.0326 -6.62,0.0241 -2.9841,0.0767 -5.972,-0.0922 -8.9553,0.08 -0.086,0.005 -0.1731,0.002 -0.26,6e-4 -1.8609,-0.03 -3.7218,-0.0606 -5.5809,0.0543 -0.2156,0.0133 -0.4327,0.002 -0.6491,-0.002 q -1.9466,-0.036 -3.8932,-0.0735 c -0.476,-0.008 -0.9535,0.0152 -1.4279,-0.0187 -1.3849,-0.0992 -2.7685,-0.0579 -4.1532,-0.0335 -1.6441,0.0291 -3.2868,0.0139 -4.9312,-0.1018 -1.3376,-0.0942 -2.6815,-0.1174 -4.022,-0.11 -3.9379,0.0233 -7.8754,0.0775 -11.8131,0.12 -0.649,0.007 -1.2979,0.0288 -1.9468,0.0225 -2.5533,-0.0245 -5.1066,-0.0707 -7.66,-0.0824 -1.5575,-0.007 -3.115,0.0311 -4.6724,0.0541 -2.5094,0.0371 -5.0186,0.09 -7.5282,0.1139 -1.5575,0.0148 -3.1155,-0.0157 -4.6733,-0.0169 -0.8655,-6e-4 -1.7324,0.0594 -2.5961,0.0182 -1.819,-0.0868 -3.6345,-0.008 -5.4513,0.0281 -2.2928,0.0455 -4.5784,0.2484 -6.8722,0.2905 -2.5956,0.0477 -5.1893,0.1831 -7.7842,0.27 -1.2107,0.0406 -2.425,0.0145 -3.6328,0.0954 -1.5981,0.1071 -3.194,0.2252 -4.7971,0.1872 a 4.9121,4.9121 0 0 0 -0.6477,0.0381 26.1031,26.1031 0 0 1 -3.8888,0.1415 c -0.3885,-0.0157 -0.7785,0.0138 -1.1676,0.03 -0.9509,0.0389 -1.9014,0.0875 -2.8525,0.1217 -1.1675,0.042 -2.3351,0.0874 -3.5031,0.1063 -1.8168,0.0292 -3.6339,0.0377 -5.4509,0.0534 a 3.4167,3.4167 0 0 1 -0.3891,-0.0174 21.6246,21.6246 0 0 0 -3.2433,-0.0394 13.3472,13.3472 0 0 1 -2.4609,-0.1 10.4417,10.4417 0 0 0 -2.4624,-0.05 c -0.4305,0.0415 -0.8635,0.06 -1.2959,0.0748 -1.3834,0.0484 -2.7668,0.0971 -4.1506,0.133 -1.2975,0.0337 -2.5955,0.0738 -3.8933,0.069 -1.1245,-0.004 -2.249,-0.0841 -3.3737,-0.0988 -0.8215,-0.0106 -1.644,0.0154 -2.465,0.0515 -1.8586,0.0816 -3.7166,0.1809 -5.5749,0.27 -0.8641,0.0416 -1.7286,0.0747 -2.5928,0.1158 -0.7777,0.037 -1.5549,0.0887 -2.3329,0.1172 -0.6047,0.0222 -1.21,0.0235 -1.8157,0.0248 -0.4315,9e-4 -0.8635,-0.002 -1.2946,-0.0234 a 37.6031,37.6031 0 0 0 -5.7066,0.0273 17.3264,17.3264 0 0 1 -4.0119,0.144 2.8744,2.8744 0 0 0 -0.5188,0.005 35.5961,35.5961 0 0 0 -3.7484,0.3285 3.6523,3.6523 0 0 1 -0.9022,0.0659 12.592,12.592 0 0 0 -2.2029,0.0406 9.8734,9.8734 0 0 1 -1.1668,0.021 30.2533,30.2533 0 0 0 -5.3131,0.175 c -0.3,0.042 -0.6032,0.0577 -0.9054,0.0782 -0.95,0.0643 -1.9,0.1156 -2.8487,0.1921 a 8.2625,8.2625 0 0 0 -1.02,0.1744 0.6266,0.6266 0 0 0 -0.3832,0.5135 11.53,11.53 0 0 0 0.28,2.359 c 0.142,0.54 0.279,1.0821 0.4274,1.62 a 7.2374,7.2374 0 0 1 0.25,2.0779 c -0.012,0.6065 -0.01,1.2162 0.033,1.821 0.1,1.4451 0.2008,2.8913 0.3522,4.331 0.098,0.932 0.1486,1.8617 0.1675,2.7972 a 10.8408,10.8408 0 0 0 0.1269,1.5329 16.79,16.79 0 0 1 0.206,2.5119 c 0.029,2.29 0.054,4.5807 0.1028,6.8706 0.054,2.523 -0.073,5.0489 0.1442,7.5692 0.012,0.1392 0,0.28 0,0.4206 q 0.017,3.2957 0.031,6.5912 c 0,0.4671 -0.027,0.9342 -0.039,1.4013 -0.02,0.7936 -0.052,1.5872 -0.054,2.381 0,1.5423 0.015,3.0849 0.013,4.6272 0,0.8878 -0.022,1.7755 -0.039,2.6631 -0.038,2.1031 0.096,4.2037 0.1076,6.3069 0.01,1.5409 0.059,3.0824 0.06,4.6252 10e-4,1.8216 -0.015,3.6433 0.046,5.4666 0.042,1.26 0.034,2.5218 0.099,3.7824 0.024,0.4661 0,0.9345 0,1.4019 7e-4,0.4205 -10e-4,0.841 0.01,1.2614 0.03,1.9161 0.079,3.8322 0.091,5.7483 0.018,2.8039 0.011,5.6078 0.016,8.4117 0,0.2336 0.01,0.4675 0.021,0.7009 0.072,1.4464 0.012,2.8977 0.1691,4.3415 0.035,0.3233 0.013,0.6537 0.016,0.9808 0.016,1.9631 0.026,3.9262 0.05,5.8891 0.021,1.7294 0.06,3.4586 0.089,5.1878 0.026,1.5421 0.031,3.0846 0.075,4.6261 0.069,2.3833 0.1884,4.7654 0.2388,7.1489 0.043,2.0582 0.149,4.11 0.3343,6.1594 0.038,0.4187 0.064,0.8394 0.074,1.26 0.031,1.2617 0.05,2.5237 0.077,3.7855 0.048,2.2434 0.09,4.487 0.1519,6.73 0.022,0.7938 0.086,1.5873 0.1533,2.3789 a 6.4173,6.4173 0 0 0 0.1828,1.1024 c 0.3406,1.2774 0.7609,1.6 1.983,1.4706 a 30.2971,30.2971 0 0 1 3.37,-0.1435 19.0965,19.0965 0 0 0 3.1081,-0.18 c 1.8414,-0.2921 3.697,-0.43 5.55,-0.5957 1.0771,-0.0965 2.1514,-0.2273 3.2273,-0.3383 0.43,-0.0444 0.8619,-0.0785 1.2931,-0.1146 0.3881,-0.0325 0.7812,-0.0307 1.1639,-0.0969 a 52.374,52.374 0 0 1 6.08,-0.4812 c 3.4995,-0.1922 7.0032,-0.307 10.5057,-0.4425 2.5943,-0.1 5.1893,-0.1834 7.7841,-0.2718 q 5.449,-0.1857 10.8984,-0.37 c 0.7783,-0.0271 1.5553,-0.09 2.3336,-0.1115 1.9033,-0.0514 3.8075,-0.0725 5.71,-0.1337 2.6381,-0.0848 5.2752,-0.2017 7.9131,-0.2929 q 5.4492,-0.1886 10.8991,-0.3559 a 40.3644,40.3644 0 0 1 4.5408,-0.0526 7.1483,7.1483 0 0 0 0.9073,-0.0336 q 4.344,-0.1982 8.688,-0.3953 c 1.7725,-0.0776 3.5455,-0.1424 5.3185,-0.209 q 2.7903,-0.1027 5.5796,-0.2 z m -83.552,-139.4265 v 0.079 c 0.3458,-0.0125 0.6927,-0.0518 1.0371,-0.033 a 55.1654,55.1654 0 0 0 5.5806,-0.0623 c 0.6052,-0.0282 1.2109,-0.0738 1.8162,-0.0682 2.2084,0.02 4.4132,-0.0876 6.62,-0.1507 2.0758,-0.06 4.1514,-0.13 6.23,0.0132 a 30.08,30.08 0 0 0 5.1883,-0.0638 c 0.6021,-0.0625 1.2093,-0.0905 1.8147,-0.0943 1.9038,-0.0123 3.8069,-0.023 5.7111,0.09 1.209,0.0717 2.4234,0.0668 3.6342,0.0431 1.3841,-0.027 2.7667,-0.1178 4.15,-0.171 0.6053,-0.0232 1.2114,-0.024 1.8173,-0.0308 0.4759,-0.005 0.9523,0.007 1.4278,-0.008 q 4.7364,-0.1485 9.4724,-0.3074 3.8928,-0.1353 7.7847,-0.2951 c 1.8593,-0.0732 3.7181,-0.1591 5.5774,-0.2307 a 52.3236,52.3236 0 0 0 5.572,-0.2957 11.36,11.36 0 0 1 1.4261,-0.0542 c 0.4327,-0.008 0.8657,0.005 1.2983,-0.004 2.4662,-0.0524 4.9321,-0.1254 7.3986,-0.1577 1.6007,-0.021 3.2029,0.0481 4.8033,0.0185 2.3371,-0.0432 4.6733,-0.027 7.0076,0.1069 a 16.6255,16.6255 0 0 0 2.8507,-0.0664 49.5244,49.5244 0 0 1 6.0918,-0.2823 c 1.082,0.01 2.164,0.0381 3.2459,0.0428 q 3.7006,0.0161 7.4013,0.015 c 2.337,-0.003 4.6748,0.0114 7.0107,-0.0434 3.5936,-0.0843 7.1838,0.0517 10.7751,0.1586 1.2113,0.036 2.423,0.0526 3.6346,0.0659 2.12,0.0232 4.2416,0.007 6.3614,0.0661 1.2561,0.0348 2.5107,0.0619 3.7638,-0.006 3.0273,-0.1638 6.056,-0.1612 9.0861,-0.0864 3.116,0.0768 6.231,0.07 9.3451,-0.0528 0.9943,-0.0391 1.99,-0.04 2.9849,-0.067 0.3022,-0.008 0.6038,-0.0418 0.905,-0.071 a 27.92,27.92 0 0 1 3.623,-0.2544 1.2874,1.2874 0 0 0 0.3833,-0.0542 c 0.1244,-0.0349 0.2643,-0.0926 0.2783,-0.2524 a 0.6029,0.6029 0 0 0 -0.056,-0.3888 5.5257,5.5257 0 0 0 -0.857,-0.8527 19.681,19.681 0 0 1 -1.6289,-1.399 c -0.3318,-0.3014 -0.6842,-0.5765 -1.0289,-0.8612 -0.62,-0.5121 -1.2423,-1.0215 -1.862,-1.5342 -0.2755,-0.2279 -0.5432,-0.467 -0.8214,-0.6907 q -3.3408,-2.6877 -6.6843,-5.3715 c -1.079,-0.8672 -2.1816,-1.7026 -3.23,-2.6109 -1.6919,-1.4655 -3.3551,-2.97 -5.0161,-4.4767 a 24.7715,24.7715 0 0 0 -2.6656,-2.2474 4.6446,4.6446 0 0 1 -0.6089,-0.5268 c -0.7759,-0.7539 -1.62,-1.4126 -2.4553,-2.0846 -0.2435,-0.196 -0.4932,-0.3845 -0.726,-0.5945 q -3.048,-2.7489 -6.0916,-5.5032 c -0.2661,-0.24 -0.5453,-0.4636 -0.8226,-0.6888 -1.0053,-0.8167 -2.0459,-1.5872 -3.0108,-2.4561 -1.4344,-1.2916 -2.94,-2.4811 -4.4043,-3.7294 -0.2723,-0.2322 -0.5452,-0.4637 -0.814,-0.7 -0.5712,-0.5035 -1.1388,-1.0118 -1.71,-1.515 -0.3027,-0.2666 -0.6213,-0.5131 -0.9136,-0.7921 -1.463,-1.3966 -2.9319,-2.7849 -4.4238,-4.146 -1.2261,-1.1186 -2.4178,-2.2795 -3.6763,-3.359 -1.5288,-1.3113 -3.0719,-2.6056 -4.5334,-4.0071 -0.2264,-0.2171 -0.4816,-0.399 -0.7234,-0.5973 q -1.3474,-1.105 -2.694,-2.2113 a 2.0893,2.0893 0 0 1 -0.2929,-0.2784 14.69,14.69 0 0 0 -2.1476,-2.037 c -0.2068,-0.1678 -0.3741,-0.3913 -0.5718,-0.5738 q -0.6426,-0.5936 -1.2992,-1.17 c -0.2355,-0.2065 -0.4933,-0.3837 -0.7255,-0.5941 -0.9641,-0.8732 -1.922,-1.7544 -2.8827,-2.6319 -0.1326,-0.121 -0.2638,-0.2446 -0.4032,-0.356 a 5.9551,5.9551 0 0 0 -3.4608,-1.4487 15.0018,15.0018 0 0 0 -2.5915,0.0488 7.8447,7.8447 0 0 1 -2.8424,-0.0983 2.9625,2.9625 0 0 0 -0.7726,-0.0829 c -1.2545,0.0343 -2.51,0.0584 -3.7622,0.138 -1.684,0.107 -3.3657,0.256 -5.0473,0.3995 a 7.5377,7.5377 0 0 0 -1.2827,0.1912 10.2435,10.2435 0 0 1 -2.7046,0.293 26.1117,26.1117 0 0 0 -4.14,0.3 11.9069,11.9069 0 0 1 -2.3313,0.1007 c -0.5623,-0.0244 -1.1244,-0.0526 -1.6867,-0.0783 a 17.3456,17.3456 0 0 0 -2.5913,0.0957 c -2.0663,0.2151 -4.137,0.384 -6.2055,0.5761 q -0.7755,0.0718 -1.5484,0.1733 a 1.7463,1.7463 0 0 0 -0.8462,0.325 c -0.4592,0.3471 -0.9464,0.6558 -1.3806,1.0354 a 19.6238,19.6238 0 0 1 -1.9339,1.3979 8.7176,8.7176 0 0 0 -1.539,1.269 16.3366,16.3366 0 0 1 -2.5195,2.179 26.2537,26.2537 0 0 1 -2.3163,1.5333 c -0.4181,0.24 -0.8075,0.538 -1.2074,0.814 -1.3094,0.9037 -2.485,2.0164 -3.8386,2.8524 a 3.75,3.75 0 0 0 -0.6211,0.5017 15.6265,15.6265 0 0 1 -2.765,2.0622 c -1.24,0.7593 -2.4646,1.5441 -3.6419,2.4138 -0.3553,0.2624 -0.7338,0.49 -1.11,0.7175 -1.5446,0.9339 -3.0969,1.8531 -4.6377,2.7941 -1.353,0.8262 -2.68,1.7031 -4.0439,2.5067 -3.1482,1.8545 -6.2006,3.8789 -9.2282,5.9491 -1.203,0.8227 -2.3868,1.68 -3.6136,2.46 q -1.6759,1.0643 -3.3067,2.2019 c -0.8711,0.6044 -1.77,1.1624 -2.6554,1.7427 -0.4427,0.29 -0.8885,0.5752 -1.3238,0.8777 q -1.0342,0.7189 -2.0559,1.4591 c -0.7179,0.5176 -1.4562,1.0079 -2.14,1.5738 -1.4068,1.1638 -2.8826,2.2208 -4.3545,3.28 -2.0868,1.5017 -4.0725,3.1478 -6.0205,4.8422 -1.11,0.9659 -2.2565,1.8752 -3.3966,2.7948 a 16.2457,16.2457 0 0 0 -1.9826,1.7928 6.25,6.25 0 0 1 -1.2139,1.04 9.6617,9.6617 0 0 0 -1.942,1.6193 5.1665,5.1665 0 0 1 -0.8088,0.6965 c -1.1374,0.8469 -2.2574,1.718 -3.3209,2.6712 -0.033,0.03 -0.069,0.0555 -0.1037,0.0838 a 31.9018,31.9018 0 0 0 -2.719,2.13 c -0.3112,0.3162 -0.716,0.5226 -1.0467,0.82 -0.9618,0.8645 -1.9089,1.7482 -2.8584,2.6287 a 2.4731,2.4731 0 0 0 -0.2538,0.3132 c -0.095,0.1233 0.01,0.44 0.1572,0.462 a 3.9514,3.9514 0 0 0 0.64,0.0679 c 0.822,-0.0113 1.6452,-0.0842 2.4651,-0.0476 a 15.5192,15.5192 0 0 0 3.1087,-0.05 2.7108,2.7108 0 0 1 0.648,-0.012 10,10 0 0 0 1.9413,-0.1125 c 0.4732,-0.0509 0.9456,-0.1118 1.4195,-0.154 1.2078,-0.1075 2.4205,-0.1141 3.63,-0.1714 2.2037,-0.1044 4.4137,-0.0472 6.613,-0.2793 0.8161,-0.0861 1.6424,-0.0645 2.4641,-0.0927 q 0.6479,-0.0236 1.2961,-0.048 z m 78.27,-65.895 v 0.0285 c 1.2058,-0.1 2.4175,-0.15 3.6159,-0.3111 1.4578,-0.196 2.9169,-0.36 4.3816,-0.48 a 6.3348,6.3348 0 0 0 1.0186,-0.1863 0.7519,0.7519 0 0 0 0.5758,-0.6807 22.711,22.711 0 0 0 0.1839,-2.6465 c -0.012,-0.7488 0,-1.4907 0.053,-2.2347 a 28.2859,28.2859 0 0 0 -0.09,-4.7545 12.9548,12.9548 0 0 0 -0.3046,-1.6462 0.8964,0.8964 0 0 0 -0.8717,-0.7028 3.175,3.175 0 0 0 -0.5171,0.0155 c -0.3427,0.0454 -0.6852,0.0978 -1.0243,0.1668 a 6.6257,6.6257 0 0 1 -2.1916,0.1169 6.89,6.89 0 0 0 -1.9362,0.1042 c -0.5559,0.0848 -1.11,0.19 -1.6676,0.2529 a 6.8314,6.8314 0 0 1 -1.2916,0.0529 25.8354,25.8354 0 0 0 -3.2381,0.0549 8.707,8.707 0 0 0 -2.0325,0.4127 0.94,0.94 0 0 0 -0.67,0.9192 6.806,6.806 0 0 0 0.022,0.9782 c 0.1019,0.9274 0.2276,1.8517 0.3388,2.7779 0.078,0.6478 0.1642,1.2952 0.2166,1.9455 0.086,1.07 0.1273,2.1433 0.2273,3.2112 a 17.7493,17.7493 0 0 0 0.305,1.9319 1.0826,1.0826 0 0 0 1.018,0.9223 7.9,7.9 0 0 0 1.0355,-0.0121 c 0.9473,-0.0702 1.8942,-0.1566 2.8416,-0.2366 z m -9.4965,-33.479 v 0.04 c -0.69,0.046 -1.38,0.0861 -2.07,0.14 a 6.123,6.123 0 0 0 -1.7668,0.41 0.8709,0.8709 0 0 0 -0.4758,0.7688 3.2664,3.2664 0 0 0 0.3652,1.4732 0.9643,0.9643 0 0 0 0.8055,0.6186 c 0.2151,0.022 0.431,0.0347 0.6466,0.0516 2.7208,0.2136 5.4426,0.1239 8.1641,0.0737 a 7.1706,7.1706 0 0 0 0.9042,-0.0743 23.0945,23.0945 0 0 1 3.2331,-0.1845 32.0985,32.0985 0 0 0 4.7838,-0.3092 25.0487,25.0487 0 0 1 3.2273,-0.2787 8.03,8.03 0 0 0 1.5442,-0.1658 7.4011,7.4011 0 0 1 2.5793,-0.11 7.0155,7.0155 0 0 0 1.0343,0.0666 2.87,2.87 0 0 0 1.8835,-0.8161 0.7669,0.7669 0 0 0 0.23,-0.7511 0.6936,0.6936 0 0 0 -0.4759,-0.4371 2.0979,2.0979 0 0 0 -0.5078,-0.0978 c -0.2585,-0.0143 -0.5186,-0.005 -0.7775,0.005 a 2.4,2.4 0 0 1 -1.26,-0.261 4.0838,4.0838 0 0 0 -2.7817,-0.3789 7.6474,7.6474 0 0 1 -1.9375,0.0854 c -0.4745,-0.0306 -0.95,-0.0413 -1.4255,-0.0547 a 12.523,12.523 0 0 0 -2.7137,0.1569 c -0.212,0.0405 -0.4287,0.055 -0.6438,0.0763 a 75.0175,75.0175 0 0 1 -9.1981,0.11 c -0.086,-0.002 -0.1724,-0.0164 -0.2587,-0.02 q -1.553,-0.0697 -3.1066,-0.1369 z m 9.6229,-12.6641 10e-4,0.0133 q -1.4214,0.1106 -2.8427,0.2216 c -0.3875,0.0308 -0.7758,0.0572 -1.1615,0.1052 a 3.249,3.249 0 0 0 -0.6315,0.1458 1.2241,1.2241 0 0 0 -0.8289,1.3923 c 0.066,0.46 0.1639,0.9171 0.2743,1.368 a 5.8486,5.8486 0 0 1 0.2,1.38 c 9e-4,0.28 -0.01,0.56 0,0.84 a 0.7939,0.7939 0 0 0 0.6335,0.7733 4.6615,4.6615 0 0 0 1.8061,0.003 23.5065,23.5065 0 0 1 3.4855,-0.2625 c 0.7759,-0.0264 1.5535,-0.0716 2.3242,-0.1648 a 43.9563,43.9563 0 0 1 4.77,-0.4561 9.5068,9.5068 0 0 0 1.0332,-0.0748 0.8211,0.8211 0 0 0 0.71,-0.8513 3.9971,3.9971 0 0 0 0.012,-0.4195 4.68,4.68 0 0 1 0.2361,-1.6485 5.0836,5.0836 0 0 0 0.1448,-0.5363 1.2364,1.2364 0 0 0 -0.7531,-1.4458 2.6792,2.6792 0 0 0 -0.6316,-0.142 c -1.5475,-0.1646 -3.1012,-0.2441 -4.6473,-0.4378 a 9.3657,9.3657 0 0 0 -1.6822,-0.006 c -0.8183,0.0455 -1.6355,0.1331 -2.4532,0.2031 z m -2.2763,7.9777 8e-4,0.0577 c -1.4676,0.0122 -2.9354,0.0146 -4.4026,0.0418 a 10.2107,10.2107 0 0 0 -1.5467,0.13 c -1.3105,0.2266 -1.5663,0.5683 -1.33,2.1053 a 0.8265,0.8265 0 0 0 0.6227,0.6383 c 0.2986,0.0464 0.6,0.0753 0.9012,0.0961 0.4308,0.03 0.8627,0.0392 1.2935,0.0679 a 49.9787,49.9787 0 0 0 5.0491,0.0783 25.87,25.87 0 0 0 4.1314,-0.2745 2.7123,2.7123 0 0 1 0.3875,-0.0257 c 1.5952,-0.08 3.1906,-0.1567 4.7855,-0.242 0.5169,-0.0276 1.033,-0.073 1.5487,-0.1192 0.5588,-0.05 1.1165,-0.114 1.6752,-0.1653 0.473,-0.0434 0.949,-0.0591 1.4193,-0.1228 a 2.6463,2.6463 0 0 0 0.7409,-0.2252 0.9855,0.9855 0 0 0 0.5806,-0.8575 2.6247,2.6247 0 0 0 -0.027,-0.6934 0.7707,0.7707 0 0 0 -0.6035,-0.6555 c -0.38,-0.0827 -0.77,-0.1172 -1.1508,-0.1966 a 7.6166,7.6166 0 0 0 -2.8355,-0.0671 10.63,10.63 0 0 1 -2.5829,0.085 10.9074,10.9074 0 0 0 -2.8387,0.1407 9.0071,9.0071 0 0 1 -1.417,0.1274 c -1.4669,0.0364 -2.9344,0.0523 -4.4017,0.0763 z m 1.9336,18.96 8e-4,0.023 c 0.13,-0.005 0.26,-0.002 0.3887,-0.0152 1.847,-0.1968 3.7078,-0.2532 5.5381,-0.6256 0.5072,-0.1032 1.03,-0.1188 1.5456,-0.1763 0.3865,-0.043 0.7756,-0.0714 1.1583,-0.1395 a 2.8879,2.8879 0 0 0 0.7425,-0.2322 1.207,1.207 0 0 0 0.7236,-1.072 7.28,7.28 0 0 0 -0.06,-1.2516 0.8943,0.8943 0 0 0 -0.5617,-0.7185 2.0556,2.0556 0 0 0 -0.6228,-0.1762 c -0.6458,-0.055 -1.2943,-0.1171 -1.9406,-0.109 -0.8636,0.0109 -1.7265,0.0808 -2.5892,0.1333 a 10.7559,10.7559 0 0 1 -3.357,-0.0934 2.2463,2.2463 0 0 0 -0.7743,-0.025 c -1.0765,0.1128 -2.1569,0.119 -3.2365,0.1553 -0.4745,0.0159 -0.9489,0.0637 -1.4207,0.1207 a 3.1676,3.1676 0 0 0 -1.1191,0.3309 0.6763,0.6763 0 0 0 -0.4055,0.6543 14.4259,14.4259 0 0 1 0.02,2.5139 0.6952,0.6952 0 0 0 0.5353,0.6935 7.4757,7.4757 0 0 0 1.9376,0.1311 c 1.1658,-0.0257 2.3312,-0.0798 3.4968,-0.1219 z m 0.5838,-6.0343 v -0.0248 c 0.2159,-0.008 0.4323,-0.01 0.6477,-0.0244 1.595,-0.109 3.1921,-0.1929 4.7836,-0.3424 0.9026,-0.0848 1.8013,-0.21 2.7074,-0.2743 a 12.47,12.47 0 0 0 1.9159,-0.3332 1.5506,1.5506 0 0 0 1.1216,-1.2283 0.8226,0.8226 0 0 0 -0.6477,-1.022 2.6442,2.6442 0 0 0 -0.5167,-0.0265 c -1.12,0.09 -2.24,0.1693 -3.3568,0.2914 a 9.8893,9.8893 0 0 1 -2.1953,0.1364 46.62,46.62 0 0 0 -5.1817,-0.0727 c -1.8979,-0.005 -3.7952,0.2052 -5.6926,0.3245 a 2.8585,2.8585 0 0 0 -0.5139,0.0681 c -0.5458,0.1364 -1.0945,0.2651 -1.6307,0.4371 a 0.7082,0.7082 0 0 0 -0.1943,1.148 1.987,1.987 0 0 0 0.5287,0.3931 6.3485,6.3485 0 0 0 2.7805,0.5978 c 1.8146,-0.005 3.6294,-0.031 5.4442,-0.0482 z m 1.6321,7.5874 a 33.3267,33.3267 0 0 1 -4.2856,0.3026 54.3716,54.3716 0 0 0 -6.8205,0.7323 1.5926,1.5926 0 0 0 -0.3672,0.1247 0.6064,0.6064 0 0 0 -0.2951,0.5718 0.8791,0.8791 0 0 0 0.3788,0.6947 1.4356,1.4356 0 0 0 0.7336,0.2488 c 0.6031,0.0457 1.2056,0.1046 1.8092,0.1358 a 15.1808,15.1808 0 0 0 2.457,0.0819 c 2.1057,-0.2325 4.2236,-0.2285 6.3351,-0.3474 0.5166,-0.0291 1.0323,-0.08 1.5472,-0.1344 1.4166,-0.1488 2.8353,-0.28 4.2477,-0.4653 1.198,-0.1571 2.3885,-0.3787 3.5818,-0.5755 a 0.4937,0.4937 0 0 0 0.24,-0.0924 2.0671,2.0671 0 0 0 0.3605,-0.3833 0.4609,0.4609 0 0 0 -0.17,-0.598 2.0278,2.0278 0 0 0 -0.3641,-0.1358 13.2329,13.2329 0 0 0 -4.2424,-0.4013 c -0.17,0.0216 -0.3453,-0.002 -0.5177,0.005 a 39.252,39.252 0 0 0 -4.6284,0.2359 z"
           transform="translate(141.5726,-12.5786)"
           id="path3537" />
        <path
           style="fill:#5f67b0"
           class="cls-3"
           d="m 1792.8008,507.3782 q -2.7893,0.1006 -5.5783,0.202 c -1.773,0.0666 -3.546,0.1314 -5.3185,0.209 q -4.3443,0.19 -8.688,0.3953 a 7.1483,7.1483 0 0 1 -0.9073,0.0336 40.3644,40.3644 0 0 0 -4.5408,0.0526 q -5.45,0.1623 -10.8991,0.3559 c -2.6379,0.0912 -5.275,0.2081 -7.9131,0.2929 -1.9029,0.0612 -3.8071,0.0823 -5.71,0.1337 -0.7783,0.021 -1.5553,0.0844 -2.3336,0.1115 q -5.4491,0.1895 -10.8984,0.37 c -2.5948,0.0884 -5.19,0.1714 -7.7841,0.2718 -3.5025,0.1355 -7.0062,0.25 -10.5057,0.4425 a 52.374,52.374 0 0 0 -6.08,0.4812 c -0.3827,0.0662 -0.7758,0.0644 -1.1639,0.0969 -0.4312,0.0361 -0.8627,0.07 -1.2931,0.1146 -1.0759,0.111 -2.15,0.2418 -3.2273,0.3383 -1.8534,0.1659 -3.709,0.3036 -5.55,0.5957 a 19.0965,19.0965 0 0 1 -3.1081,0.18 30.2971,30.2971 0 0 0 -3.37,0.1435 c -1.2221,0.1292 -1.6424,-0.1932 -1.983,-1.4706 a 6.4173,6.4173 0 0 1 -0.1828,-1.1024 c -0.067,-0.7916 -0.1312,-1.5851 -0.1533,-2.3789 -0.062,-2.2431 -0.104,-4.4867 -0.1519,-6.73 -0.027,-1.2618 -0.046,-2.5238 -0.077,-3.7855 -0.01,-0.42 -0.036,-0.841 -0.074,-1.26 -0.1853,-2.049 -0.2908,-4.1012 -0.3343,-6.1594 -0.05,-2.3835 -0.17,-4.7656 -0.2388,-7.1489 -0.044,-1.5415 -0.05,-3.084 -0.075,-4.6261 -0.029,-1.7292 -0.068,-3.4584 -0.089,-5.1878 -0.024,-1.9629 -0.034,-3.926 -0.05,-5.8891 0,-0.3271 0.019,-0.6575 -0.016,-0.9808 -0.1575,-1.4438 -0.097,-2.8951 -0.1691,-4.3415 -0.012,-0.2334 -0.02,-0.4673 -0.021,-0.7009 -0.01,-2.8039 0,-5.6078 -0.016,-8.4117 -0.012,-1.9161 -0.061,-3.8322 -0.091,-5.7483 -0.01,-0.42 0,-0.8409 -0.01,-1.2614 -7e-4,-0.4674 0.021,-0.9358 0,-1.4019 -0.065,-1.2606 -0.056,-2.5229 -0.099,-3.7824 -0.061,-1.8233 -0.045,-3.645 -0.046,-5.4666 -9e-4,-1.5428 -0.051,-3.0843 -0.06,-4.6252 -0.012,-2.1032 -0.1458,-4.2038 -0.1076,-6.3069 0.016,-0.8876 0.037,-1.7753 0.038,-2.6631 0,-1.5423 -0.017,-3.0849 -0.013,-4.6272 0,-0.7938 0.034,-1.5874 0.054,-2.381 0.012,-0.4671 0.04,-0.9342 0.039,-1.4013 q -0.01,-3.2956 -0.031,-6.5912 c -8e-4,-0.14 0.01,-0.2814 0,-0.4206 -0.2169,-2.52 -0.09,-5.0462 -0.1442,-7.5692 -0.049,-2.29 -0.074,-4.58 -0.1028,-6.8706 a 16.79,16.79 0 0 0 -0.206,-2.5119 10.8408,10.8408 0 0 1 -0.1269,-1.5329 c -0.019,-0.9355 -0.07,-1.8652 -0.1675,-2.7972 -0.1514,-1.44 -0.2523,-2.8859 -0.3522,-4.331 -0.042,-0.6048 -0.044,-1.2145 -0.033,-1.821 a 7.2374,7.2374 0 0 0 -0.25,-2.0779 c -0.1484,-0.5383 -0.2854,-1.08 -0.4274,-1.62 a 11.53,11.53 0 0 1 -0.28,-2.359 0.6266,0.6266 0 0 1 0.3832,-0.5135 8.2625,8.2625 0 0 1 1.02,-0.1744 c 0.9487,-0.0765 1.8991,-0.1278 2.8487,-0.1921 0.3022,-0.02 0.6056,-0.0362 0.9054,-0.0782 a 30.2533,30.2533 0 0 1 5.3131,-0.175 9.8734,9.8734 0 0 0 1.1668,-0.021 12.592,12.592 0 0 1 2.2029,-0.0406 3.6523,3.6523 0 0 0 0.9022,-0.0659 35.5961,35.5961 0 0 1 3.7484,-0.3285 2.8744,2.8744 0 0 1 0.5188,-0.005 17.3264,17.3264 0 0 0 4.0119,-0.144 37.6031,37.6031 0 0 1 5.7066,-0.0273 c 0.4311,0.0214 0.8631,0.0243 1.2946,0.0234 0.6053,-10e-4 1.211,-0.003 1.8157,-0.0248 0.778,-0.0285 1.5552,-0.08 2.3329,-0.1172 0.8642,-0.0411 1.7287,-0.0742 2.5928,-0.1158 1.8583,-0.0894 3.7163,-0.1887 5.5749,-0.27 0.821,-0.0361 1.6435,-0.0621 2.465,-0.0515 1.1247,0.0147 2.2492,0.0946 3.3737,0.0988 1.2978,0.005 2.5958,-0.0353 3.8933,-0.069 1.3838,-0.0359 2.7672,-0.0846 4.1506,-0.133 0.4324,-0.0152 0.8654,-0.0333 1.2959,-0.0748 a 10.4417,10.4417 0 0 1 2.4624,0.05 13.3472,13.3472 0 0 0 2.4609,0.1 21.6246,21.6246 0 0 1 3.2433,0.0394 3.4167,3.4167 0 0 0 0.3891,0.0174 c 1.817,-0.0157 3.6341,-0.0242 5.4509,-0.0534 1.168,-0.0189 2.3356,-0.0643 3.5031,-0.1063 0.9511,-0.0342 1.9016,-0.0828 2.8525,-0.1217 0.3891,-0.0158 0.7791,-0.0453 1.1676,-0.03 a 26.1031,26.1031 0 0 0 3.8888,-0.1415 4.9121,4.9121 0 0 1 0.6477,-0.0381 c 1.6031,0.038 3.199,-0.08 4.7971,-0.1872 1.2078,-0.0809 2.4221,-0.0548 3.6328,-0.0954 2.5949,-0.087 5.1886,-0.2224 7.7842,-0.27 2.2938,-0.0421 4.5794,-0.245 6.8722,-0.2905 1.8168,-0.036 3.6323,-0.1149 5.4513,-0.0281 0.8637,0.0412 1.7306,-0.0188 2.5961,-0.0182 1.5578,10e-4 3.1158,0.0317 4.6733,0.0169 2.51,-0.024 5.0188,-0.0768 7.5282,-0.1139 1.5574,-0.023 3.1149,-0.0613 4.6724,-0.0541 2.5533,0.0117 5.1066,0.0579 7.66,0.0824 0.6489,0.006 1.2978,-0.0155 1.9468,-0.0225 3.9377,-0.0426 7.8752,-0.0968 11.8131,-0.12 1.3405,-0.008 2.6844,0.0153 4.022,0.11 1.6444,0.1157 3.2871,0.1309 4.9312,0.1018 1.3847,-0.0244 2.7683,-0.0657 4.1532,0.0335 0.4744,0.0339 0.9519,0.01 1.4279,0.0187 q 1.9467,0.0345 3.8932,0.0735 c 0.2164,0.004 0.4335,0.0149 0.6491,0.002 1.8591,-0.1149 3.72,-0.0845 5.5809,-0.0543 0.087,10e-4 0.1733,0.004 0.26,-6e-4 2.9833,-0.1723 5.9712,-0.003 8.9553,-0.08 2.2069,-0.0567 4.4122,-0.0594 6.62,-0.0241 1.3391,0.0213 2.6808,-0.0887 4.019,-0.1777 a 14.4074,14.4074 0 0 1 2.5853,0.1834 1.2835,1.2835 0 0 1 0.9333,0.6961 2.8948,2.8948 0 0 1 0.4226,1.4538 18.43,18.43 0 0 1 -0.2676,4.74 5.9016,5.9016 0 0 0 -0.099,0.9736 c -0.1262,1.8637 -0.2549,3.7272 -0.367,5.592 a 10.4312,10.4312 0 0 0 0.01,1.3988 28.2333,28.2333 0 0 1 -0.1089,4.8956 c -0.078,0.7892 -0.1509,1.5819 -0.168,2.3748 q -0.053,2.452 -0.039,4.9059 c 0.01,1.1694 -0.01,2.3349 -0.096,3.5017 -0.07,0.93 -0.056,1.8679 -0.09,2.8018 -0.053,1.4473 -0.116,2.8942 -0.1758,4.3412 a 46.1556,46.1556 0 0 0 0,4.6253 c 0.047,0.7933 0.08,1.5877 0.1063,2.382 0.017,0.5136 0.034,1.0293 0.011,1.5417 -0.064,1.3993 -0.1521,2.7972 -0.2269,4.1959 a 4.13,4.13 0 0 0 0,0.7 20.3387,20.3387 0 0 1 0.037,2.5211 c -0.01,1.3551 0.012,2.7112 -0.024,4.0652 -0.053,2.0082 -0.078,4.0217 -0.2407,6.02 -0.1175,1.4454 -0.087,2.8946 -0.2107,4.3365 -0.032,0.3707 -0.012,0.7474 -0.01,1.1212 a 17.499,17.499 0 0 1 -0.097,2.0968 24.0725,24.0725 0 0 0 -0.1333,2.5173 c -0.01,1.2632 -0.059,2.5221 -0.1478,3.78 -0.023,0.3258 -0.025,0.6536 -0.033,0.9805 -0.029,1.0742 -0.069,2.1451 -0.1866,3.2154 -0.1015,0.9247 -0.1008,1.8638 -0.13,2.7971 -0.029,0.9333 -0.028,1.8694 -0.062,2.8032 -0.074,2.0544 -0.15,4.1089 -0.2493,6.1618 -0.057,1.1656 -0.1758,2.3252 -0.1963,3.496 -0.028,1.5919 0.053,3.1774 0.1189,4.7653 0.031,0.7464 0.055,1.4951 0.035,2.241 -0.051,1.9626 -0.1064,3.9231 0.037,5.8864 0.078,1.07 0.04,2.1479 0.2048,3.2154 a 6.7964,6.7964 0 0 1 0.036,1.26 60.8628,60.8628 0 0 0 0.2739,6.7215 c 0.035,0.4656 0.049,0.9331 0.068,1.4 0.025,0.6069 0.062,1.2139 0.066,1.8209 0.01,0.8875 0.014,1.7766 -0.028,2.662 a 16.1711,16.1711 0 0 0 0.096,3.2167 6.6461,6.6461 0 0 1 0.077,1.1174 15.2569,15.2569 0 0 0 0.1188,2.3767 6.5453,6.5453 0 0 1 0,1.1171 1.7316,1.7316 0 0 1 -1.2854,1.5556 13.6308,13.6308 0 0 1 -2.7094,0.2583 c -2.4229,0.0221 -4.8456,0.0535 -7.2684,0.08 -0.8653,0.01 -1.7307,0.01 -2.5958,0.0257 -0.9081,0.0166 -1.816,0.0451 -2.7239,0.0716 -0.4757,0.0139 -0.9511,0.0492 -1.4268,0.05 -2.2069,0.003 -4.4139,-0.0106 -6.6208,-0.002 -0.9951,0.004 -1.99,0.0407 -2.9847,0.0743 -2.1621,0.073 -4.3243,0.1445 -6.4859,0.2339 -1.5131,0.0626 -3.0246,0.1651 -4.5377,0.2294 -1.9018,0.0808 -3.8044,0.1392 -5.7066,0.2107 q -2.2052,0.0828 -4.41,0.1746 -6.1608,0.2644 -12.3214,0.5337 c -0.3458,0.0149 -0.6923,0.0133 -1.0383,0.0218 -0.7353,0.0183 -1.4732,0.004 -2.2056,0.0634 -2.9355,0.2386 -5.8811,0.21 -8.8194,0.356 -1.9454,0.0968 -3.8911,0.13 -5.8371,0.181 -1.2105,0.032 -2.4181,0.1691 -3.6287,0.2057 -1.9459,0.059 -3.8931,0.0739 -5.84,0.1074 z"
           transform="translate(141.5726,-12.5786)"
           id="path3539" />
        <path
           style="fill:#5f67b0"
           class="cls-3"
           d="m 1709.2488,367.9517 q -0.6485,0.0234 -1.2967,0.0466 c -0.8217,0.0282 -1.648,0.007 -2.4641,0.0927 -2.1993,0.2321 -4.4093,0.1749 -6.613,0.2793 -1.2095,0.0573 -2.4222,0.0639 -3.63,0.1714 -0.4739,0.0422 -0.9463,0.1031 -1.4195,0.154 a 10,10 0 0 1 -1.9413,0.1125 2.7108,2.7108 0 0 0 -0.648,0.012 15.5192,15.5192 0 0 1 -3.1087,0.05 c -0.82,-0.0366 -1.6431,0.0363 -2.4651,0.0476 a 3.9514,3.9514 0 0 1 -0.64,-0.0679 c -0.1485,-0.0225 -0.2521,-0.3387 -0.1572,-0.462 a 2.4731,2.4731 0 0 1 0.2538,-0.3132 c 0.9495,-0.88 1.8966,-1.7642 2.8584,-2.6287 0.3307,-0.2972 0.7355,-0.5036 1.0467,-0.82 a 31.9018,31.9018 0 0 1 2.719,-2.13 c 0.034,-0.0283 0.071,-0.0541 0.1037,-0.0838 1.0635,-0.9532 2.1835,-1.8243 3.3209,-2.6712 a 5.1665,5.1665 0 0 0 0.8088,-0.6965 9.6617,9.6617 0 0 1 1.942,-1.6193 6.25,6.25 0 0 0 1.2139,-1.04 16.2457,16.2457 0 0 1 1.9826,-1.7928 c 1.14,-0.92 2.2862,-1.8289 3.3966,-2.7948 1.948,-1.6944 3.9337,-3.34 6.0205,-4.8422 1.4719,-1.0591 2.9477,-2.1161 4.3545,-3.28 0.6841,-0.5659 1.4224,-1.0562 2.14,-1.5738 q 1.023,-0.7375 2.0559,-1.4591 c 0.4353,-0.3025 0.8811,-0.5877 1.3238,-0.8777 0.8856,-0.58 1.7843,-1.1383 2.6554,-1.7427 q 1.6348,-1.1343 3.3067,-2.2019 c 1.2268,-0.7792 2.4106,-1.637 3.6136,-2.46 3.0276,-2.07 6.08,-4.0946 9.2282,-5.9491 1.3642,-0.8036 2.6909,-1.68 4.0439,-2.5067 1.5408,-0.941 3.0931,-1.86 4.6377,-2.7941 0.3762,-0.2275 0.7547,-0.4551 1.11,-0.7175 1.1773,-0.87 2.4022,-1.6545 3.6419,-2.4138 a 15.6265,15.6265 0 0 0 2.765,-2.0622 3.75,3.75 0 0 1 0.6211,-0.5017 c 1.3536,-0.836 2.5292,-1.9487 3.8386,-2.8524 0.4,-0.276 0.7893,-0.5743 1.2074,-0.814 a 26.2537,26.2537 0 0 0 2.3163,-1.5333 16.3366,16.3366 0 0 0 2.5195,-2.179 8.7176,8.7176 0 0 1 1.539,-1.269 19.6238,19.6238 0 0 0 1.9339,-1.3979 c 0.4342,-0.38 0.9214,-0.6883 1.3806,-1.0354 a 1.7463,1.7463 0 0 1 0.8462,-0.325 q 0.7723,-0.1025 1.5484,-0.1733 c 2.0685,-0.1921 4.1392,-0.361 6.2055,-0.5761 a 17.3456,17.3456 0 0 1 2.5913,-0.0957 c 0.5623,0.0257 1.1244,0.0539 1.6867,0.0783 a 11.9069,11.9069 0 0 0 2.3313,-0.1007 26.1117,26.1117 0 0 1 4.14,-0.3 10.2435,10.2435 0 0 0 2.7046,-0.293 7.5377,7.5377 0 0 1 1.2827,-0.1912 c 1.6816,-0.1435 3.3633,-0.2925 5.0473,-0.3995 1.2521,-0.08 2.5077,-0.1037 3.7622,-0.138 a 2.9625,2.9625 0 0 1 0.7726,0.0829 7.8447,7.8447 0 0 0 2.8424,0.0983 15.0018,15.0018 0 0 1 2.5915,-0.0488 5.9551,5.9551 0 0 1 3.4608,1.4487 c 0.1394,0.1114 0.2706,0.235 0.4032,0.356 0.9607,0.8775 1.9186,1.7587 2.8827,2.6319 0.2322,0.21 0.49,0.3876 0.7255,0.5941 q 0.6564,0.5757 1.2992,1.17 c 0.1977,0.1825 0.365,0.406 0.5718,0.5738 a 14.69,14.69 0 0 1 2.1476,2.037 2.0893,2.0893 0 0 0 0.2929,0.2784 q 1.3455,1.1078 2.694,2.2113 c 0.2418,0.1983 0.497,0.38 0.7234,0.5973 1.4615,1.4015 3.0046,2.6958 4.5334,4.0071 1.2585,1.08 2.45,2.24 3.6763,3.359 1.4919,1.3611 2.9608,2.7494 4.4238,4.146 0.2923,0.279 0.6109,0.5255 0.9136,0.7921 0.5713,0.5032 1.1389,1.0115 1.71,1.515 0.2688,0.2368 0.5417,0.4683 0.814,0.7 1.4642,1.2483 2.97,2.4378 4.4043,3.7294 0.9649,0.8689 2.0055,1.6394 3.0108,2.4561 0.2773,0.2252 0.5565,0.4487 0.8226,0.6888 q 3.0477,2.749 6.0916,5.5032 c 0.2328,0.21 0.4825,0.3985 0.726,0.5945 0.835,0.672 1.6794,1.3307 2.4553,2.0846 a 4.6446,4.6446 0 0 0 0.6089,0.5268 24.7715,24.7715 0 0 1 2.6656,2.2474 c 1.661,1.5066 3.3242,3.0112 5.0161,4.4767 1.0486,0.9083 2.1512,1.7437 3.23,2.6109 q 3.342,2.6859 6.6843,5.3715 c 0.2782,0.2237 0.5459,0.4628 0.8214,0.6907 0.62,0.5127 1.2418,1.0221 1.862,1.5342 0.3447,0.2847 0.6971,0.56 1.0289,0.8612 a 19.681,19.681 0 0 0 1.6289,1.399 5.5257,5.5257 0 0 1 0.857,0.8527 0.6029,0.6029 0 0 1 0.056,0.3888 c -0.014,0.16 -0.1539,0.2175 -0.2783,0.2524 a 1.2874,1.2874 0 0 1 -0.3833,0.0542 27.92,27.92 0 0 0 -3.623,0.2544 c -0.3012,0.0292 -0.6028,0.0628 -0.905,0.071 -0.9948,0.0272 -1.9906,0.0279 -2.9849,0.067 -3.1141,0.1227 -6.2291,0.13 -9.3451,0.0528 -3.03,-0.0748 -6.0588,-0.0774 -9.0861,0.0864 -1.2531,0.0678 -2.5077,0.0407 -3.7638,0.006 -2.12,-0.0588 -4.2409,-0.0429 -6.3614,-0.0661 -1.2116,-0.0133 -2.4233,-0.03 -3.6346,-0.0659 -3.5913,-0.1069 -7.1815,-0.2429 -10.7751,-0.1586 -2.3359,0.0548 -4.6737,0.04 -7.0107,0.0434 q -3.7005,0.005 -7.4013,-0.015 c -1.0819,-0.005 -2.1639,-0.033 -3.2459,-0.0428 a 49.5244,49.5244 0 0 0 -6.0918,0.2823 16.6255,16.6255 0 0 1 -2.8507,0.0664 c -2.3343,-0.1339 -4.6705,-0.15 -7.0076,-0.1069 -1.6,0.03 -3.2026,-0.0395 -4.8033,-0.0185 -2.4665,0.0323 -4.9324,0.1053 -7.3986,0.1577 -0.4326,0.009 -0.8656,-0.004 -1.2983,0.004 a 11.36,11.36 0 0 0 -1.4261,0.0542 52.3236,52.3236 0 0 1 -5.572,0.2957 c -1.8593,0.0716 -3.7181,0.1575 -5.5774,0.2307 q -3.8922,0.1532 -7.7847,0.2951 -4.7358,0.1647 -9.4724,0.3074 c -0.4755,0.0149 -0.9519,0.003 -1.4278,0.008 -0.6059,0.007 -1.212,0.008 -1.8173,0.0308 -1.3836,0.0532 -2.7662,0.144 -4.15,0.171 -1.2108,0.0237 -2.4252,0.0286 -3.6342,-0.0431 -1.9042,-0.113 -3.8073,-0.1023 -5.7111,-0.09 -0.6054,0.004 -1.2126,0.0318 -1.8147,0.0943 a 30.08,30.08 0 0 1 -5.1883,0.0638 c -2.0787,-0.1436 -4.1543,-0.0727 -6.23,-0.0132 -2.2063,0.0631 -4.4111,0.171 -6.62,0.1507 -0.6053,-0.006 -1.211,0.04 -1.8162,0.0682 a 55.1654,55.1654 0 0 1 -5.5806,0.0623 c -0.3444,-0.0188 -0.6913,0.02 -1.0371,0.033 z"
           transform="translate(141.5726,-12.5786)"
           id="path3541" />
        <path
           style="fill:#5f67b0"
           class="cls-3"
           d="m 1795.5658,288.4584 a 3.0483,3.0483 0 0 1 0.5166,-0.0157 0.8982,0.8982 0 0 1 0.8728,0.7029 13.1613,13.1613 0 0 1 0.3045,1.6465 28.3234,28.3234 0 0 1 0.089,4.7543 c -0.054,0.7437 -0.064,1.4858 -0.052,2.2343 a 22.504,22.504 0 0 1 -0.1847,2.6459 0.7466,0.7466 0 0 1 -0.5751,0.68 6.2716,6.2716 0 0 1 -1.018,0.1875 c -1.4659,0.12 -2.9247,0.2841 -4.3824,0.48 -1.1977,0.16 -2.41,0.2114 -3.6155,0.31 v -0.0292 c -0.9474,0.0811 -1.8946,0.1665 -2.8424,0.2373 a 7.8951,7.8951 0 0 1 -1.0352,0.0125 1.0821,1.0821 0 0 1 -1.0175,-0.923 17.3365,17.3365 0 0 1 -0.3053,-1.9318 c -0.1008,-1.0672 -0.141,-2.141 -0.227,-3.2117 -0.053,-0.6491 -0.1389,-1.297 -0.2178,-1.9452 -0.1106,-0.9264 -0.236,-1.8494 -0.3386,-2.7776 a 6.9646,6.9646 0 0 1 -0.022,-0.978 0.9414,0.9414 0 0 1 0.6708,-0.9195 8.78,8.78 0 0 1 2.032,-0.4128 25.7705,25.7705 0 0 1 3.2389,-0.0541 6.9323,6.9323 0 0 0 1.2909,-0.0539 c 0.5582,-0.0626 1.1122,-0.1674 1.6683,-0.2519 a 6.8921,6.8921 0 0 1 1.9361,-0.105 6.62,6.62 0 0 0 2.1916,-0.1172 c 0.3384,-0.0667 0.682,-0.1201 1.0242,-0.1646 z"
           transform="translate(141.5726,-12.5786)"
           id="path3543" />
        <path
           style="fill:#5f67b0"
           class="cls-3"
           d="m 1778.0222,268.5777 q 1.5535,0.0678 3.107,0.1359 c 0.086,0.004 0.1724,0.0182 0.2587,0.02 a 75.0175,75.0175 0 0 0 9.1981,-0.11 c 0.2151,-0.0213 0.4318,-0.0358 0.6438,-0.0763 a 12.523,12.523 0 0 1 2.7137,-0.1569 c 0.4753,0.0134 0.951,0.0241 1.4255,0.0547 a 7.6474,7.6474 0 0 0 1.9375,-0.0854 4.0838,4.0838 0 0 1 2.7817,0.3789 2.4,2.4 0 0 0 1.26,0.261 c 0.2589,-0.01 0.519,-0.0193 0.7775,-0.005 a 2.0979,2.0979 0 0 1 0.5078,0.0978 0.6936,0.6936 0 0 1 0.4759,0.4371 0.7669,0.7669 0 0 1 -0.23,0.7511 2.87,2.87 0 0 1 -1.8835,0.8161 7.0155,7.0155 0 0 1 -1.0343,-0.0666 7.4011,7.4011 0 0 0 -2.5793,0.11 8.03,8.03 0 0 1 -1.5442,0.1658 25.0487,25.0487 0 0 0 -3.2273,0.2787 32.0985,32.0985 0 0 1 -4.7838,0.3092 23.0945,23.0945 0 0 0 -3.2331,0.1845 7.1706,7.1706 0 0 1 -0.9042,0.0743 c -2.7215,0.05 -5.4433,0.14 -8.1641,-0.0737 -0.2156,-0.0169 -0.4315,-0.03 -0.6466,-0.0516 a 0.9643,0.9643 0 0 1 -0.8055,-0.6186 3.2664,3.2664 0 0 1 -0.3652,-1.4732 0.8709,0.8709 0 0 1 0.4758,-0.7688 6.123,6.123 0 0 1 1.7668,-0.41 c 0.6894,-0.0537 1.38,-0.0938 2.07,-0.14 z"
           transform="translate(141.5726,-12.5786)"
           id="path3545" />
        <path
           style="fill:#5f67b0"
           class="cls-3"
           d="m 1787.6451,255.9136 c 0.8177,-0.07 1.6345,-0.1576 2.4535,-0.2039 a 9.3657,9.3657 0 0 1 1.6822,0.006 c 1.5461,0.1937 3.1,0.2732 4.6473,0.4378 a 2.6792,2.6792 0 0 1 0.6316,0.142 1.2364,1.2364 0 0 1 0.7531,1.4458 5.0836,5.0836 0 0 1 -0.1448,0.5363 4.68,4.68 0 0 0 -0.2361,1.6485 3.9971,3.9971 0 0 1 -0.012,0.4195 0.8211,0.8211 0 0 1 -0.71,0.8513 9.5068,9.5068 0 0 1 -1.0332,0.0748 43.9563,43.9563 0 0 0 -4.77,0.4561 c -0.7707,0.0932 -1.5483,0.1384 -2.3242,0.1648 a 23.5065,23.5065 0 0 0 -3.4855,0.2625 4.6615,4.6615 0 0 1 -1.8061,-0.003 0.7939,0.7939 0 0 1 -0.6335,-0.7733 c -0.01,-0.28 -6e-4,-0.56 0,-0.84 a 5.8486,5.8486 0 0 0 -0.2,-1.38 c -0.11,-0.4509 -0.2083,-0.9077 -0.2743,-1.368 a 1.2241,1.2241 0 0 1 0.8289,-1.3923 3.249,3.249 0 0 1 0.6315,-0.1458 c 0.3857,-0.048 0.774,-0.0744 1.1615,-0.1052 q 1.4213,-0.113 2.8427,-0.2216 z"
           transform="translate(141.5726,-12.5786)"
           id="path3547" />
        <path
           style="fill:#5f67b0"
           class="cls-3"
           d="m 1785.3688,263.8913 c 1.4673,-0.024 2.9348,-0.04 4.4017,-0.0765 a 9.0071,9.0071 0 0 0 1.417,-0.1274 10.9074,10.9074 0 0 1 2.8387,-0.1407 10.63,10.63 0 0 0 2.5829,-0.085 7.6166,7.6166 0 0 1 2.8355,0.0671 c 0.3812,0.0794 0.77,0.1139 1.1508,0.1966 a 0.7707,0.7707 0 0 1 0.6035,0.6555 2.6247,2.6247 0 0 1 0.027,0.6934 0.9855,0.9855 0 0 1 -0.5806,0.8575 2.6463,2.6463 0 0 1 -0.7409,0.2252 c -0.47,0.0637 -0.9463,0.0794 -1.4193,0.1228 -0.5587,0.0513 -1.1164,0.1153 -1.6752,0.1653 -0.5157,0.0462 -1.0318,0.0916 -1.5487,0.1192 -1.5949,0.0853 -3.19,0.1618 -4.7855,0.242 a 2.7123,2.7123 0 0 0 -0.3875,0.0257 25.87,25.87 0 0 1 -4.1314,0.2745 49.9787,49.9787 0 0 1 -5.0491,-0.0783 c -0.4308,-0.0287 -0.8627,-0.0381 -1.2935,-0.0679 -0.3011,-0.0208 -0.6026,-0.05 -0.9012,-0.0961 a 0.8265,0.8265 0 0 1 -0.6227,-0.6383 c -0.2364,-1.537 0.019,-1.8787 1.33,-2.1053 a 10.2107,10.2107 0 0 1 1.5467,-0.13 c 1.4672,-0.0272 2.935,-0.03 4.4026,-0.0418 z"
           transform="translate(141.5726,-12.5786)"
           id="path3549" />
        <path
           style="fill:#5f67b0"
           class="cls-3"
           d="m 1787.3024,282.8509 c -1.1656,0.0421 -2.331,0.0962 -3.497,0.1215 a 7.4757,7.4757 0 0 1 -1.9376,-0.1311 0.6952,0.6952 0 0 1 -0.5353,-0.6935 14.4259,14.4259 0 0 0 -0.02,-2.5139 0.6763,0.6763 0 0 1 0.4055,-0.6543 3.1676,3.1676 0 0 1 1.1191,-0.3309 c 0.4718,-0.057 0.9462,-0.1048 1.4207,-0.1207 1.08,-0.0363 2.16,-0.0425 3.2365,-0.1553 a 2.2463,2.2463 0 0 1 0.7743,0.025 10.7559,10.7559 0 0 0 3.357,0.0934 c 0.8627,-0.0525 1.7256,-0.1224 2.5892,-0.1333 0.6463,-0.008 1.2948,0.054 1.9406,0.109 a 2.0556,2.0556 0 0 1 0.6228,0.1762 0.8943,0.8943 0 0 1 0.5617,0.7185 7.28,7.28 0 0 1 0.06,1.2516 1.207,1.207 0 0 1 -0.7236,1.072 2.8879,2.8879 0 0 1 -0.7425,0.2322 c -0.3827,0.0681 -0.7718,0.0965 -1.1583,0.1395 -0.5155,0.0575 -1.0384,0.0731 -1.5456,0.1763 -1.83,0.3724 -3.6911,0.4288 -5.5381,0.6256 -0.1287,0.0137 -0.2591,0.0106 -0.3887,0.0152 z"
           transform="translate(141.5726,-12.5786)"
           id="path3551" />
        <path
           style="fill:#5f67b0"
           class="cls-3"
           d="m 1787.8862,276.8166 c -1.8148,0.0172 -3.63,0.0432 -5.4446,0.0478 a 6.3485,6.3485 0 0 1 -2.7805,-0.5978 1.987,1.987 0 0 1 -0.5287,-0.3931 0.7082,0.7082 0 0 1 0.1943,-1.148 c 0.5362,-0.172 1.0849,-0.3007 1.6307,-0.4371 a 2.8585,2.8585 0 0 1 0.5139,-0.0681 c 1.8974,-0.1193 3.7947,-0.33 5.6926,-0.3245 a 46.62,46.62 0 0 1 5.1817,0.0727 9.8893,9.8893 0 0 0 2.1953,-0.1364 c 1.1165,-0.1221 2.2373,-0.2017 3.3568,-0.2914 a 2.6442,2.6442 0 0 1 0.5167,0.0265 0.8226,0.8226 0 0 1 0.6477,1.022 1.5506,1.5506 0 0 1 -1.1216,1.2283 12.47,12.47 0 0 1 -1.9159,0.3332 c -0.9061,0.0645 -1.8048,0.19 -2.7074,0.2743 -1.5915,0.1495 -3.1886,0.2334 -4.7836,0.3424 -0.2154,0.0148 -0.4318,0.0166 -0.6477,0.0244 z"
           transform="translate(141.5726,-12.5786)"
           id="path3553" />
        <path
           style="fill:#5f67b0"
           class="cls-3"
           d="m 1789.5183,284.4035 a 39.4721,39.4721 0 0 1 4.6281,-0.2359 c 0.1731,-0.006 0.3486,0.0167 0.5184,-0.004 a 13.2254,13.2254 0 0 1 4.2423,0.4013 1.9692,1.9692 0 0 1 0.3636,0.1361 0.4606,0.4606 0 0 1 0.1706,0.598 2.1286,2.1286 0 0 1 -0.3612,0.3832 0.4955,0.4955 0 0 1 -0.24,0.092 c -1.1923,0.1967 -2.3837,0.4182 -3.5815,0.5756 -1.4121,0.1856 -2.8315,0.3158 -4.2476,0.465 -0.5152,0.0537 -1.03,0.106 -1.5465,0.1348 -2.1117,0.1187 -4.23,0.1148 -6.3353,0.3473 a 15.1538,15.1538 0 0 1 -2.4573,-0.0824 c -0.6036,-0.0309 -1.2054,-0.09 -1.8095,-0.1351 a 1.4368,1.4368 0 0 1 -0.7332,-0.2486 0.88,0.88 0 0 1 -0.3785,-0.6958 0.6047,0.6047 0 0 1 0.2948,-0.571 1.5041,1.5041 0 0 1 0.3665,-0.1244 54.4481,54.4481 0 0 1 6.8208,-0.7335 33.0054,33.0054 0 0 0 4.2855,-0.3025 z"
           transform="translate(141.5726,-12.5786)"
           id="path3555" />
        <polygon
           style="fill:#5f67b0"
           class="cls-3"
           points="33.31,426.438 22.355,424.025 23.242,413.165 0,393.859 56.908,382.396 56.908,363.693 47.219,358.867 70.314,344.387 86.691,361.883 82.261,370.933 166.796,319.652 247.558,370.33 308.904,393.859 322.472,393.256 301.746,407.735 301.746,416.182 297.5,421.611 297.823,428.851 286.536,437.298 281.082,449.967 273.3,449.967 264.399,464.447 268.104,528.042 54.899,519.432 56.268,494.02 57.864,466.257 41.427,459.017 41.1,447.554 33.31,441.521 "
           id="polygon3557" />
        <polygon
           style="fill:#5f67b0"
           class="cls-3"
           points="2587.769,403.498 2403.269,333.381 2218.769,402.216 2218.769,410.162 2227,410.304 2227.227,542.246 2579.118,542.246 2579.118,410.304 2589.39,410.304 "
           id="polygon3559" />
      </g>
      <g
         id="Layer_1"
         data-name="Layer 1" />
    </g>
  </g>
</svg>
