<?xml version="1.0" encoding="UTF-8" standalone="no"?>
<svg
   xmlns:dc="http://purl.org/dc/elements/1.1/"
   xmlns:cc="http://creativecommons.org/ns#"
   xmlns:rdf="http://www.w3.org/1999/02/22-rdf-syntax-ns#"
   xmlns:svg="http://www.w3.org/2000/svg"
   xmlns="http://www.w3.org/2000/svg"
   xmlns:sodipodi="http://sodipodi.sourceforge.net/DTD/sodipodi-0.dtd"
   xmlns:inkscape="http://www.inkscape.org/namespaces/inkscape"
   id="backhouse1"
   width="2589.3899"
   height="308.8294"
   viewBox="0 0 2589.3899 308.8294"
   version="1.1"
   sodipodi:docname="backhouses.svg"
   inkscape:version="0.92.4 (5da689c313, 2019-01-14)">
  <metadata
     id="metadata12873">
    <rdf:RDF>
      <cc:Work
         rdf:about="">
        <dc:format>image/svg+xml</dc:format>
        <dc:type
           rdf:resource="http://purl.org/dc/dcmitype/StillImage" />
        <dc:title>backhouses</dc:title>
      </cc:Work>
    </rdf:RDF>
  </metadata>
  <sodipodi:namedview
     pagecolor="#ffffff"
     bordercolor="#666666"
     borderopacity="1"
     objecttolerance="10"
     gridtolerance="10"
     guidetolerance="10"
     inkscape:pageopacity="0"
     inkscape:pageshadow="2"
     inkscape:window-width="678"
     inkscape:window-height="480"
     id="namedview12871"
     showgrid="false"
     inkscape:zoom="0.13980127"
     inkscape:cx="1294.6949"
     inkscape:cy="154.4147"
     inkscape:window-x="0"
     inkscape:window-y="0"
     inkscape:window-maximized="0"
     inkscape:current-layer="backhouse1" />
  <defs
     id="defs12836">
    <style
       id="style12834">.cls-1{fill:#606161;}</style>
  </defs>
  <title
     id="title12838">backhouses</title>
  <polygon
     class="cls-1"
     points="353.032 296.913 351.91 101.128 341.596 101.128 341.596 89.556 409.874 19.589 443.252 53.609 510.331 12.849 556.868 43.66 607.578 16.379 758.383 88.593 758.383 101.11 749.758 101.11 750.721 296.913 353.032 296.913"
     id="polygon12840" />
  <polygon
     class="cls-1"
     points="759.695 232.467 761.292 195.452 744.855 185.8 744.527 170.518 736.737 162.475 736.737 142.367 725.782 139.149 726.67 124.671 703.427 98.933 760.335 83.65 760.335 58.716 750.646 52.281 773.742 32.978 790.118 56.303 785.689 68.368 870.223 0 950.985 67.564 1012.331 98.933 1025.899 98.128 1005.173 117.432 1005.173 128.693 1000.928 135.932 1001.251 145.584 989.964 156.844 984.509 173.735 976.728 173.735 967.827 193.039 971.532 277.824 758.326 266.345 759.695 232.467"
     id="polygon12842" />
  <polygon
     class="cls-1"
     points="1164.163 112.402 1164.39 244.344 1516.281 244.344 1516.281 112.402 1526.553 112.402 1524.932 105.596 1340.432 35.479 1155.932 104.314 1155.932 112.26 1164.163 112.402"
     id="polygon12844" />
  <path
     class="cls-1"
     d="M1803.5777,300.4858a12.9318,12.9318,0,0,1,3.3638-.0852,5.2116,5.2116,0,0,0,1.807-.1141,8.733,8.733,0,0,1,1.1583-.12,1.152,1.152,0,0,1,.7417.2223,36.805,36.805,0,0,1,3.1611,2.2141q1.3048,1.1637,2.5893,2.3541c.8546.7951,1.6794,1.6285,2.545,2.4091.7655.69,1.57,1.33,2.3562,1.9932,1.0942.9225,2.1907,1.8421,3.28,2.7717.2718.232.5237.4924.7774.7482a64.135,64.135,0,0,0,4.9091,4.3938c.9658.7924,1.86,1.6878,2.7853,2.5375.3966.364.7886.7339,1.1883,1.0939.9332.84,1.8482,1.7018,2.7556,2.5754,1.1324,1.09,2.3288,2.1044,3.514,3.1292q2.1333,1.8445,4.2966,3.6484c1.0645.8854,2.156,1.7328,3.2331,2.6005.278.224.5508.4561.82.6927,1.5472,1.3617,3.0548,2.7743,4.609,4.1284,1.588,1.3836,3.1945,2.7363,4.8419,4.0346a8.7265,8.7265,0,0,1,.9024.805,21.1218,21.1218,0,0,0,2.4264,2.1214,25.2065,25.2065,0,0,1,2.5086,2.2356,30.2657,30.2657,0,0,0,2.6058,2.3295,10.296,10.296,0,0,1,1.0229.8683,21.615,21.615,0,0,0,2.9022,2.375,19.7614,19.7614,0,0,1,2.0755,1.6927,5.3587,5.3587,0,0,0,.9287.7666,21.5392,21.5392,0,0,1,2.5445,1.9518q1.6608,1.3572,3.3088,2.7329c.4125.3423.8176.6951,1.2268,1.0421a7.7438,7.7438,0,0,0,.7211.5985,9.8035,9.8035,0,0,1,1.3606,1.0818,4.4959,4.4959,0,0,0,1.563.9853,3.9991,3.9991,0,0,1,.7188.324,1.3152,1.3152,0,0,1,.6225,1.7631,1.1169,1.1169,0,0,1-.114.25,2.8369,2.8369,0,0,0-.3163,1.8846c.0509.4626.0671.931.072,1.397a3.7833,3.7833,0,0,0,.1426,1.1057,4.1746,4.1746,0,0,1,.1624,1.3856c-.0256.84-.05,1.6816-.1138,2.5188-.1034,1.35-.2393,2.6965-.36,4.0448-.0125.1393-.0182.28-.0189.42q-.0141,2.4529-.0253,4.9058c-.0012.2337.0139.4693-.0076.7007-.1123,1.2074-.2386,2.4133-.3505,3.6208-.0646.6973-.1318,1.3954-.1616,2.0952-.0716,1.68-.1251,3.3614-.18,5.0424a34.5791,34.5791,0,0,1-.1561,3.6383,6.6174,6.6174,0,0,0-.0116.98c.02,1.6839-.0187,3.3656-.1517,5.0429a38.8049,38.8049,0,0,0-.0864,5.1811c.0682,1.2585.0257,2.523.0459,3.7847.0223,1.4025.0363,2.803-.0581,4.2043-.05.7437-.0012,1.4952-.0161,2.2427q-.0573,2.8733-.1364,5.7459a6.9051,6.9051,0,0,1-.1268,1.11,8.6554,8.6554,0,0,0-.15,1.81c.0254,1.4018.0288,2.8022-.0525,4.2034-.0569.9779-.018,1.9623-.0505,2.9426-.0464,1.4-.069,2.8049-.1951,4.1972-.118,1.3037-.1779,2.6082-.2375,3.9147-.066,1.4465-.1493,2.8921-.2167,4.3386-.0805,1.7261-.1263,3.4547-.2337,5.1786-.1684,2.7053-.0935,5.4195-.2454,8.1249-.0183.3259.0029.6544-.0035.9815a17.9248,17.9248,0,0,1-.0592,1.96,29.181,29.181,0,0,0,0,5.0391c.0717,1.6832.0883,3.3685.0072,5.0443-.0682,1.408.0147,2.8014.066,4.2012.029.7934.0487,1.5872.0785,2.3806.0263.7.05,1.4012.094,2.1.0853,1.3524.2033,2.701.159,4.061a20.57,20.57,0,0,0,.1123,2.0981c.0393.5594.1126,1.1164.144,1.6761.0865,1.54.15,3.082.24,4.622.0544.9326.1416,1.8631.2116,2.7947.0245.3262.0515.6528.06.98a19.07,19.07,0,0,0,.46,3.7485,7.6633,7.6633,0,0,1,.1655.8221.945.945,0,0,1-.42.9511c-.1094.073-.2331.1208-.3484.184a.5671.5671,0,0,0-.3213.557,1.502,1.502,0,0,1-1.1464,1.6364,3.9116,3.9116,0,0,1-2.6746.1561,3.3289,3.3289,0,0,0-1.6706-.1166,6.047,6.047,0,0,1-2.1907-.0716,9.6867,9.6867,0,0,0-1.94-.13c-.6919-.0065-1.385.0251-2.0757.0715a21.0742,21.0742,0,0,1-3.2418-.0253,15.1979,15.1979,0,0,0-2.0742.014c-1.0808.0548-2.1591.0937-3.2431.0412-.95-.0461-1.9031-.005-2.8549-.0045-2.1637.001-4.3282-.06-6.49.0815-.3452.0227-.6921.0165-1.0382.0248-1.1244.0269-2.2486.0588-3.3731.08-.7783.0147-1.5569.0259-2.3352.0192a13.25,13.25,0,0,0-2.1993.1538,9.6179,9.6179,0,0,1-1.158.1477q-5.3836.1936-10.7682.3669c-.6054.02-1.2114.0291-1.8166.0549-3.0263.1293-6.0522.2679-9.0788.3924-1.9882.0818-3.9772.1455-5.9658.2164-.2163.0077-.433.0212-.649.0132-1.1692-.0438-2.3333.0487-3.5.0989-2.5505.11-5.1039.1485-7.6552.2414-1.0372.0378-2.0716.1485-3.108.2126-2.7216.1683-5.4454.2733-8.173.2542a37.21,37.21,0,0,0-4.7977.1415c-.1716.021-.3455.0226-.5184.0284-2.2921.0776-4.5842.16-6.8765.23-2.2056.0673-4.4119.1082-6.6145.2558-.5179.0347-1.0383.06-1.5568.0465-1.9061-.0484-3.8063.0748-5.7086.1536-1.7292.0717-3.4607.084-5.1908.134-1.903.0551-3.8057.1219-5.7085.1864-3.2437.11-6.4871.2315-9.7311.3306-2.7252.0832-5.4512.1394-8.1766.2132-.3456.0093-.69.0617-1.0354.0788q-.8416.0414-1.6843.0618c-1.7737.0442-3.5477.0733-5.3211.1279q-4.8013.1479-9.602.3221c-1.9027.0717-3.8039.1831-5.706.2713-.6049.0281-1.21.04-1.8157.057-.173.005-.3467-.0054-.5192.0052-1.77.1087-3.5415.21-5.3109.3365-.69.0494-1.3786.1384-2.0631.2445-1.5425.239-3.0927.3818-4.6477.4927a44.8222,44.8222,0,0,0-5.8029.6626,9.9914,9.9914,0,0,1-2.0687.1521,8.9414,8.9414,0,0,0-1.5495.1,7.8342,7.8342,0,0,1-1.6788.1011c-.7345-.033-1.4715-.0521-2.2056-.0262a5.4354,5.4354,0,0,1-2.6244-.6964,1.1764,1.1764,0,0,1-.6379-1.1353,5.2506,5.2506,0,0,1,.0713-.836,15.4525,15.4525,0,0,0,.1472-2.2339c.065-2.7122-.0412-5.4218-.1223-8.132q-.0693-2.3133-.1433-4.6265c-.0231-.7008-.0675-1.401-.0845-2.1019-.0158-.6537-.0023-1.308-.0123-1.9619-.0091-.6068.0085-1.2185-.058-1.8191-.1288-1.1654-.13-2.3326-.15-3.501-.0121-.7-.0305-1.4012-.0722-2.1a24.0994,24.0994,0,0,1-.0437-3.7815,11.626,11.626,0,0,0,.01-1.2611q-.0342-2.8747-.0754-5.75c-.0077-.5139-.028-1.028-.0556-1.5412-.06-1.1209-.0716-2.2391-.039-3.363.0365-1.2591-.0307-2.5233-.0774-3.7843-.0571-1.5418-.167-3.082-.2037-4.6239-.0356-1.4948-.0074-2.991-.0073-4.4866q0-1.8927,0-3.7853-.0019-1.6826-.0087-3.365c-.0043-.9815.0055-1.9636-.0235-2.9446-.0511-1.729-.137-3.457-.1887-5.186-.0279-.9338-.0159-1.8687-.02-2.8032-.001-.2336.0192-.468.0069-.7008-.1362-2.5724-.0016-5.14.0666-7.7089.01-.3731-.0059-.7478-.0231-1.1211-.0475-1.027-.1035-2.0536-.1533-3.08q-.0783-1.6124-.0064-3.2242c.0349-.7926.01-1.5888.0076-2.3834-.0013-.374-.0324-.7489-.0174-1.1217a23.8143,23.8143,0,0,0-.1076-3.9205,4.4117,4.4117,0,0,1-.0224-.7c.048-1.3541.0911-2.7085.16-4.0612a8.3658,8.3658,0,0,0-.0328-1.8177,18.639,18.639,0,0,1-.1654-2.6564c-.0217-.9344-.0663-1.8683-.09-2.8026-.0128-.5136.0386-1.0322-.0112-1.5407a35.038,35.038,0,0,1-.0276-3.92c.0154-1.12-.0794-2.2416-.1286-3.3624q-.1227-2.802-.25-5.6038c-.0168-.3736-.0345-.7473-.0577-1.12-.1686-2.7062-.322-5.4135-.5153-8.1177-.0932-1.3044-.2489-2.6048-.404-3.9033-.055-.4613-.1921-.9117-.2912-1.3671-.07-.3188-.1569-.6348-.2028-.9574a2.3821,2.3821,0,0,1,.2368-1.6244,1.7553,1.7553,0,0,0,.18-1.3382,3.5922,3.5922,0,0,1-.035-.8348.9274.9274,0,0,1,.3771-.7009.7652.7652,0,0,1,.1059-.08,31.3589,31.3589,0,0,0,5.142-3.9826c.4072-.3446.8081-.6978,1.2136-1.0447s.81-.6965,1.2219-1.0347c.3433-.2818.69-.5593,1.0475-.82a15.753,15.753,0,0,0,1.8413-1.538A10.4732,10.4732,0,0,1,1693.23,358.7a2.3442,2.3442,0,0,0,.3238-.2314c.9674-.854,1.953-1.6857,2.8922-2.5745a26.1189,26.1189,0,0,1,3.5117-2.8511,8.6029,8.6029,0,0,0,1.7341-1.4527,18.2493,18.2493,0,0,1,2.8326-2.43c.177-.1327.3745-.2349.5457-.3751,1.1694-.9574,2.3326-1.9236,3.5014-2.8818a15.3068,15.3068,0,0,1,1.2558-.9855,33.45,33.45,0,0,0,2.9442-2.2812,14.6487,14.6487,0,0,1,2.0514-1.4614,11.851,11.851,0,0,0,.988-.6657c.9707-.6964,1.9373-1.3992,2.9056-2.0994.0358-.0259.0713-.0529.109-.0755,2.6058-1.5632,5.0271-3.45,7.6189-5.0385.45-.2758.8844-.5833,1.3149-.894,1.7953-1.2959,3.6387-2.5071,5.5152-3.6608.1125-.0692.2231-.1423.3334-.2156,1.286-.8553,2.5661-1.7214,3.86-2.5633,1.1091-.7218,2.2361-1.4117,3.3507-2.1239.6685-.4271,1.3186-.8885,1.9944-1.3014.9392-.5738,1.8846-1.1378,2.8457-1.6674a40.9158,40.9158,0,0,0,3.7806-2.4341q2.2781-1.6042,4.5509-3.2169c.3954-.2818.7688-.5993,1.1538-.8981.3153-.2448.6251-.4989.9506-.7269q1.7926-1.2561,3.5948-2.4966c1.0538-.7272,2.1174-1.4381,3.1635-2.1779a7.89,7.89,0,0,0,.8984-.7957,22.5771,22.5771,0,0,1,3.7429-2.9833,11.4078,11.4078,0,0,0,2.1328-1.8084,1.8491,1.8491,0,0,1,1.5282-.6058,2.7721,2.7721,0,0,1,.6428.0846,4.7394,4.7394,0,0,0,2.06.0607c.6-.0775,1.208-.0861,1.8109-.1422.9907-.0923,1.9806-.195,2.97-.3014a4.2446,4.2446,0,0,0,.6377-.1239,1.1549,1.1549,0,0,0,.9225-1.18c.0218-.5134.0117-1.0284.0264-1.5422.016-.56.0228-1.1222.0722-1.6792a12.25,12.25,0,0,0-.0313-2.3793c-.1229-1.1616-.2293-2.3257-.378-3.4837a16.8457,16.8457,0,0,0-.3543-1.7806.9762.9762,0,0,0-.8265-.7891c-.342-.0554-.688-.0863-1.0332-.1109a3.2281,3.2281,0,0,1-1.1379-.2662,2.2957,2.2957,0,0,1-1.4068-2.0217,14.949,14.949,0,0,1-.0206-1.6817,2.234,2.234,0,0,1,1.4413-1.9537c.2069-.0631.4257-.08.6355-.1342a8.2056,8.2056,0,0,0,.8735-.2533.9666.9666,0,0,0,.6727-.93c.0143-.7.0091-1.4016-.0213-2.101a2.78,2.78,0,0,0-.1816-.8138c-.175-.4786-.3676-.9523-.5878-1.4085a2.3083,2.3083,0,0,0-.4722-.6622,2.35,2.35,0,0,1-.7351-1.7323,3.0179,3.0179,0,0,0-.0516-.417c-.1065-.6369-.3611-.9234-.9291-.9865-.56-.0623-1.1223-.0925-1.6839-.1315a3.1332,3.1332,0,0,1-1.5771-.6,2.3218,2.3218,0,0,1-.9653-1.8908,3.7269,3.7269,0,0,1,.052-.6968,4.1048,4.1048,0,0,0-.0935-1.6665,3.3407,3.3407,0,0,1-.0871-.41,1.0813,1.0813,0,0,1,.7451-1.2906,4.8706,4.8706,0,0,1,1.0193-.1731c.6031-.0548,1.21-.0665,1.8124-.1248a.7859.7859,0,0,0,.7247-.8323,4.708,4.708,0,0,0-.38-2.4555,1.48,1.48,0,0,1-.1141-.4,1.1054,1.1054,0,0,1,.4351-1.0879,2.0688,2.0688,0,0,1,1.4947-.3254c.3422.0528.676.1734,1.0184.2231.47.0684.9446.1173,1.4184.1385a.6452.6452,0,0,0,.6495-.5672,4.1726,4.1726,0,0,0,.0888-.8312c-.03-.8407-.0734-1.6818-.145-2.52a12.4051,12.4051,0,0,0-.22-1.2377c-.0432-.2289-.1071-.4545-.1358-.6851a1.2363,1.2363,0,0,1,.1562-.8055c.212-.3514.4247-.7025.6476-1.0457a1.216,1.216,0,0,1,.9822-.5969,10.7669,10.7669,0,0,1,1.6848.0056,28.3066,28.3066,0,0,0,4.6669-.0224c1.1668-.0613,2.3316-.1366,3.4924-.2912.6421-.0855,1.2957-.0711,1.9437-.11,1.1661-.07,2.3312-.1573,3.4978-.2168.604-.0308,1.2106-.037,1.8152-.0163a3.672,3.672,0,0,1,.8924.1692.88.88,0,0,1,.6251.8141,5.2188,5.2188,0,0,1-.0215.9762c-.0821.93-.1693,1.86-.2729,2.7873a4.0854,4.0854,0,0,0,.3458,2.042.7507.7507,0,0,0,.5892.4912c.2137.0366.4308.0571.6406.1116a2.58,2.58,0,0,1,1.3248.8442,2.0441,2.0441,0,0,1,.4844.9753c.1131.5955.24,1.1881.3619,1.7817.0374.1827.07.367.1178.5466a1.3186,1.3186,0,0,0,.6057.873c.1156.0646.2278.136.3416.2043a1.409,1.409,0,0,1,.694,1.1157c.0509.4152.1675.8216.2574,1.2313a10.0883,10.0883,0,0,1,.1809,2.51,2.4615,2.4615,0,0,1-.67,1.6225,2.8273,2.8273,0,0,1-1.8089.992,8.5834,8.5834,0,0,0-1.0223.1819.7846.7846,0,0,0-.6364.6273c-.144.8756-.54,1.6756-.612,2.5713a1.4746,1.4746,0,0,1-.6717,1.1423c-.972.6435-.9645.7792-.6777,2.09.07.3179.1543.6337.2549.942a1.2573,1.2573,0,0,0,.8089.8484c.33.1124.6683.2.994.3257a.8592.8592,0,0,1,.5453.7268,9.3563,9.3563,0,0,1,.0915.9756,16.4563,16.4563,0,0,0,.2847,2.926,2.4221,2.4221,0,0,1,.0363.2776,1.2527,1.2527,0,0,1-.9215,1.4667c-.3346.0865-.6856.0982-1.0233.1736a4.3608,4.3608,0,0,0-.8646.27,1.01,1.01,0,0,0-.5664.8736,4.4832,4.4832,0,0,0-.01.56q.0213.9107.0508,1.8212c.0414,1.2143.0819,2.4288.1315,3.6428a7.9728,7.9728,0,0,0,.3168,2.35,4.7574,4.7574,0,0,1,.1275.8279c.0431.2764.08.5548.1415.8268a.8386.8386,0,0,0,.8242.7464,6.7826,6.7826,0,0,0,.7783.0054C1802.37,300.5835,1802.9737,300.5315,1803.5777,300.4858Zm-10.7769,206.8924.0011.0439c1.9467-.0335,3.8939-.0484,5.84-.1074,1.2106-.0366,2.4182-.1737,3.6287-.2057,1.946-.0514,3.8917-.0842,5.8371-.181,2.9383-.1462,5.8839-.1174,8.8194-.356.7324-.06,1.47-.0451,2.2056-.0634.346-.0085.6925-.0069,1.0383-.0218q6.1607-.2654,12.3214-.5337,2.2046-.0945,4.41-.1746c1.9022-.0715,3.8048-.13,5.7066-.2107,1.5131-.0643,3.0246-.1668,4.5377-.2294,2.1616-.0894,4.3238-.1609,6.4859-.2339.9946-.0336,1.99-.07,2.9847-.0743,2.2069-.0091,4.4139.0046,6.6208.0015.4757-.0006.9511-.0359,1.4268-.05.9079-.0265,1.8158-.055,2.7239-.0716.8651-.0159,1.73-.0162,2.5958-.0257,2.4228-.0267,4.8455-.0581,7.2684-.08a13.6308,13.6308,0,0,0,2.7094-.2583,1.7316,1.7316,0,0,0,1.2854-1.5556,6.5453,6.5453,0,0,0,.0045-1.1171,15.2569,15.2569,0,0,1-.1188-2.3767,6.6461,6.6461,0,0,0-.0772-1.1174,16.1711,16.1711,0,0,1-.0964-3.2167c.042-.8854.0339-1.7745.0279-2.662-.004-.607-.0408-1.214-.0661-1.8209-.0194-.4668-.0326-.9343-.0679-1.4a60.8628,60.8628,0,0,1-.2739-6.7215,6.7964,6.7964,0,0,0-.0355-1.26c-.1643-1.0675-.1265-2.1449-.2048-3.2154-.1435-1.9633-.0881-3.9238-.0371-5.8864.0194-.7459-.0045-1.4946-.0353-2.241-.0657-1.5879-.1465-3.1734-.1189-4.7653.0205-1.1708.14-2.33.1963-3.496.1-2.0529.175-4.1074.2493-6.1618.0337-.9338.0324-1.8692.0618-2.8032s.0287-1.8724.13-2.7971c.1175-1.07.1579-2.1412.1866-3.2154.0087-.3269.01-.6547.0333-.9805.0884-1.2581.1414-2.517.1478-3.78a24.0725,24.0725,0,0,1,.1333-2.5173,17.499,17.499,0,0,0,.0968-2.0968c-.0036-.3738-.0235-.75.0083-1.1212.1239-1.4419.0932-2.8911.2107-4.3365.1624-1.9986.1879-4.0121.2407-6.02.0357-1.354.0158-2.71.0238-4.0652a20.3387,20.3387,0,0,0-.0367-2.5211,4.13,4.13,0,0,1,.0041-.7c.0748-1.3987.1624-2.7966.2269-4.1959.0236-.5124.0063-1.0281-.0109-1.5417-.0264-.7943-.06-1.5887-.1063-2.382a46.1556,46.1556,0,0,1-.0032-4.6253c.06-1.447.1223-2.8939.1758-4.3412.0345-.9339.0208-1.8716.09-2.8018.0873-1.1668.1011-2.3323.096-3.5017q-.011-2.4531.039-4.9059c.0171-.7929.09-1.5856.168-2.3748a28.2333,28.2333,0,0,0,.1089-4.8956,10.4312,10.4312,0,0,1-.01-1.3988c.1121-1.8648.2408-3.7283.367-5.592a5.9016,5.9016,0,0,1,.0987-.9736,18.43,18.43,0,0,0,.2676-4.74,2.8948,2.8948,0,0,0-.4226-1.4538,1.2835,1.2835,0,0,0-.9333-.6961,14.4074,14.4074,0,0,0-2.5853-.1834c-1.3382.089-2.68.199-4.019.1777-2.2077-.0353-4.413-.0326-6.62.0241-2.9841.0767-5.972-.0922-8.9553.08-.0864.005-.1731.002-.26.0006-1.8609-.03-3.7218-.0606-5.5809.0543-.2156.0133-.4327.0024-.6491-.0016q-1.9466-.036-3.8932-.0735c-.476-.0084-.9535.0152-1.4279-.0187-1.3849-.0992-2.7685-.0579-4.1532-.0335-1.6441.0291-3.2868.0139-4.9312-.1018-1.3376-.0942-2.6815-.1174-4.022-.11-3.9379.0233-7.8754.0775-11.8131.12-.649.007-1.2979.0288-1.9468.0225-2.5533-.0245-5.1066-.0707-7.66-.0824-1.5575-.0072-3.115.0311-4.6724.0541-2.5094.0371-5.0186.09-7.5282.1139-1.5575.0148-3.1155-.0157-4.6733-.0169-.8655-.0006-1.7324.0594-2.5961.0182-1.819-.0868-3.6345-.0079-5.4513.0281-2.2928.0455-4.5784.2484-6.8722.2905-2.5956.0477-5.1893.1831-7.7842.27-1.2107.0406-2.425.0145-3.6328.0954-1.5981.1071-3.194.2252-4.7971.1872a4.9121,4.9121,0,0,0-.6477.0381,26.1031,26.1031,0,0,1-3.8888.1415c-.3885-.0157-.7785.0138-1.1676.03-.9509.0389-1.9014.0875-2.8525.1217-1.1675.042-2.3351.0874-3.5031.1063-1.8168.0292-3.6339.0377-5.4509.0534a3.4167,3.4167,0,0,1-.3891-.0174,21.6246,21.6246,0,0,0-3.2433-.0394,13.3472,13.3472,0,0,1-2.4609-.1,10.4417,10.4417,0,0,0-2.4624-.05c-.4305.0415-.8635.06-1.2959.0748-1.3834.0484-2.7668.0971-4.1506.133-1.2975.0337-2.5955.0738-3.8933.069-1.1245-.0042-2.249-.0841-3.3737-.0988-.8215-.0106-1.644.0154-2.465.0515-1.8586.0816-3.7166.1809-5.5749.27-.8641.0416-1.7286.0747-2.5928.1158-.7777.037-1.5549.0887-2.3329.1172-.6047.0222-1.21.0235-1.8157.0248-.4315.0009-.8635-.002-1.2946-.0234a37.6031,37.6031,0,0,0-5.7066.0273,17.3264,17.3264,0,0,1-4.0119.144,2.8744,2.8744,0,0,0-.5188.0046,35.5961,35.5961,0,0,0-3.7484.3285,3.6523,3.6523,0,0,1-.9022.0659,12.592,12.592,0,0,0-2.2029.0406,9.8734,9.8734,0,0,1-1.1668.021,30.2533,30.2533,0,0,0-5.3131.175c-.3.042-.6032.0577-.9054.0782-.95.0643-1.9.1156-2.8487.1921a8.2625,8.2625,0,0,0-1.02.1744.6266.6266,0,0,0-.3832.5135,11.53,11.53,0,0,0,.28,2.359c.142.54.279,1.0821.4274,1.62a7.2374,7.2374,0,0,1,.25,2.0779c-.0115.6065-.0092,1.2162.0327,1.821.1,1.4451.2008,2.8913.3522,4.331.098.932.1486,1.8617.1675,2.7972a10.8408,10.8408,0,0,0,.1269,1.5329,16.79,16.79,0,0,1,.206,2.5119c.0291,2.29.0539,4.5807.1028,6.8706.054,2.523-.0727,5.0489.1442,7.5692.0119.1392.0033.28.0041.4206q.0168,3.2957.0314,6.5912c.0014.4671-.0269.9342-.0387,1.4013-.02.7936-.0517,1.5872-.0536,2.381-.004,1.5423.0152,3.0849.0133,4.6272-.0011.8878-.0224,1.7755-.0385,2.6631-.0382,2.1031.0959,4.2037.1076,6.3069.0086,1.5409.0588,3.0824.06,4.6252.001,1.8216-.0147,3.6433.0465,5.4666.0423,1.26.0339,2.5218.0987,3.7824.024.4661.0028.9345.0035,1.4019.0007.4205-.001.841.0056,1.2614.03,1.9161.079,3.8322.0915,5.7483.0183,2.8039.0109,5.6078.0161,8.4117,0,.2336.0092.4675.0209.7009.0723,1.4464.0116,2.8977.1691,4.3415.0352.3233.0133.6537.016.9808.0162,1.9631.0256,3.9262.05,5.8891.0212,1.7294.06,3.4586.089,5.1878.0256,1.5421.0309,3.0846.0753,4.6261.0686,2.3833.1884,4.7654.2388,7.1489.0435,2.0582.149,4.11.3343,6.1594.0378.4187.0637.8394.0741,1.26.031,1.2617.05,2.5237.0768,3.7855.0479,2.2434.09,4.487.1519,6.73.0221.7938.0859,1.5873.1533,2.3789a6.4173,6.4173,0,0,0,.1828,1.1024c.3406,1.2774.7609,1.6,1.983,1.4706a30.2971,30.2971,0,0,1,3.37-.1435,19.0965,19.0965,0,0,0,3.1081-.18c1.8414-.2921,3.697-.43,5.55-.5957,1.0771-.0965,2.1514-.2273,3.2273-.3383.43-.0444.8619-.0785,1.2931-.1146.3881-.0325.7812-.0307,1.1639-.0969a52.374,52.374,0,0,1,6.08-.4812c3.4995-.1922,7.0032-.307,10.5057-.4425,2.5943-.1,5.1893-.1834,7.7841-.2718q5.449-.1857,10.8984-.37c.7783-.0271,1.5553-.09,2.3336-.1115,1.9033-.0514,3.8075-.0725,5.71-.1337,2.6381-.0848,5.2752-.2017,7.9131-.2929q5.4492-.1886,10.8991-.3559a40.3644,40.3644,0,0,1,4.5408-.0526,7.1483,7.1483,0,0,0,.9073-.0336q4.344-.1982,8.688-.3953c1.7725-.0776,3.5455-.1424,5.3185-.209Q1790.0115,507.4755,1792.8008,507.3782Zm-83.552-139.4265.0028.079c.3458-.0125.6927-.0518,1.0371-.033a55.1654,55.1654,0,0,0,5.5806-.0623c.6052-.0282,1.2109-.0738,1.8162-.0682,2.2084.02,4.4132-.0876,6.62-.1507,2.0758-.06,4.1514-.13,6.23.0132a30.08,30.08,0,0,0,5.1883-.0638c.6021-.0625,1.2093-.0905,1.8147-.0943,1.9038-.0123,3.8069-.023,5.7111.09,1.209.0717,2.4234.0668,3.6342.0431,1.3841-.027,2.7667-.1178,4.15-.171.6053-.0232,1.2114-.024,1.8173-.0308.4759-.0053.9523.007,1.4278-.0079q4.7364-.1485,9.4724-.3074,3.8928-.1353,7.7847-.2951c1.8593-.0732,3.7181-.1591,5.5774-.2307a52.3236,52.3236,0,0,0,5.572-.2957,11.36,11.36,0,0,1,1.4261-.0542c.4327-.0081.8657.0053,1.2983-.0039,2.4662-.0524,4.9321-.1254,7.3986-.1577,1.6007-.021,3.2029.0481,4.8033.0185,2.3371-.0432,4.6733-.027,7.0076.1069a16.6255,16.6255,0,0,0,2.8507-.0664,49.5244,49.5244,0,0,1,6.0918-.2823c1.082.01,2.164.0381,3.2459.0428q3.7006.0161,7.4013.015c2.337-.0034,4.6748.0114,7.0107-.0434,3.5936-.0843,7.1838.0517,10.7751.1586,1.2113.036,2.423.0526,3.6346.0659,2.12.0232,4.2416.0073,6.3614.0661,1.2561.0348,2.5107.0619,3.7638-.0059,3.0273-.1638,6.056-.1612,9.0861-.0864,3.116.0768,6.231.07,9.3451-.0528.9943-.0391,1.99-.04,2.9849-.067.3022-.0082.6038-.0418.905-.071a27.92,27.92,0,0,1,3.623-.2544,1.2874,1.2874,0,0,0,.3833-.0542c.1244-.0349.2643-.0926.2783-.2524a.6029.6029,0,0,0-.056-.3888,5.5257,5.5257,0,0,0-.857-.8527,19.681,19.681,0,0,1-1.6289-1.399c-.3318-.3014-.6842-.5765-1.0289-.8612-.62-.5121-1.2423-1.0215-1.862-1.5342-.2755-.2279-.5432-.467-.8214-.6907q-3.3408-2.6877-6.6843-5.3715c-1.079-.8672-2.1816-1.7026-3.23-2.6109-1.6919-1.4655-3.3551-2.97-5.0161-4.4767a24.7715,24.7715,0,0,0-2.6656-2.2474,4.6446,4.6446,0,0,1-.6089-.5268c-.7759-.7539-1.62-1.4126-2.4553-2.0846-.2435-.196-.4932-.3845-.726-.5945q-3.048-2.7489-6.0916-5.5032c-.2661-.24-.5453-.4636-.8226-.6888-1.0053-.8167-2.0459-1.5872-3.0108-2.4561-1.4344-1.2916-2.94-2.4811-4.4043-3.7294-.2723-.2322-.5452-.4637-.814-.7-.5712-.5035-1.1388-1.0118-1.71-1.515-.3027-.2666-.6213-.5131-.9136-.7921-1.463-1.3966-2.9319-2.7849-4.4238-4.146-1.2261-1.1186-2.4178-2.2795-3.6763-3.359-1.5288-1.3113-3.0719-2.6056-4.5334-4.0071-.2264-.2171-.4816-.399-.7234-.5973q-1.3474-1.105-2.694-2.2113a2.0893,2.0893,0,0,1-.2929-.2784,14.69,14.69,0,0,0-2.1476-2.037c-.2068-.1678-.3741-.3913-.5718-.5738q-.6426-.5936-1.2992-1.17c-.2355-.2065-.4933-.3837-.7255-.5941-.9641-.8732-1.922-1.7544-2.8827-2.6319-.1326-.121-.2638-.2446-.4032-.356a5.9551,5.9551,0,0,0-3.4608-1.4487,15.0018,15.0018,0,0,0-2.5915.0488,7.8447,7.8447,0,0,1-2.8424-.0983,2.9625,2.9625,0,0,0-.7726-.0829c-1.2545.0343-2.51.0584-3.7622.138-1.684.107-3.3657.256-5.0473.3995a7.5377,7.5377,0,0,0-1.2827.1912,10.2435,10.2435,0,0,1-2.7046.293,26.1117,26.1117,0,0,0-4.14.3,11.9069,11.9069,0,0,1-2.3313.1007c-.5623-.0244-1.1244-.0526-1.6867-.0783a17.3456,17.3456,0,0,0-2.5913.0957c-2.0663.2151-4.137.384-6.2055.5761q-.7755.0718-1.5484.1733a1.7463,1.7463,0,0,0-.8462.325c-.4592.3471-.9464.6558-1.3806,1.0354a19.6238,19.6238,0,0,1-1.9339,1.3979,8.7176,8.7176,0,0,0-1.539,1.269,16.3366,16.3366,0,0,1-2.5195,2.179,26.2537,26.2537,0,0,1-2.3163,1.5333c-.4181.24-.8075.538-1.2074.814-1.3094.9037-2.485,2.0164-3.8386,2.8524a3.75,3.75,0,0,0-.6211.5017,15.6265,15.6265,0,0,1-2.765,2.0622c-1.24.7593-2.4646,1.5441-3.6419,2.4138-.3553.2624-.7338.49-1.11.7175-1.5446.9339-3.0969,1.8531-4.6377,2.7941-1.353.8262-2.68,1.7031-4.0439,2.5067-3.1482,1.8545-6.2006,3.8789-9.2282,5.9491-1.203.8227-2.3868,1.68-3.6136,2.46q-1.6759,1.0643-3.3067,2.2019c-.8711.6044-1.77,1.1624-2.6554,1.7427-.4427.29-.8885.5752-1.3238.8777q-1.0342.7189-2.0559,1.4591c-.7179.5176-1.4562,1.0079-2.14,1.5738-1.4068,1.1638-2.8826,2.2208-4.3545,3.28-2.0868,1.5017-4.0725,3.1478-6.0205,4.8422-1.11.9659-2.2565,1.8752-3.3966,2.7948a16.2457,16.2457,0,0,0-1.9826,1.7928,6.25,6.25,0,0,1-1.2139,1.04,9.6617,9.6617,0,0,0-1.942,1.6193,5.1665,5.1665,0,0,1-.8088.6965c-1.1374.8469-2.2574,1.718-3.3209,2.6712-.0332.03-.0693.0555-.1037.0838a31.9018,31.9018,0,0,0-2.719,2.13c-.3112.3162-.716.5226-1.0467.82-.9618.8645-1.9089,1.7482-2.8584,2.6287a2.4731,2.4731,0,0,0-.2538.3132c-.0949.1233.0087.44.1572.462a3.9514,3.9514,0,0,0,.64.0679c.822-.0113,1.6452-.0842,2.4651-.0476a15.5192,15.5192,0,0,0,3.1087-.05,2.7108,2.7108,0,0,1,.648-.012,10,10,0,0,0,1.9413-.1125c.4732-.0509.9456-.1118,1.4195-.154,1.2078-.1075,2.4205-.1141,3.63-.1714,2.2037-.1044,4.4137-.0472,6.613-.2793.8161-.0861,1.6424-.0645,2.4641-.0927Q1708.6006,367.9761,1709.2488,367.9517Zm78.27-65.895.0022.0285c1.2058-.1,2.4175-.15,3.6159-.3111,1.4578-.196,2.9169-.36,4.3816-.48a6.3348,6.3348,0,0,0,1.0186-.1863.7519.7519,0,0,0,.5758-.6807,22.711,22.711,0,0,0,.1839-2.6465c-.0123-.7488-.0017-1.4907.0527-2.2347a28.2859,28.2859,0,0,0-.09-4.7545,12.9548,12.9548,0,0,0-.3046-1.6462.8964.8964,0,0,0-.8717-.7028,3.175,3.175,0,0,0-.5171.0155c-.3427.0454-.6852.0978-1.0243.1668a6.6257,6.6257,0,0,1-2.1916.1169,6.89,6.89,0,0,0-1.9362.1042c-.5559.0848-1.11.19-1.6676.2529a6.8314,6.8314,0,0,1-1.2916.0529,25.8354,25.8354,0,0,0-3.2381.0549,8.707,8.707,0,0,0-2.0325.4127.94.94,0,0,0-.67.9192,6.806,6.806,0,0,0,.0217.9782c.1019.9274.2276,1.8517.3388,2.7779.0778.6478.1642,1.2952.2166,1.9455.0862,1.07.1273,2.1433.2273,3.2112a17.7493,17.7493,0,0,0,.305,1.9319,1.0826,1.0826,0,0,0,1.018.9223,7.9,7.9,0,0,0,1.0355-.0121C1785.6244,302.2231,1786.5713,302.1367,1787.5187,302.0567Zm-9.4965-33.479-.0018.04c-.69.046-1.38.0861-2.07.14a6.123,6.123,0,0,0-1.7668.41.8709.8709,0,0,0-.4758.7688,3.2664,3.2664,0,0,0,.3652,1.4732.9643.9643,0,0,0,.8055.6186c.2151.022.431.0347.6466.0516,2.7208.2136,5.4426.1239,8.1641.0737a7.1706,7.1706,0,0,0,.9042-.0743,23.0945,23.0945,0,0,1,3.2331-.1845,32.0985,32.0985,0,0,0,4.7838-.3092,25.0487,25.0487,0,0,1,3.2273-.2787,8.03,8.03,0,0,0,1.5442-.1658,7.4011,7.4011,0,0,1,2.5793-.11,7.0155,7.0155,0,0,0,1.0343.0666,2.87,2.87,0,0,0,1.8835-.8161.7669.7669,0,0,0,.23-.7511.6936.6936,0,0,0-.4759-.4371,2.0979,2.0979,0,0,0-.5078-.0978c-.2585-.0143-.5186-.0052-.7775.005a2.4,2.4,0,0,1-1.26-.261,4.0838,4.0838,0,0,0-2.7817-.3789,7.6474,7.6474,0,0,1-1.9375.0854c-.4745-.0306-.95-.0413-1.4255-.0547a12.523,12.523,0,0,0-2.7137.1569c-.212.0405-.4287.055-.6438.0763a75.0175,75.0175,0,0,1-9.1981.11c-.0863-.002-.1724-.0164-.2587-.02Q1779.5758,268.6449,1778.0222,268.5777Zm9.6229-12.6641.001.0133q-1.4214.1106-2.8427.2216c-.3875.0308-.7758.0572-1.1615.1052a3.249,3.249,0,0,0-.6315.1458,1.2241,1.2241,0,0,0-.8289,1.3923c.066.46.1639.9171.2743,1.368a5.8486,5.8486,0,0,1,.2,1.38c.0009.28-.0077.56.0015.84a.7939.7939,0,0,0,.6335.7733,4.6615,4.6615,0,0,0,1.8061.003,23.5065,23.5065,0,0,1,3.4855-.2625c.7759-.0264,1.5535-.0716,2.3242-.1648a43.9563,43.9563,0,0,1,4.77-.4561,9.5068,9.5068,0,0,0,1.0332-.0748.8211.8211,0,0,0,.71-.8513,3.9971,3.9971,0,0,0,.0117-.4195,4.68,4.68,0,0,1,.2361-1.6485,5.0836,5.0836,0,0,0,.1448-.5363,1.2364,1.2364,0,0,0-.7531-1.4458,2.6792,2.6792,0,0,0-.6316-.142c-1.5475-.1646-3.1012-.2441-4.6473-.4378a9.3657,9.3657,0,0,0-1.6822-.0062C1789.28,255.756,1788.4628,255.8436,1787.6451,255.9136Zm-2.2763,7.9777.0008.0577c-1.4676.0122-2.9354.0146-4.4026.0418a10.2107,10.2107,0,0,0-1.5467.13c-1.3105.2266-1.5663.5683-1.33,2.1053a.8265.8265,0,0,0,.6227.6383c.2986.0464.6.0753.9012.0961.4308.03.8627.0392,1.2935.0679a49.9787,49.9787,0,0,0,5.0491.0783,25.87,25.87,0,0,0,4.1314-.2745,2.7123,2.7123,0,0,1,.3875-.0257c1.5952-.08,3.1906-.1567,4.7855-.242.5169-.0276,1.033-.073,1.5487-.1192.5588-.05,1.1165-.114,1.6752-.1653.473-.0434.949-.0591,1.4193-.1228a2.6463,2.6463,0,0,0,.7409-.2252.9855.9855,0,0,0,.5806-.8575,2.6247,2.6247,0,0,0-.0271-.6934.7707.7707,0,0,0-.6035-.6555c-.38-.0827-.77-.1172-1.1508-.1966a7.6166,7.6166,0,0,0-2.8355-.0671,10.63,10.63,0,0,1-2.5829.085,10.9074,10.9074,0,0,0-2.8387.1407,9.0071,9.0071,0,0,1-1.417.1274C1788.3036,263.8514,1786.8361,263.8673,1785.3688,263.8913Zm1.9336,18.96.0008.023c.13-.0046.26-.0015.3887-.0152,1.847-.1968,3.7078-.2532,5.5381-.6256.5072-.1032,1.03-.1188,1.5456-.1763.3865-.043.7756-.0714,1.1583-.1395a2.8879,2.8879,0,0,0,.7425-.2322,1.207,1.207,0,0,0,.7236-1.072,7.28,7.28,0,0,0-.06-1.2516.8943.8943,0,0,0-.5617-.7185,2.0556,2.0556,0,0,0-.6228-.1762c-.6458-.055-1.2943-.1171-1.9406-.109-.8636.0109-1.7265.0808-2.5892.1333a10.7559,10.7559,0,0,1-3.357-.0934,2.2463,2.2463,0,0,0-.7743-.025c-1.0765.1128-2.1569.119-3.2365.1553-.4745.0159-.9489.0637-1.4207.1207a3.1676,3.1676,0,0,0-1.1191.3309.6763.6763,0,0,0-.4055.6543,14.4259,14.4259,0,0,1,.02,2.5139.6952.6952,0,0,0,.5353.6935,7.4757,7.4757,0,0,0,1.9376.1311C1784.9714,282.9471,1786.1368,282.893,1787.3024,282.8509Zm.5838-6.0343,0-.0248c.2159-.0078.4323-.01.6477-.0244,1.595-.109,3.1921-.1929,4.7836-.3424.9026-.0848,1.8013-.21,2.7074-.2743a12.47,12.47,0,0,0,1.9159-.3332,1.5506,1.5506,0,0,0,1.1216-1.2283.8226.8226,0,0,0-.6477-1.022,2.6442,2.6442,0,0,0-.5167-.0265c-1.12.09-2.24.1693-3.3568.2914a9.8893,9.8893,0,0,1-2.1953.1364,46.62,46.62,0,0,0-5.1817-.0727c-1.8979-.0051-3.7952.2052-5.6926.3245a2.8585,2.8585,0,0,0-.5139.0681c-.5458.1364-1.0945.2651-1.6307.4371a.7082.7082,0,0,0-.1943,1.148,1.987,1.987,0,0,0,.5287.3931,6.3485,6.3485,0,0,0,2.7805.5978C1784.2566,276.86,1786.0714,276.8338,1787.8862,276.8166Zm1.6321,7.5874a33.3267,33.3267,0,0,1-4.2856.3026,54.3716,54.3716,0,0,0-6.8205.7323,1.5926,1.5926,0,0,0-.3672.1247.6064.6064,0,0,0-.2951.5718.8791.8791,0,0,0,.3788.6947,1.4356,1.4356,0,0,0,.7336.2488c.6031.0457,1.2056.1046,1.8092.1358a15.1808,15.1808,0,0,0,2.457.0819c2.1057-.2325,4.2236-.2285,6.3351-.3474.5166-.0291,1.0323-.08,1.5472-.1344,1.4166-.1488,2.8353-.28,4.2477-.4653,1.198-.1571,2.3885-.3787,3.5818-.5755a.4937.4937,0,0,0,.24-.0924,2.0671,2.0671,0,0,0,.3605-.3833.4609.4609,0,0,0-.17-.598,2.0278,2.0278,0,0,0-.3641-.1358,13.2329,13.2329,0,0,0-4.2424-.4013c-.17.0216-.3453-.002-.5177.0045A39.252,39.252,0,0,0,1789.5183,284.404Z"
     transform="translate(141.5726 -245.995)"
     id="path12846" />
  <path
     class="cls-1"
     d="M1792.8008,507.3782q-2.7893.1006-5.5783.202c-1.773.0666-3.546.1314-5.3185.209q-4.3443.19-8.688.3953a7.1483,7.1483,0,0,1-.9073.0336,40.3644,40.3644,0,0,0-4.5408.0526q-5.45.1623-10.8991.3559c-2.6379.0912-5.275.2081-7.9131.2929-1.9029.0612-3.8071.0823-5.71.1337-.7783.021-1.5553.0844-2.3336.1115q-5.4491.1895-10.8984.37c-2.5948.0884-5.19.1714-7.7841.2718-3.5025.1355-7.0062.25-10.5057.4425a52.374,52.374,0,0,0-6.08.4812c-.3827.0662-.7758.0644-1.1639.0969-.4312.0361-.8627.07-1.2931.1146-1.0759.111-2.15.2418-3.2273.3383-1.8534.1659-3.709.3036-5.55.5957a19.0965,19.0965,0,0,1-3.1081.18,30.2971,30.2971,0,0,0-3.37.1435c-1.2221.1292-1.6424-.1932-1.983-1.4706a6.4173,6.4173,0,0,1-.1828-1.1024c-.0674-.7916-.1312-1.5851-.1533-2.3789-.0624-2.2431-.104-4.4867-.1519-6.73-.0268-1.2618-.0458-2.5238-.0768-3.7855-.01-.42-.0363-.841-.0741-1.26-.1853-2.049-.2908-4.1012-.3343-6.1594-.05-2.3835-.17-4.7656-.2388-7.1489-.0444-1.5415-.05-3.084-.0753-4.6261-.0287-1.7292-.0678-3.4584-.089-5.1878-.0242-1.9629-.0336-3.926-.05-5.8891-.0027-.3271.0192-.6575-.016-.9808-.1575-1.4438-.0968-2.8951-.1691-4.3415-.0117-.2334-.02-.4673-.0209-.7009-.0052-2.8039.0022-5.6078-.0161-8.4117-.0125-1.9161-.0611-3.8322-.0915-5.7483-.0066-.42-.0049-.8409-.0056-1.2614-.0007-.4674.0205-.9358-.0035-1.4019-.0648-1.2606-.0564-2.5229-.0987-3.7824-.0612-1.8233-.0455-3.645-.0465-5.4666-.0009-1.5428-.0511-3.0843-.06-4.6252-.0117-2.1032-.1458-4.2038-.1076-6.3069.0161-.8876.0374-1.7753.0385-2.6631.0019-1.5423-.0173-3.0849-.0133-4.6272.0019-.7938.0336-1.5874.0536-2.381.0118-.4671.04-.9342.0387-1.4013q-.0093-3.2956-.0314-6.5912c-.0008-.14.0078-.2814-.0041-.4206-.2169-2.52-.09-5.0462-.1442-7.5692-.0489-2.29-.0737-4.58-.1028-6.8706a16.79,16.79,0,0,0-.206-2.5119,10.8408,10.8408,0,0,1-.1269-1.5329c-.0189-.9355-.07-1.8652-.1675-2.7972-.1514-1.44-.2523-2.8859-.3522-4.331-.0419-.6048-.0442-1.2145-.0327-1.821a7.2374,7.2374,0,0,0-.25-2.0779c-.1484-.5383-.2854-1.08-.4274-1.62a11.53,11.53,0,0,1-.28-2.359.6266.6266,0,0,1,.3832-.5135,8.2625,8.2625,0,0,1,1.02-.1744c.9487-.0765,1.8991-.1278,2.8487-.1921.3022-.02.6056-.0362.9054-.0782a30.2533,30.2533,0,0,1,5.3131-.175,9.8734,9.8734,0,0,0,1.1668-.021,12.592,12.592,0,0,1,2.2029-.0406,3.6523,3.6523,0,0,0,.9022-.0659,35.5961,35.5961,0,0,1,3.7484-.3285,2.8744,2.8744,0,0,1,.5188-.0046,17.3264,17.3264,0,0,0,4.0119-.144,37.6031,37.6031,0,0,1,5.7066-.0273c.4311.0214.8631.0243,1.2946.0234.6053-.0013,1.211-.0026,1.8157-.0248.778-.0285,1.5552-.08,2.3329-.1172.8642-.0411,1.7287-.0742,2.5928-.1158,1.8583-.0894,3.7163-.1887,5.5749-.27.821-.0361,1.6435-.0621,2.465-.0515,1.1247.0147,2.2492.0946,3.3737.0988,1.2978.0048,2.5958-.0353,3.8933-.069,1.3838-.0359,2.7672-.0846,4.1506-.133.4324-.0152.8654-.0333,1.2959-.0748a10.4417,10.4417,0,0,1,2.4624.05,13.3472,13.3472,0,0,0,2.4609.1,21.6246,21.6246,0,0,1,3.2433.0394,3.4167,3.4167,0,0,0,.3891.0174c1.817-.0157,3.6341-.0242,5.4509-.0534,1.168-.0189,2.3356-.0643,3.5031-.1063.9511-.0342,1.9016-.0828,2.8525-.1217.3891-.0158.7791-.0453,1.1676-.03a26.1031,26.1031,0,0,0,3.8888-.1415,4.9121,4.9121,0,0,1,.6477-.0381c1.6031.038,3.199-.08,4.7971-.1872,1.2078-.0809,2.4221-.0548,3.6328-.0954,2.5949-.087,5.1886-.2224,7.7842-.27,2.2938-.0421,4.5794-.245,6.8722-.2905,1.8168-.036,3.6323-.1149,5.4513-.0281.8637.0412,1.7306-.0188,2.5961-.0182,1.5578.0012,3.1158.0317,4.6733.0169,2.51-.024,5.0188-.0768,7.5282-.1139,1.5574-.023,3.1149-.0613,4.6724-.0541,2.5533.0117,5.1066.0579,7.66.0824.6489.0063,1.2978-.0155,1.9468-.0225,3.9377-.0426,7.8752-.0968,11.8131-.12,1.3405-.0079,2.6844.0153,4.022.11,1.6444.1157,3.2871.1309,4.9312.1018,1.3847-.0244,2.7683-.0657,4.1532.0335.4744.0339.9519.01,1.4279.0187q1.9467.0345,3.8932.0735c.2164.004.4335.0149.6491.0016,1.8591-.1149,3.72-.0845,5.5809-.0543.0866.0014.1733.0044.26-.0006,2.9833-.1723,5.9712-.0034,8.9553-.08,2.2069-.0567,4.4122-.0594,6.62-.0241,1.3391.0213,2.6808-.0887,4.019-.1777a14.4074,14.4074,0,0,1,2.5853.1834,1.2835,1.2835,0,0,1,.9333.6961,2.8948,2.8948,0,0,1,.4226,1.4538,18.43,18.43,0,0,1-.2676,4.74,5.9016,5.9016,0,0,0-.0987.9736c-.1262,1.8637-.2549,3.7272-.367,5.592a10.4312,10.4312,0,0,0,.01,1.3988,28.2333,28.2333,0,0,1-.1089,4.8956c-.078.7892-.1509,1.5819-.168,2.3748q-.053,2.452-.039,4.9059c.0051,1.1694-.0087,2.3349-.096,3.5017-.07.93-.0559,1.8679-.09,2.8018-.0535,1.4473-.116,2.8942-.1758,4.3412a46.1556,46.1556,0,0,0,.0032,4.6253c.0468.7933.08,1.5877.1063,2.382.0172.5136.0345,1.0293.0109,1.5417-.0645,1.3993-.1521,2.7972-.2269,4.1959a4.13,4.13,0,0,0-.0041.7,20.3387,20.3387,0,0,1,.0367,2.5211c-.008,1.3551.0119,2.7112-.0238,4.0652-.0528,2.0082-.0783,4.0217-.2407,6.02-.1175,1.4454-.0868,2.8946-.2107,4.3365-.0318.3707-.0119.7474-.0083,1.1212a17.499,17.499,0,0,1-.0968,2.0968,24.0725,24.0725,0,0,0-.1333,2.5173c-.0064,1.2632-.0594,2.5221-.1478,3.78-.023.3258-.0246.6536-.0333.9805-.0287,1.0742-.0691,2.1451-.1866,3.2154-.1015.9247-.1008,1.8638-.13,2.7971s-.0281,1.8694-.0618,2.8032c-.0743,2.0544-.15,4.1089-.2493,6.1618-.0566,1.1656-.1758,2.3252-.1963,3.496-.0276,1.5919.0532,3.1774.1189,4.7653.0308.7464.0547,1.4951.0353,2.241-.051,1.9626-.1064,3.9231.0371,5.8864.0783,1.07.04,2.1479.2048,3.2154a6.7964,6.7964,0,0,1,.0355,1.26,60.8628,60.8628,0,0,0,.2739,6.7215c.0353.4656.0485.9331.0679,1.4.0253.6069.0621,1.2139.0661,1.8209.006.8875.0141,1.7766-.0279,2.662a16.1711,16.1711,0,0,0,.0964,3.2167,6.6461,6.6461,0,0,1,.0772,1.1174,15.2569,15.2569,0,0,0,.1188,2.3767,6.5453,6.5453,0,0,1-.0045,1.1171,1.7316,1.7316,0,0,1-1.2854,1.5556,13.6308,13.6308,0,0,1-2.7094.2583c-2.4229.0221-4.8456.0535-7.2684.08-.8653.01-1.7307.01-2.5958.0257-.9081.0166-1.816.0451-2.7239.0716-.4757.0139-.9511.0492-1.4268.05-2.2069.0031-4.4139-.0106-6.6208-.0015-.9951.0041-1.99.0407-2.9847.0743-2.1621.073-4.3243.1445-6.4859.2339-1.5131.0626-3.0246.1651-4.5377.2294-1.9018.0808-3.8044.1392-5.7066.2107q-2.2052.0828-4.41.1746-6.1608.2644-12.3214.5337c-.3458.0149-.6923.0133-1.0383.0218-.7353.0183-1.4732.0039-2.2056.0634-2.9355.2386-5.8811.21-8.8194.356-1.9454.0968-3.8911.13-5.8371.181-1.2105.032-2.4181.1691-3.6287.2057-1.9459.059-3.8931.0739-5.84.1074Z"
     transform="translate(141.5726 -245.995)"
     id="path12848" />
  <path
     class="cls-1"
     d="M1709.2488,367.9517q-.6485.0234-1.2967.0466c-.8217.0282-1.648.0066-2.4641.0927-2.1993.2321-4.4093.1749-6.613.2793-1.2095.0573-2.4222.0639-3.63.1714-.4739.0422-.9463.1031-1.4195.154a10,10,0,0,1-1.9413.1125,2.7108,2.7108,0,0,0-.648.012,15.5192,15.5192,0,0,1-3.1087.05c-.82-.0366-1.6431.0363-2.4651.0476a3.9514,3.9514,0,0,1-.64-.0679c-.1485-.0225-.2521-.3387-.1572-.462a2.4731,2.4731,0,0,1,.2538-.3132c.9495-.88,1.8966-1.7642,2.8584-2.6287.3307-.2972.7355-.5036,1.0467-.82a31.9018,31.9018,0,0,1,2.719-2.13c.0344-.0283.0705-.0541.1037-.0838,1.0635-.9532,2.1835-1.8243,3.3209-2.6712a5.1665,5.1665,0,0,0,.8088-.6965,9.6617,9.6617,0,0,1,1.942-1.6193,6.25,6.25,0,0,0,1.2139-1.04,16.2457,16.2457,0,0,1,1.9826-1.7928c1.14-.92,2.2862-1.8289,3.3966-2.7948,1.948-1.6944,3.9337-3.34,6.0205-4.8422,1.4719-1.0591,2.9477-2.1161,4.3545-3.28.6841-.5659,1.4224-1.0562,2.14-1.5738q1.023-.7375,2.0559-1.4591c.4353-.3025.8811-.5877,1.3238-.8777.8856-.58,1.7843-1.1383,2.6554-1.7427q1.6348-1.1343,3.3067-2.2019c1.2268-.7792,2.4106-1.637,3.6136-2.46,3.0276-2.07,6.08-4.0946,9.2282-5.9491,1.3642-.8036,2.6909-1.68,4.0439-2.5067,1.5408-.941,3.0931-1.86,4.6377-2.7941.3762-.2275.7547-.4551,1.11-.7175,1.1773-.87,2.4022-1.6545,3.6419-2.4138a15.6265,15.6265,0,0,0,2.765-2.0622,3.75,3.75,0,0,1,.6211-.5017c1.3536-.836,2.5292-1.9487,3.8386-2.8524.4-.276.7893-.5743,1.2074-.814a26.2537,26.2537,0,0,0,2.3163-1.5333,16.3366,16.3366,0,0,0,2.5195-2.179,8.7176,8.7176,0,0,1,1.539-1.269,19.6238,19.6238,0,0,0,1.9339-1.3979c.4342-.38.9214-.6883,1.3806-1.0354a1.7463,1.7463,0,0,1,.8462-.325q.7723-.1025,1.5484-.1733c2.0685-.1921,4.1392-.361,6.2055-.5761a17.3456,17.3456,0,0,1,2.5913-.0957c.5623.0257,1.1244.0539,1.6867.0783a11.9069,11.9069,0,0,0,2.3313-.1007,26.1117,26.1117,0,0,1,4.14-.3,10.2435,10.2435,0,0,0,2.7046-.293,7.5377,7.5377,0,0,1,1.2827-.1912c1.6816-.1435,3.3633-.2925,5.0473-.3995,1.2521-.08,2.5077-.1037,3.7622-.138a2.9625,2.9625,0,0,1,.7726.0829,7.8447,7.8447,0,0,0,2.8424.0983,15.0018,15.0018,0,0,1,2.5915-.0488,5.9551,5.9551,0,0,1,3.4608,1.4487c.1394.1114.2706.235.4032.356.9607.8775,1.9186,1.7587,2.8827,2.6319.2322.21.49.3876.7255.5941q.6564.5757,1.2992,1.17c.1977.1825.365.406.5718.5738a14.69,14.69,0,0,1,2.1476,2.037,2.0893,2.0893,0,0,0,.2929.2784q1.3455,1.1078,2.694,2.2113c.2418.1983.497.38.7234.5973,1.4615,1.4015,3.0046,2.6958,4.5334,4.0071,1.2585,1.08,2.45,2.24,3.6763,3.359,1.4919,1.3611,2.9608,2.7494,4.4238,4.146.2923.279.6109.5255.9136.7921.5713.5032,1.1389,1.0115,1.71,1.515.2688.2368.5417.4683.814.7,1.4642,1.2483,2.97,2.4378,4.4043,3.7294.9649.8689,2.0055,1.6394,3.0108,2.4561.2773.2252.5565.4487.8226.6888q3.0477,2.749,6.0916,5.5032c.2328.21.4825.3985.726.5945.835.672,1.6794,1.3307,2.4553,2.0846a4.6446,4.6446,0,0,0,.6089.5268,24.7715,24.7715,0,0,1,2.6656,2.2474c1.661,1.5066,3.3242,3.0112,5.0161,4.4767,1.0486.9083,2.1512,1.7437,3.23,2.6109q3.342,2.6859,6.6843,5.3715c.2782.2237.5459.4628.8214.6907.62.5127,1.2418,1.0221,1.862,1.5342.3447.2847.6971.56,1.0289.8612a19.681,19.681,0,0,0,1.6289,1.399,5.5257,5.5257,0,0,1,.857.8527.6029.6029,0,0,1,.056.3888c-.014.16-.1539.2175-.2783.2524a1.2874,1.2874,0,0,1-.3833.0542,27.92,27.92,0,0,0-3.623.2544c-.3012.0292-.6028.0628-.905.071-.9948.0272-1.9906.0279-2.9849.067-3.1141.1227-6.2291.13-9.3451.0528-3.03-.0748-6.0588-.0774-9.0861.0864-1.2531.0678-2.5077.0407-3.7638.0059-2.12-.0588-4.2409-.0429-6.3614-.0661-1.2116-.0133-2.4233-.03-3.6346-.0659-3.5913-.1069-7.1815-.2429-10.7751-.1586-2.3359.0548-4.6737.04-7.0107.0434q-3.7005.0054-7.4013-.015c-1.0819-.0047-2.1639-.033-3.2459-.0428a49.5244,49.5244,0,0,0-6.0918.2823,16.6255,16.6255,0,0,1-2.8507.0664c-2.3343-.1339-4.6705-.15-7.0076-.1069-1.6.03-3.2026-.0395-4.8033-.0185-2.4665.0323-4.9324.1053-7.3986.1577-.4326.0092-.8656-.0042-1.2983.0039a11.36,11.36,0,0,0-1.4261.0542,52.3236,52.3236,0,0,1-5.572.2957c-1.8593.0716-3.7181.1575-5.5774.2307q-3.8922.1532-7.7847.2951-4.7358.1647-9.4724.3074c-.4755.0149-.9519.0026-1.4278.0079-.6059.0068-1.212.0076-1.8173.0308-1.3836.0532-2.7662.144-4.15.171-1.2108.0237-2.4252.0286-3.6342-.0431-1.9042-.113-3.8073-.1023-5.7111-.09-.6054.0038-1.2126.0318-1.8147.0943a30.08,30.08,0,0,1-5.1883.0638c-2.0787-.1436-4.1543-.0727-6.23-.0132-2.2063.0631-4.4111.171-6.62.1507-.6053-.0056-1.211.04-1.8162.0682a55.1654,55.1654,0,0,1-5.5806.0623c-.3444-.0188-.6913.02-1.0371.033Z"
     transform="translate(141.5726 -245.995)"
     id="path12850" />
  <path
     class="cls-1"
     d="M1795.5658,288.4584a3.0483,3.0483,0,0,1,.5166-.0157.8982.8982,0,0,1,.8728.7029,13.1613,13.1613,0,0,1,.3045,1.6465,28.3234,28.3234,0,0,1,.0891,4.7543c-.0544.7437-.0641,1.4858-.052,2.2343a22.504,22.504,0,0,1-.1847,2.6459.7466.7466,0,0,1-.5751.68,6.2716,6.2716,0,0,1-1.018.1875c-1.4659.12-2.9247.2841-4.3824.48-1.1977.16-2.41.2114-3.6155.31l-.0025-.0292c-.9474.0811-1.8946.1665-2.8424.2373a7.8951,7.8951,0,0,1-1.0352.0125,1.0821,1.0821,0,0,1-1.0175-.923,17.3365,17.3365,0,0,1-.3053-1.9318c-.1008-1.0672-.141-2.141-.227-3.2117-.0532-.6491-.1389-1.297-.2178-1.9452-.1106-.9264-.236-1.8494-.3386-2.7776a6.9646,6.9646,0,0,1-.0218-.978.9414.9414,0,0,1,.6708-.9195,8.78,8.78,0,0,1,2.032-.4128,25.7705,25.7705,0,0,1,3.2389-.0541,6.9323,6.9323,0,0,0,1.2909-.0539c.5582-.0626,1.1122-.1674,1.6683-.2519a6.8921,6.8921,0,0,1,1.9361-.105,6.62,6.62,0,0,0,2.1916-.1172C1794.88,288.5563,1795.2236,288.5029,1795.5658,288.4584Z"
     transform="translate(141.5726 -245.995)"
     id="path12852" />
  <path
     class="cls-1"
     d="M1778.0222,268.5777q1.5535.0678,3.107.1359c.0863.0038.1724.0182.2587.02a75.0175,75.0175,0,0,0,9.1981-.11c.2151-.0213.4318-.0358.6438-.0763a12.523,12.523,0,0,1,2.7137-.1569c.4753.0134.951.0241,1.4255.0547a7.6474,7.6474,0,0,0,1.9375-.0854,4.0838,4.0838,0,0,1,2.7817.3789,2.4,2.4,0,0,0,1.26.261c.2589-.01.519-.0193.7775-.005a2.0979,2.0979,0,0,1,.5078.0978.6936.6936,0,0,1,.4759.4371.7669.7669,0,0,1-.23.7511,2.87,2.87,0,0,1-1.8835.8161,7.0155,7.0155,0,0,1-1.0343-.0666,7.4011,7.4011,0,0,0-2.5793.11,8.03,8.03,0,0,1-1.5442.1658,25.0487,25.0487,0,0,0-3.2273.2787,32.0985,32.0985,0,0,1-4.7838.3092,23.0945,23.0945,0,0,0-3.2331.1845,7.1706,7.1706,0,0,1-.9042.0743c-2.7215.05-5.4433.14-8.1641-.0737-.2156-.0169-.4315-.03-.6466-.0516a.9643.9643,0,0,1-.8055-.6186,3.2664,3.2664,0,0,1-.3652-1.4732.8709.8709,0,0,1,.4758-.7688,6.123,6.123,0,0,1,1.7668-.41c.6894-.0537,1.38-.0938,2.07-.14Z"
     transform="translate(141.5726 -245.995)"
     id="path12854" />
  <path
     class="cls-1"
     d="M1787.6451,255.9136c.8177-.07,1.6345-.1576,2.4535-.2039a9.3657,9.3657,0,0,1,1.6822.0062c1.5461.1937,3.1.2732,4.6473.4378a2.6792,2.6792,0,0,1,.6316.142,1.2364,1.2364,0,0,1,.7531,1.4458,5.0836,5.0836,0,0,1-.1448.5363,4.68,4.68,0,0,0-.2361,1.6485,3.9971,3.9971,0,0,1-.0117.4195.8211.8211,0,0,1-.71.8513,9.5068,9.5068,0,0,1-1.0332.0748,43.9563,43.9563,0,0,0-4.77.4561c-.7707.0932-1.5483.1384-2.3242.1648a23.5065,23.5065,0,0,0-3.4855.2625,4.6615,4.6615,0,0,1-1.8061-.003.7939.7939,0,0,1-.6335-.7733c-.0092-.28-.0006-.56-.0015-.84a5.8486,5.8486,0,0,0-.2-1.38c-.11-.4509-.2083-.9077-.2743-1.368a1.2241,1.2241,0,0,1,.8289-1.3923,3.249,3.249,0,0,1,.6315-.1458c.3857-.048.774-.0744,1.1615-.1052q1.4213-.113,2.8427-.2216Z"
     transform="translate(141.5726 -245.995)"
     id="path12856" />
  <path
     class="cls-1"
     d="M1785.3688,263.8913c1.4673-.024,2.9348-.04,4.4017-.0765a9.0071,9.0071,0,0,0,1.417-.1274,10.9074,10.9074,0,0,1,2.8387-.1407,10.63,10.63,0,0,0,2.5829-.085,7.6166,7.6166,0,0,1,2.8355.0671c.3812.0794.77.1139,1.1508.1966a.7707.7707,0,0,1,.6035.6555,2.6247,2.6247,0,0,1,.0271.6934.9855.9855,0,0,1-.5806.8575,2.6463,2.6463,0,0,1-.7409.2252c-.47.0637-.9463.0794-1.4193.1228-.5587.0513-1.1164.1153-1.6752.1653-.5157.0462-1.0318.0916-1.5487.1192-1.5949.0853-3.19.1618-4.7855.242a2.7123,2.7123,0,0,0-.3875.0257,25.87,25.87,0,0,1-4.1314.2745,49.9787,49.9787,0,0,1-5.0491-.0783c-.4308-.0287-.8627-.0381-1.2935-.0679-.3011-.0208-.6026-.05-.9012-.0961a.8265.8265,0,0,1-.6227-.6383c-.2364-1.537.0194-1.8787,1.33-2.1053a10.2107,10.2107,0,0,1,1.5467-.13c1.4672-.0272,2.935-.03,4.4026-.0418Z"
     transform="translate(141.5726 -245.995)"
     id="path12858" />
  <path
     class="cls-1"
     d="M1787.3024,282.8509c-1.1656.0421-2.331.0962-3.497.1215a7.4757,7.4757,0,0,1-1.9376-.1311.6952.6952,0,0,1-.5353-.6935,14.4259,14.4259,0,0,0-.02-2.5139.6763.6763,0,0,1,.4055-.6543,3.1676,3.1676,0,0,1,1.1191-.3309c.4718-.057.9462-.1048,1.4207-.1207,1.08-.0363,2.16-.0425,3.2365-.1553a2.2463,2.2463,0,0,1,.7743.025,10.7559,10.7559,0,0,0,3.357.0934c.8627-.0525,1.7256-.1224,2.5892-.1333.6463-.0081,1.2948.054,1.9406.109a2.0556,2.0556,0,0,1,.6228.1762.8943.8943,0,0,1,.5617.7185,7.28,7.28,0,0,1,.06,1.2516,1.207,1.207,0,0,1-.7236,1.072,2.8879,2.8879,0,0,1-.7425.2322c-.3827.0681-.7718.0965-1.1583.1395-.5155.0575-1.0384.0731-1.5456.1763-1.83.3724-3.6911.4288-5.5381.6256-.1287.0137-.2591.0106-.3887.0152Z"
     transform="translate(141.5726 -245.995)"
     id="path12860" />
  <path
     class="cls-1"
     d="M1787.8862,276.8166c-1.8148.0172-3.63.0432-5.4446.0478a6.3485,6.3485,0,0,1-2.7805-.5978,1.987,1.987,0,0,1-.5287-.3931.7082.7082,0,0,1,.1943-1.148c.5362-.172,1.0849-.3007,1.6307-.4371a2.8585,2.8585,0,0,1,.5139-.0681c1.8974-.1193,3.7947-.33,5.6926-.3245a46.62,46.62,0,0,1,5.1817.0727,9.8893,9.8893,0,0,0,2.1953-.1364c1.1165-.1221,2.2373-.2017,3.3568-.2914a2.6442,2.6442,0,0,1,.5167.0265.8226.8226,0,0,1,.6477,1.022,1.5506,1.5506,0,0,1-1.1216,1.2283,12.47,12.47,0,0,1-1.9159.3332c-.9061.0645-1.8048.19-2.7074.2743-1.5915.1495-3.1886.2334-4.7836.3424-.2154.0148-.4318.0166-.6477.0244Z"
     transform="translate(141.5726 -245.995)"
     id="path12862" />
  <path
     class="cls-1"
     d="M1789.5183,284.4035a39.4721,39.4721,0,0,1,4.6281-.2359c.1731-.0062.3486.0167.5184-.0041a13.2254,13.2254,0,0,1,4.2423.4013,1.9692,1.9692,0,0,1,.3636.1361.4606.4606,0,0,1,.1706.598,2.1286,2.1286,0,0,1-.3612.3832.4955.4955,0,0,1-.24.092c-1.1923.1967-2.3837.4182-3.5815.5756-1.4121.1856-2.8315.3158-4.2476.465-.5152.0537-1.03.106-1.5465.1348-2.1117.1187-4.23.1148-6.3353.3473a15.1538,15.1538,0,0,1-2.4573-.0824c-.6036-.0309-1.2054-.09-1.8095-.1351a1.4368,1.4368,0,0,1-.7332-.2486.88.88,0,0,1-.3785-.6958.6047.6047,0,0,1,.2948-.571,1.5041,1.5041,0,0,1,.3665-.1244,54.4481,54.4481,0,0,1,6.8208-.7335A33.0054,33.0054,0,0,0,1789.5183,284.4035Z"
     transform="translate(141.5726 -245.995)"
     id="path12864" />
  <polygon
     class="cls-1"
     points="56.268 260.604 57.864 232.84 41.427 225.6 41.1 214.138 33.31 208.104 33.31 193.022 22.355 190.608 23.242 179.749 0 160.443 56.908 148.98 56.908 130.277 47.219 125.451 70.314 110.971 86.691 128.467 82.261 137.517 166.796 86.235 247.558 136.913 308.904 160.443 322.472 159.839 301.746 174.319 301.746 182.765 297.5 188.195 297.823 195.435 286.536 203.881 281.082 216.551 273.3 216.551 264.399 231.03 268.104 294.626 54.899 286.015 56.268 260.604"
     id="polygon12866" />
  <polygon
     class="cls-1"
     points="2227 176.888 2227.227 308.829 2579.118 308.829 2579.118 176.888 2589.39 176.888 2587.769 170.081 2403.269 99.964 2218.769 168.8 2218.769 176.746 2227 176.888"
     id="polygon12868" />
</svg>
