<?xml version="1.0" encoding="UTF-8" standalone="no"?>
<svg
   xmlns:dc="http://purl.org/dc/elements/1.1/"
   xmlns:cc="http://creativecommons.org/ns#"
   xmlns:rdf="http://www.w3.org/1999/02/22-rdf-syntax-ns#"
   xmlns:svg="http://www.w3.org/2000/svg"
   xmlns="http://www.w3.org/2000/svg"
   id="svg8"
   version="1.1"
   viewBox="0 0 685.10944 185.70543"
   height="185.70543mm"
   width="685.10944mm">
  <defs
     id="defs2">
    <style
       id="style3519">.cls-1,.cls-40,.cls-54,.cls-68,.cls-70{fill:none;}.cls-2{fill:#43499f;}.cls-3{fill:#5f67b0;}.cls-4{fill:#171717;}.cls-5{clip-path:url(#clip-path);}.cls-6,.cls-89{fill:#c6d4d9;}.cls-40,.cls-54,.cls-6,.cls-63,.cls-88{stroke:#231f20;}.cls-6,.cls-68,.cls-70,.cls-71,.cls-74,.cls-75,.cls-76,.cls-88,.cls-89{stroke-miterlimit:10;}.cls-7{fill:#d1d6ec;}.cls-8{fill:#84bcd5;}.cls-9{fill:#dcf2fd;}.cls-10{fill:#dff3fd;}.cls-11,.cls-69,.cls-71,.cls-88{fill:#231f20;}.cls-12{fill:#4a6e3d;}.cls-13{fill:#fff;}.cls-14{fill:#8fb3c5;}.cls-15{fill:#b8cdeb;}.cls-16{fill:#333c4e;}.cls-17{fill:#bacbd5;}.cls-18{fill:#fafbec;}.cls-19{fill:#f8eeea;}.cls-20{fill:#493940;}.cls-21{fill:#72646d;}.cls-22{fill:#0082c7;}.cls-23{fill:#737577;}.cls-24{fill:#3892c1;}.cls-25{fill:#5e8448;}.cls-26{fill:#789ec4;}.cls-27{fill:#f7fcfe;}.cls-28{fill:#c2e5dc;}.cls-29{fill:#788086;}.cls-30{fill:#c2cdd4;}.cls-31{fill:#c3d0cf;}.cls-32{fill:#696e80;}.cls-33{fill:#414350;}.cls-34{fill:#387a9f;}.cls-35{fill:#007437;}.cls-36{fill:#493230;}.cls-37{fill:#50464e;}.cls-38{fill:#1d0b11;}.cls-39{fill:#0d2244;}.cls-40,.cls-54,.cls-63,.cls-69{stroke-linejoin:round;}.cls-41{fill:#62392d;}.cls-42{fill:#979998;}.cls-43{fill:#ca8086;}.cls-44{fill:#b49b9b;}.cls-45{fill:#9e8385;}.cls-46{fill:#2c3b40;}.cls-47{fill:#233323;}.cls-48{fill:#8193a9;}.cls-49{fill:#3b3b3c;}.cls-50{fill:#2c4364;}.cls-51{fill:#869095;}.cls-52{fill:#cec8ba;}.cls-53{fill:#c9adbc;}.cls-54,.cls-63,.cls-69{stroke-linecap:round;stroke-width:0.5px;}.cls-55{fill:#62154a;}.cls-56{fill:#42312b;}.cls-57{fill:#376b34;}.cls-58{fill:#3a152a;}.cls-59{fill:#1c0d15;}.cls-60{fill:#431218;}.cls-61{fill:#006550;}.cls-62{fill:#59472b;}.cls-64{fill:#010101;}.cls-65{fill:#e5f4f8;}.cls-66{fill:#829b9e;}.cls-67{fill:#d7c975;}.cls-68,.cls-69,.cls-75,.cls-76{stroke:#010101;}.cls-68{stroke-width:9px;}.cls-70,.cls-71,.cls-74{stroke:#fff;}.cls-72{fill:#232038;}.cls-73{fill:#bfbfbf;}.cls-75{stroke-width:5px;}.cls-77{fill:#b1b7c3;}.cls-78{fill:#150000;}.cls-79{fill:#88cdac;}.cls-80{fill:#e1e8f6;}.cls-81{fill:#e7f6fd;}.cls-82{fill:#43454c;}.cls-83{fill:#25181e;}.cls-84{fill:#3b4c56;}.cls-85{fill:#1f2a74;}.cls-86{fill:#d01a1f;}.cls-87{fill:#3a4453;}.cls-88{stroke-width:2px;}.cls-89{stroke:#000;stroke-width:2.5px;}.cls-90{fill:#cccccb;}</style>
    <clipPath
       id="clip-path"
       transform="translate(141.5726 -12.5786)">
      <rect
         style="fill:none"
         class="cls-1"
         x="1169.6504"
         y="-13.4753"
         width="1160.2648"
         height="672.43121"
         id="rect3521" />
    </clipPath>
  </defs>
  <metadata
     id="metadata5">
    <rdf:RDF>
      <cc:Work
         rdf:about="">
        <dc:format>image/svg+xml</dc:format>
        <dc:type
           rdf:resource="http://purl.org/dc/dcmitype/StillImage" />
        <dc:title></dc:title>
      </cc:Work>
    </rdf:RDF>
  </metadata>
  <g
     transform="translate(290.394,-74.123476)"
     id="layer1">
    <g
       transform="matrix(0.26458333,0,0,0.26458333,-290.394,74.123476)"
       id="g7464">
      <g
         id="skyline">
        <path
           style="fill:#43499f"
           class="cls-2"
           d="M 2365.55,442.632 V 250.87 h -35.467 V 121.19 l -29.1513,-1.7385 c -10.9238,-8.9716 -17.0006,-18.008 -23.8635,-18.6777 -11.0845,-1.0815 -31.6027,1.4357 -32.4969,5.778 -3.5162,17.0735 -14.269,12.9848 -24.0683,13.302 -10.3957,0.3366 -20.81,0.0756 -33.854,0.0756 v 90.0826 l -6.7059,5.4589 c -7.7624,-6.126 -15.2749,-12.6284 -23.39,-18.2235 -4.2246,-2.9129 -9.4067,-5.59 -14.34,-5.9841 -11.0749,-0.8849 -22.2646,-0.2773 -35.5087,-0.2773 V 96.6588 c -4.1905,26.0651 -4.65,52.108 -4.02,78.1235 0.3841,15.8672 -6.0818,18.9447 -19.0933,13.9245 -1.933,-12.8074 -1.64,-34.3829 -5.9523,-35.3854 -19.1474,-4.4509 -12.0588,-17.9709 -14.5169,-28.9044 -11.987,-53.3178 -4.2927,-61.989 -65.6927,-59.8558 -54.3106,1.8869 -52.8091,0.7342 -63.98,53.836 -6.9345,32.9624 -24.1908,63.1387 -18.9428,99.3007 3.4176,23.5488 0.6441,48.0306 0.6441,73.7648 -13.7864,0 -24.3833,0.1575 -34.9741,-0.0363 -16.4732,-0.3014 -31.3723,-1.6184 -42.7251,16.9191 -10.16,16.59 -38.14,19.296 -47.142,4.235 -16.2069,-27.1147 -22.8436,-4.366 -33.243,-1.0913 h -53.4808 c -1.31,-5.9222 -2.677,-12.1035 -2.7271,-12.33 l -63.114,-24.0117 c -6.37,-78.52 17.6493,-158.5984 -39.1166,-228.6885 h -137.435 c -53.9288,76.3613 -21.37,162.8386 -33.7949,243.15 h -53.3416 v -58.9683 h -57.2421 c -1.1849,-11.7728 -2.0749,-20.6152 -3.0464,-30.2675 h -37.5167 c -0.8065,-6.6877 -1.5353,-12.7314 -2.3992,-19.8958 h -60.788 c -0.9469,-7.4446 -1.732,-13.6165 -1.9794,-15.5615 -23.1788,-7.2065 -42.901,-17.4232 -63.0863,-18.4833 -20.854,-1.0954 -42.1582,6.7078 -68.6329,11.6126 4.964,-34.15 9.8868,-68.0156 15.315,-105.3585 l -60.8722,-5.5325 c -0.7158,-11.7331 -1.3759,-22.55 -2.0359,-33.3677 l -1.4111,-0.0358 c -0.7447,11.1376 -1.4895,22.2752 -2.3122,34.5786 -5.394,0.332 -9.3691,0.7137 -13.35,0.8008 -44.33,0.9708 -43.1076,0.7528 -35.7056,46.4552 3.3005,20.3769 0.5576,41.77 0.5576,66.276 -23.2231,-19.7889 -23.2231,-19.7889 -75.7874,-19.7812 -43.3257,0.006 -59.6884,14.2021 -67.9284,57.7277 -1.3049,6.8934 -4.0129,16.8048 -8.8777,19.0738 -13.4642,6.28 -28.4117,9.2574 -43.6053,13.7886 -0.702,-6.76 -1.6194,-15.5949 -2.537,-24.43 -64.6852,-45.9819 -127.5736,-5.4594 -193.1378,0.9076 v 140.783 h -35.664 c 2.5984,-9.5783 4.8787,-17.9836 6.3,-23.2225 -12.9509,-6.04 -25.2368,-10.0418 -35.6976,-16.925 C 448.7018,261.1488 368.4863,232.9062 280.1242,231.071 185.353,229.1026 99.7627,259.4164 19.1453,308.15 c -21.49,12.991 -40.7354,33.4063 -69.5256,29.2829 -1.1358,-0.1626 -2.5343,1.5806 -3.8286,2.4542 -0.018,33.1851 -0.018,66.3517 -0.018,101.7026 h 33.2706 q 1175.9663,0 2351.9324,0.0433 c 11.5245,0.001 23.049,0.6516 34.5739,0.999 z"
           transform="translate(141.5726,-12.5786)"
           id="path3528" />
      </g>
      <g
         id="Layer_1"
         data-name="Layer 1" />
    </g>
  </g>
</svg>
