<?xml version="1.0" encoding="UTF-8" standalone="no"?>
<svg
   xmlns:dc="http://purl.org/dc/elements/1.1/"
   xmlns:cc="http://creativecommons.org/ns#"
   xmlns:rdf="http://www.w3.org/1999/02/22-rdf-syntax-ns#"
   xmlns:svg="http://www.w3.org/2000/svg"
   xmlns="http://www.w3.org/2000/svg"
   xmlns:sodipodi="http://sodipodi.sourceforge.net/DTD/sodipodi-0.dtd"
   xmlns:inkscape="http://www.inkscape.org/namespaces/inkscape"
   id="skyline"
   width="2419.7766"
   height="428.8813"
   viewBox="0 0 2419.7766 428.8813"
   version="1.1"
   sodipodi:docname="skyline.svg"
   inkscape:version="0.92.4 (5da689c313, 2019-01-14)">
  <metadata
     id="metadata13543">
    <rdf:RDF>
      <cc:Work
         rdf:about="">
        <dc:format>image/svg+xml</dc:format>
        <dc:type
           rdf:resource="http://purl.org/dc/dcmitype/StillImage" />
        <dc:title>skyline</dc:title>
      </cc:Work>
    </rdf:RDF>
  </metadata>
  <sodipodi:namedview
     pagecolor="#ffffff"
     bordercolor="#666666"
     borderopacity="1"
     objecttolerance="10"
     gridtolerance="10"
     guidetolerance="10"
     inkscape:pageopacity="0"
     inkscape:pageshadow="2"
     inkscape:window-width="678"
     inkscape:window-height="480"
     id="namedview13541"
     showgrid="false"
     inkscape:zoom="0.14960059"
     inkscape:cx="1209.8883"
     inkscape:cy="214.44064"
     inkscape:window-x="0"
     inkscape:window-y="0"
     inkscape:window-maximized="0"
     inkscape:current-layer="skyline" />
  <defs
     id="defs13534">
    <style
       id="style13532">.cls-1{fill:#383737;}</style>
  </defs>
  <title
     id="title13536">skyline</title>
  <path
     class="cls-1"
     d="M2365.55,442.632V250.87h-35.467V121.19l-29.1513-1.7385c-10.9238-8.9716-17.0006-18.008-23.8635-18.6777-11.0845-1.0815-31.6027,1.4357-32.4969,5.778-3.5162,17.0735-14.269,12.9848-24.0683,13.302-10.3957.3366-20.81.0756-33.854.0756V210.012l-6.7059,5.4589c-7.7624-6.126-15.2749-12.6284-23.39-18.2235-4.2246-2.9129-9.4067-5.59-14.34-5.9841-11.0749-.8849-22.2646-.2773-35.5087-.2773V96.6588c-4.1905,26.0651-4.65,52.108-4.02,78.1235.3841,15.8672-6.0818,18.9447-19.0933,13.9245-1.933-12.8074-1.64-34.3829-5.9523-35.3854-19.1474-4.4509-12.0588-17.9709-14.5169-28.9044-11.987-53.3178-4.2927-61.989-65.6927-59.8558-54.3106,1.8869-52.8091.7342-63.98,53.836-6.9345,32.9624-24.1908,63.1387-18.9428,99.3007,3.4176,23.5488.6441,48.0306.6441,73.7648-13.7864,0-24.3833.1575-34.9741-.0363-16.4732-.3014-31.3723-1.6184-42.7251,16.9191-10.16,16.59-38.14,19.296-47.142,4.235-16.2069-27.1147-22.8436-4.366-33.243-1.0913h-53.4808c-1.31-5.9222-2.677-12.1035-2.7271-12.33l-63.114-24.0117c-6.37-78.52,17.6493-158.5984-39.1166-228.6885h-137.435c-53.9288,76.3613-21.37,162.8386-33.7949,243.15h-53.3416V230.6407h-57.2421c-1.1849-11.7728-2.0749-20.6152-3.0464-30.2675h-37.5167c-.8065-6.6877-1.5353-12.7314-2.3992-19.8958h-60.788c-.9469-7.4446-1.732-13.6165-1.9794-15.5615-23.1788-7.2065-42.901-17.4232-63.0863-18.4833-20.854-1.0954-42.1582,6.7078-68.6329,11.6126,4.964-34.15,9.8868-68.0156,15.315-105.3585l-60.8722-5.5325c-.7158-11.7331-1.3759-22.55-2.0359-33.3677l-1.4111-.0358c-.7447,11.1376-1.4895,22.2752-2.3122,34.5786-5.394.332-9.3691.7137-13.35.8008-44.33.9708-43.1076.7528-35.7056,46.4552,3.3005,20.3769.5576,41.77.5576,66.276-23.2231-19.7889-23.2231-19.7889-75.7874-19.7812-43.3257.0063-59.6884,14.2021-67.9284,57.7277-1.3049,6.8934-4.0129,16.8048-8.8777,19.0738-13.4642,6.28-28.4117,9.2574-43.6053,13.7886-.702-6.76-1.6194-15.5949-2.537-24.43-64.6852-45.9819-127.5736-5.4594-193.1378.9076V349.9308H552.0133c2.5984-9.5783,4.8787-17.9836,6.3-23.2225-12.9509-6.04-25.2368-10.0418-35.6976-16.925-73.9139-48.6345-154.1294-76.8771-242.4915-78.7123C185.353,229.1026,99.7627,259.4164,19.1453,308.15c-21.49,12.991-40.7354,33.4063-69.5256,29.2829-1.1358-.1626-2.5343,1.5806-3.8286,2.4542-.018,33.1851-.018,66.3517-.018,101.7026h33.2706q1175.9663,0,2351.9324.0433C2342.5006,441.634,2354.0251,442.2846,2365.55,442.632Z"
     transform="translate(54.2269 -13.7507)"
     id="path13538" />
</svg>
