<?xml version="1.0" encoding="UTF-8" standalone="no"?>
<!-- Created with Inkscape (http://www.inkscape.org/) -->

<svg
   xmlns:dc="http://purl.org/dc/elements/1.1/"
   xmlns:cc="http://creativecommons.org/ns#"
   xmlns:rdf="http://www.w3.org/1999/02/22-rdf-syntax-ns#"
   xmlns:svg="http://www.w3.org/2000/svg"
   xmlns="http://www.w3.org/2000/svg"
   xmlns:sodipodi="http://sodipodi.sourceforge.net/DTD/sodipodi-0.dtd"
   xmlns:inkscape="http://www.inkscape.org/namespaces/inkscape"
   version="1.1"
   id="svg888"
   xml:space="preserve"
   width="308.31662"
   height="368.86996"
   viewBox="0 0 308.31662 368.86996"
   sodipodi:docname="concrete2.svg"
   inkscape:version="0.92.4 (5da689c313, 2019-01-14)"><metadata
     id="metadata894"><rdf:RDF><cc:Work
         rdf:about=""><dc:format>image/svg+xml</dc:format><dc:type
           rdf:resource="http://purl.org/dc/dcmitype/StillImage" /><dc:title></dc:title></cc:Work></rdf:RDF></metadata><defs
     id="defs892" /><sodipodi:namedview
     pagecolor="#ffffff"
     bordercolor="#666666"
     borderopacity="1"
     objecttolerance="10"
     gridtolerance="10"
     guidetolerance="10"
     inkscape:pageopacity="0"
     inkscape:pageshadow="2"
     inkscape:window-width="1433"
     inkscape:window-height="875"
     id="namedview890"
     showgrid="false"
     fit-margin-top="0"
     fit-margin-left="0"
     fit-margin-right="0"
     fit-margin-bottom="0"
     inkscape:zoom="0.63211061"
     inkscape:cx="89.701016"
     inkscape:cy="204.89955"
     inkscape:window-x="0"
     inkscape:window-y="0"
     inkscape:window-maximized="0"
     inkscape:current-layer="g896" /><g
     id="g896"
     inkscape:groupmode="layer"
     inkscape:label="concrete breaking2"
     transform="matrix(0,-1.3333333,-1.3333333,0,244.58076,628.69036)"><g
       id="g898"
       transform="matrix(792,0,0,612,-9.4920099,62.291315)"><path
         style="fill:#000000;stroke-width:0.00034473"
         d="m 0.3429451,-0.17978456 c -0.009136,0.008333 -0.0165488,0.0195208 -0.0229906,0.028697 6.7388e-4,0.0136845 -0.005127,0.0209094 -0.0131598,0.0296073 -0.003963,0.0146371 0.0175688,0.0183381 0.0124117,0.03471139 0.002268,0.01287212 0.0197115,0.01928824 0.0177511,0.03501191 0.009356,0.01119841 0.0279852,0.01286455 0.0345536,0.02599273 0.002039,0.01201143 0.0143614,0.02113816 -0.002929,0.02682469 C 0.3605191,-0.00655288 0.3550117,0.00949119 0.3472586,-7.87028e-4 0.3380346,0.0032517 0.3298008,0.01803667 0.3221922,0.01451054 c 0.005125,0.0046332 -0.005756,0.0246191 0.003627,0.0073779 C 0.3339572,0.01417304 0.344496,-0.00389667 0.3571139,0.00689318 0.3619819,-0.00253068 0.3744237,0.00861184 0.3797444,-0.00388813 0.39358,1.83125e-4 0.4001721,0.02056836 0.3915745,0.03277779 0.3868985,0.04764985 0.3785597,0.06407024 0.3610581,0.06577903 0.3450812,0.06955773 0.3321038,0.08320389 0.3234545,0.09730685 0.3149375,0.10830248 0.3065624,0.12936225 0.2981062,0.13283991 c -0.0109649,-0.0083 -0.0122445,0.006721 -0.0143822,0.01288 -0.0115943,-0.005358 -0.0115696,-0.0183547 -0.0126832,-0.0280494 5.9415e-4,0.0119345 -0.004587,0.008361 -0.0130139,0.0100367 0.009438,0.002223 0.0216438,0.017788 0.0238561,0.0267661 0.0089,-0.006424 0.001866,-0.0296859 0.0187906,-0.0169231 -1.3738e-4,0.0133234 0.003423,0.0291154 0.010932,0.0397009 -0.008747,0.0166457 0.0108512,-0.003694 -0.002042,-0.008512 0.006268,-0.0118317 0.028392,-0.006154 0.0279564,0.0101695 0.0113895,0.001763 0.0256375,-0.001692 0.0284828,0.0133189 0.002999,0.0105018 0.0175378,0.00397 0.003496,6.17e-4 C 0.3626308,0.18416551 0.3631228,0.17025781 0.3481255,0.17780091 0.3318168,0.18257791 0.3370881,0.15043001 0.3202466,0.16084311 0.2961959,0.16975811 0.3006053,0.13050991 0.3147456,0.12141181 0.3305259,0.10815821 0.3385936,0.08654456 0.355335,0.07587056 0.365342,0.07113576 0.377229,0.06901266 0.3857612,0.06230284 0.3917742,0.04657585 0.397535,0.02924455 0.4095913,0.01675909 0.4193123,0.00288076 0.4354182,6.593738e-4 0.4490537,0.00985413 c 0.0153682,0.01015482 0.0289811,-0.01186421 0.045133,8.2816e-4 0.002293,-0.00162459 0.008176,0.01007424 0.0163641,0.0062032 0.009212,0.0051485 0.002886,0.02529848 0.0184064,0.02509618 -0.001797,0.01587843 2.8383e-4,0.03183495 -2.876e-4,0.0477274 -0.008755,-0.01390108 4.6374e-4,0.02265619 0.001881,0.005837 0.005027,0.0012539 0.02081,0.009682 0.0193943,1.5872e-4 C 0.536873,0.10091229 0.5270853,0.08749239 0.534846,0.07374811 0.542333,0.07524251 0.5523865,0.06643971 0.536083,0.07054281 0.538422,0.06097731 0.539474,0.04454205 0.5525291,0.05075604 0.5439111,0.03760354 0.5365118,0.05781284 0.5337349,0.06577796 0.5302189,0.05443322 0.5431889,0.03262665 0.5253239,0.03384973 0.5188779,0.02322444 0.5219879,0.0060036 0.5034205,0.00875213 0.4906118,-0.00420181 0.5143504,-0.0224399 0.5140367,-0.0373483 c 0.005712,-0.01039218 0.006317,-0.03097151 0.0234376,-0.02101408 0.0134276,0.0020815 0.0200903,-0.03340727 0.0379249,-0.01456162 0.0121031,0.01471482 0.0230046,-0.0067499 0.0266354,-0.01665626 -0.006612,-0.01424912 -0.005254,-0.02889954 -0.001819,-0.042891 -0.001939,-0.008935 0.004173,-0.0131839 0.00712,-0.0225831 -0.001344,-0.008318 -0.0119546,-0.0137104 -0.004155,-0.0237601 -0.003343,0.0105808 -0.009915,-0.002504 -0.005528,0.009928 0.001007,0.00915 0.0139438,0.0161707 2.8088e-4,0.0238723 2.9717e-4,0.0131999 -0.002548,0.0262948 -0.003141,0.0394348 0.0110056,0.01517607 -0.002882,0.0345128 -0.0202307,0.02427518 -0.0165472,-0.0091215 -0.0246425,0.0058753 -0.0348424,0.01428265 -0.0222953,-0.0091485 -0.0246815,0.01576216 -0.0325037,0.02951352 -0.006288,0.0129638 -0.0125415,0.02593558 -0.020562,0.037867563 C 0.46345469,0.0081948 0.44043883,-0.00948543 0.41773781,-0.002443 0.40883354,-0.00171057 0.39950932,0.02396263 0.39903496,5.65243e-4 0.38557679,-0.00828109 0.37666191,-0.01959776 0.37539824,-0.03637637 c -0.008614,-0.0104349 -0.0272491,-0.01037498 -0.0322018,-0.02440137 -0.005393,-0.01591233 -0.0173533,-0.02752105 -0.0209306,-0.04432784 -0.0119123,-0.00193 -0.0202576,-0.0210507 -0.004101,-0.0220713 0.001645,-0.0168814 0.007383,-0.0295198 0.0175787,-0.0405247 4.8389e-4,-0.0102014 0.0176641,-0.001575 0.008998,-0.0101083 l 8.3665e-4,-0.002081 z"
         id="path1445"
         inkscape:connector-curvature="0" /></g></g></svg>