<?xml version="1.0" encoding="UTF-8" standalone="no"?>
<!-- Created with Inkscape (http://www.inkscape.org/) -->

<svg
   xmlns:dc="http://purl.org/dc/elements/1.1/"
   xmlns:cc="http://creativecommons.org/ns#"
   xmlns:rdf="http://www.w3.org/1999/02/22-rdf-syntax-ns#"
   xmlns:svg="http://www.w3.org/2000/svg"
   xmlns="http://www.w3.org/2000/svg"
   xmlns:sodipodi="http://sodipodi.sourceforge.net/DTD/sodipodi-0.dtd"
   xmlns:inkscape="http://www.inkscape.org/namespaces/inkscape"
   version="1.1"
   id="svg2110"
   xml:space="preserve"
   width="579.45386"
   height="1009.8875"
   viewBox="0 0 579.45386 1009.8875"
   sodipodi:docname="3.svg"
   inkscape:version="0.92.4 (5da689c313, 2019-01-14)"><metadata
     id="metadata2116"><rdf:RDF><cc:Work
         rdf:about=""><dc:format>image/svg+xml</dc:format><dc:type
           rdf:resource="http://purl.org/dc/dcmitype/StillImage" /><dc:title></dc:title></cc:Work></rdf:RDF></metadata><defs
     id="defs2114" /><sodipodi:namedview
     pagecolor="#ffffff"
     bordercolor="#666666"
     borderopacity="1"
     objecttolerance="10"
     gridtolerance="10"
     guidetolerance="10"
     inkscape:pageopacity="0"
     inkscape:pageshadow="2"
     inkscape:window-width="1288"
     inkscape:window-height="891"
     id="namedview2112"
     showgrid="false"
     fit-margin-top="0"
     fit-margin-left="0"
     fit-margin-right="0"
     fit-margin-bottom="0"
     inkscape:zoom="0.8939394"
     inkscape:cx="417.00729"
     inkscape:cy="477.30004"
     inkscape:window-x="0"
     inkscape:window-y="0"
     inkscape:window-maximized="0"
     inkscape:current-layer="g2118" /><g
     id="g2118"
     inkscape:groupmode="layer"
     inkscape:label="concrete breaking2"
     transform="matrix(0,-1.3333333,-1.3333333,0,-40.994076,997.30739)"><g
       id="g2120"
       transform="matrix(792,0,0,612,4.746005,-29.662531)"><path
         style="fill:#000000;stroke-width:0.00034473"
         d="m 0.3274414,-0.71160972 c -0.0195325,0.0230168 -0.009193,0.0622654 0.0245012,0.0463666 -0.005299,0.007573 0.017173,0.0317217 0.0154397,0.0232545 -0.0161284,-0.0146323 -0.00737,-0.0330907 -0.034707,-0.0230336 -0.0288974,-0.004344 -0.00423,-0.0330025 -0.005234,-0.0465875 z m 0.32028094,3.1561e-4 c -0.0176091,0.017888 0.0136882,0.0482622 -0.0139613,0.0580319 -0.020698,0.0216152 -0.003003,0.0566797 -0.0115163,0.0833099 0.003673,0.0205866 -0.0371696,0.0466022 -0.0313929,0.009805 0.008181,-0.0134255 -0.0102486,-0.0485567 -0.0154998,-0.0405846 0.0167683,0.0166629 0.0170193,0.0526627 0.0176512,0.0751643 -0.004699,0.019061 -0.0126384,0.0510855 -0.0374243,0.0479439 -0.0217551,-0.001486 -0.0341706,-0.0269793 -0.056213,-0.0219228 -0.0218524,0.013376 -0.036339,-0.0245568 -0.0527278,-0.0117776 -0.0174381,0.0123099 -0.0375143,0.0229 -0.0453497,0.0441746 -0.0271825,-0.0160893 -0.0142121,-0.0473353 -0.0179372,-0.0673583 -0.0113841,-0.0133714 0.006203,-0.04152 0.0125862,-0.0554901 0.0203889,0.0137162 0.0478199,-0.024283 0.0147244,3.0742e-4 -0.0168038,-1.5723e-4 -0.0263647,-0.005664 -0.03406,-0.0217375 -0.011601,-0.0113572 -0.004412,-0.0427518 -0.008452,-0.008376 0.0201283,0.0172076 0.0217839,0.0389622 0.00843,0.0609134 -0.009476,-0.004594 -0.0273743,-0.0317336 -0.0414505,-0.0163459 0.0161688,-0.007323 0.0385442,0.010937 0.0375723,0.0266425 -0.002676,0.0147504 0.0100536,0.0258034 -0.002031,0.0425977 -0.0100237,0.015158 0.0138902,0.0243841 0.0179013,0.038601 0.0124388,0.0127876 -0.003045,0.0321321 -0.0141859,0.0395999 -0.0206582,0.009582 -0.0404063,-0.0091 -0.0596715,-0.006609 -0.0136875,0.0207256 -0.0150808,0.0157025 -0.0241337,-0.003363 -0.0203252,-0.004509 -0.0168112,-0.0312005 -0.031048,-0.038315 -0.0303704,-0.003686 -0.0361053,-0.0378347 -0.0488117,-0.0604127 -0.0206458,-0.0172154 0.001744,-0.032823 0.004878,-0.0530744 0.002023,-0.0114159 0.0305767,-0.0308968 0.0206265,-0.0268654 0.0082,-0.0329019 -0.0113001,0.0137258 -0.0210244,0.0240263 -0.001008,0.0195096 -0.028822,0.0371262 -0.0103002,0.0561941 0.008352,0.0197169 0.0119128,0.0324932 0.0243707,0.0481625 0.001078,0.0214906 0.0379043,0.0112554 0.0372529,0.0355528 0.0149066,0.0278596 -0.0281,0.004015 -0.0371191,0.0202949 -0.0163422,0.003413 -0.0128077,0.009561 -0.009467,0.0138523 0.005591,-0.0127274 0.0230734,-0.0231871 0.0337191,-0.0145745 0.0173441,-0.0157221 0.0384853,0.002583 0.0392475,0.0211584 -0.005127,0.015877 -0.0160168,0.0431487 -0.0385359,0.0304278 -0.0294924,0.003233 -0.0541458,-0.004431 -0.0649768,-0.0334218 -0.006719,-0.0184148 -0.0200635,-0.0149403 -0.0354789,-0.00832 -0.0305714,0.0166189 -0.0343579,-0.0312877 -0.05554615,-0.0331135 -0.0036919,-0.0315569 -0.03687223,-0.009472 -0.03427633,-0.0467148 -0.0039685,-0.0105718 0.008303,0.0387689 -0.0190057,0.00368 -3.5446e-4,-0.0208443 -0.02434634,-0.008278 -0.02654758,-0.0181672 -0.002259,0.0185007 -0.02395947,0.00575 0.0029699,0.0150322 -0.01126608,-0.0110097 0.03030228,-0.008398 0.02488466,0.0102308 0.02492503,-0.003422 0.01852452,0.0335111 0.04091345,0.0176913 0.008038,0.0202296 0.01273322,0.030675 0.03113064,0.0342949 0.008654,0.0144401 -0.02488708,0.0357985 -0.03345902,0.0172537 -0.01201773,-0.0300352 -0.02888942,0.008233 -0.04112654,-0.0251818 -0.0092605,-0.003622 -0.01444368,-0.0203306 -0.02615944,-0.023371 -0.0034808,-0.0128829 -0.02186819,-0.0149704 -0.0171083393,-0.0261549 0.001517019,0.022943 -0.0283245207,0.004252 3.411603e-4,0.0186279 0.020563709,-0.003388 0.014514409,0.0199812 0.031134309,0.0237252 1.7691e-4,0.0178886 0.0219297,0.005284 0.02748956,0.0299196 0.02969659,-0.0308062 0.02478167,0.0328429 -0.0021844,0.039417 -0.01622124,0.003768 -0.04778671,-0.0196523 -0.05365433,-0.003882 -2.8758e-4,0.0415043 -0.00492822,-0.0247519 0.02417145,8.6603e-4 0.03061901,0.003448 -0.0046155,0.003268 0.0073509,0.028203 -0.0347893689,-0.002906 -0.0056831,0.0396079 -0.02539107,0.0534213 0.01280328,-0.011997 0.00838268,0.0160594 0.01011663,-0.0148634 -0.01017261,-0.0249917 0.0091678,-0.0307125 0.01699971,-0.0428837 -0.0065664,-0.0259444 0.03607208,-0.012775 0.04080448,-0.0429419 0.0064028,-0.0210134 0.016903,0.0179073 0.02906643,-0.005283 0.002555,0.0213697 0.0194814,0.0610775 -0.01434271,0.0365116 0.0027107,0.0275673 0.0046608,0.0397553 -0.01887494,0.0303704 -0.01029029,-5.9887e-4 -0.0018517,0.0297816 -0.0020077,0.0197741 -0.0073742,-0.0370346 0.03356921,0.008995 0.0237438,-0.0260768 -0.0074575,-0.0239713 0.0051089,-0.0236452 0.02071172,-0.0122135 0.005659,-0.0144124 -0.02024216,-0.0501685 0.003324,-0.0528656 0.0145287,0.0131856 0.0335911,0.001012 0.051288,4.9074e-4 0.022398,3.1205e-4 0.0138529,0.0458612 0.0367256,0.0480703 0.0222369,6.7802e-4 0.0620238,0.001651 0.0260396,0.0194656 -0.0197195,0.0117713 -0.0243612,0.0386646 -0.0418267,0.0510145 -0.0108978,0.0259066 -0.0295025,0.009308 -0.0261676,-0.004396 -0.0206218,-0.002481 0.0112782,0.0384251 0.0190928,0.0159238 0.0142985,-0.025365 0.009862,0.0215089 0.0181084,0.0323249 0.001534,0.0262983 -0.003361,-0.0128788 0.002711,-0.008554 0.020504,-7.0366e-4 0.029589,0.0106436 0.0469997,0.0181569 0.003763,0.0256175 0.0387923,0.008118 0.009136,0.0101434 -0.0117963,-0.0305697 -0.049198,-0.020123 -0.0629158,-0.040893 -0.006164,-0.0215259 0.0129926,-0.0365851 0.0233637,-0.0531602 0.0155503,-0.016634 0.0338984,-0.0315999 0.0562621,-0.036616 0.0175878,-0.0378195 0.006307,0.006348 5.3424e-4,0.0208381 -0.007508,0.0190747 0.0149082,0.0332694 0.0204594,0.050091 0.007477,0.0153577 0.0277163,0.0303341 0.0116809,0.0471587 -0.004899,0.0196585 -0.0308965,0.0348131 -0.0195691,0.0562655 6.8445e-4,0.0178242 0.0204667,0.0505826 -0.005273,0.0539059 -0.0196487,0.004963 -0.0499439,0.0266202 -0.0645827,0.0110552 -0.0128982,-0.0304545 -0.0432809,-0.004837 -0.0530191,-0.0395298 -0.009577,-0.0236709 -0.0401049,0.0350174 -0.0350216,-0.007058 -2.0747e-4,-0.0251273 -0.0274305,-0.0106922 -0.03422837,-0.0392683 -0.0070259,-0.0334287 -0.05041138,0.008676 -0.01799762,-0.0119076 0.01985657,0.0111519 0.0327183,0.0387479 0.04877375,0.0428812 -0.004796,0.0351579 0.0127802,0.030774 0.0308076,0.009929 0.008981,0.009491 0.0347918,0.0349185 0.00963,0.0341342 0.009729,0.0186003 -0.0226643,0.0231515 -0.008238,0.0322159 -0.006148,-0.0204014 0.0212627,-0.006784 0.0101027,-0.0313842 0.0257088,-0.0155987 0.0669435,0.008352 0.0460669,0.03861614 -0.007977,0.01865622 -0.0217949,0.03510477 -0.0222118,0.05587836 -0.0121334,-0.0193199 -0.0233814,-0.03441067 -0.0375585,-0.03055941 -0.0112969,-0.02428911 -0.0419031,-0.05101722 -0.06111156,-0.02940041 0.0059464,0.02944613 -0.01204488,0.02265205 -0.02731993,0.01750731 -0.0098935,-0.0067762 0.0029714,0.03537263 -0.0019472,0.02438253 0.0028321,-0.02341091 0.0092813,-0.02214666 0.0291977,-0.01367444 -0.0097891,-0.04767905 0.04440111,-0.03680503 0.0565395,-0.0032961 0.006226,0.02511116 0.025023,-0.01075933 0.0319235,0.02486479 0.018308,0.02177478 0.003045,0.01436974 -0.009331,0.01476 -0.007273,0.03858096 -0.0253064,-0.0054176 -0.0440224,-0.0055877 -0.0109888,0.01802313 -0.05877803,0.02333748 -0.0308336,0.02837947 -8.0483e-4,0.03017668 0.001642,-0.026174 0.025826,-0.02079275 0.02026,-0.02159105 0.0414511,0.04902491 0.0497547,0.001056 0.017162,0.0048219 0.018722,-0.0025962 0.031842,-0.01639445 0.0104299,-0.01682548 0.0127687,-0.03950825 0.0245536,-0.05525024 -3.0992e-4,0.02151525 0.002392,0.05063693 0.0196294,0.06423386 -0.0226539,-0.0015394 -0.0181011,0.0414927862 -0.0147452,0.02827953 -0.007181,-0.02123704 0.0379782,-0.02728451 0.005307,-0.04449027 -0.0143073,-0.01707291 -0.0151867,-0.06002994 0.0169958,-0.05782582 0.0245837,-0.002699 0.0472303,-0.020955 0.0721938,-0.0108348 0.0349939,-0.002132 -0.0082,0.04526 0.0274247,0.04733325 0.0102686,0.0052012 -0.0291161,-0.0087523 -0.0160959,0.01720918 0.005283,0.0213692 -0.033436,0.01100657 -0.0219351,0.02858774 0.005795,-0.01866611 0.0310081,-0.0022852 0.0245914,-0.03262347 -2.9457e-4,-0.02116657 0.0414597,-0.0050829 0.0437219,0.0047978 -0.004171,0.01822357 -0.0274129,0.05636273 -0.003744,0.03333362 0.0301886,0.02140403 -0.0245633,-0.01367309 0.003819,-0.02920369 0.0118714,-0.02590632 -0.0655514,-0.01481623 -0.0424626,-0.05302401 1.83e-6,-0.0271005 0.040344,-0.010748 0.0288909,0.009923 0.0246876,-0.0158692 0.0432568,0.02264746 0.029264,0.03894298 0.004954,-0.01247873 0.0357866,0.0015218 0.009709,-0.01024133 -0.006739,-0.02359763 -0.0169232,-0.03861757 -0.038823,-0.03396196 0.011648,-0.0308569 -0.0365125,-0.0146071 -0.0529966,-0.0247581 -0.0181229,-0.00872 -0.0161718,-0.0449587 -0.0250457,-0.0651297 0.006133,-0.02217 0.0179147,-0.0427711 0.0288339,-0.0631352 -0.003575,-0.0176842 -0.0183204,-0.0321291 -0.0261194,-0.048679 -0.0134304,-0.0164821 -0.0157085,-0.0361538 -0.007647,-0.0557291 0.004637,-0.0211333 0.003673,-0.0661861 0.0363226,-0.055071 0.0301316,0.001073 -0.00334,0.0305323 0.00942,0.0464874 -0.0233846,0.0264246 0.0202993,0.0424572 -0.004804,0.0658106 6.4425e-4,0.0133932 -0.0259351,0.0267796 -0.006415,0.0191235 0.007205,-0.0394743 0.0253791,-5.2537e-4 0.0352708,0.0154346 0.0122611,0.0225497 -0.005899,0.0353958 0.00715,0.0596691 0.003634,0.0205534 -0.0344518,0.0239261 -0.003979,0.019938 0.00324,0.0100942 0.0127693,-0.0395381 -0.003278,-0.0486425 0.0243691,-0.015246 -0.007731,-0.0428511 -0.0167546,-0.0599682 -0.0134921,-0.0160047 0.0111676,-0.0323292 -0.0127967,-0.0476792 0.0105496,-0.0186948 0.006691,-0.0353862 0.007867,-0.0520528 0.002632,-0.0219481 0.0296555,-0.0163546 0.0436383,-0.0231912 0.008446,0.0170339 0.009633,0.0442464 0.004946,0.0619233 -0.006186,0.0218936 0.0241038,0.0535291 0.002529,0.016355 0.001288,-0.0214789 0.002948,-0.0427868 7.0802e-4,-0.066471 0.0185618,-0.007331 0.0216444,0.0214713 0.0289511,0.0276476 -0.00259,0.0203862 0.006381,0.0414335 8.2906e-4,0.0607081 0.005918,-0.0139469 0.0263978,0.004647 0.00507,-0.0120719 -0.00615,-0.0252471 0.006645,-0.0148463 1.5755e-4,-0.0292943 0.008255,-0.0106178 0.01707,-0.0192825 0.002252,-0.0115249 -0.0132366,0.0348711 0.003104,-0.0313202 -0.0180504,-0.0233088 0.00145,-0.0218373 -0.0436761,-0.017855 -0.0161875,-0.0444718 0.009952,-0.0130784 0.0162146,-0.0490581 0.0371254,-0.039688 0.0278114,0.001772 0.0122656,0.0292172 0.008855,0.0289203 7.7811e-4,0.0282964 0.0113211,-0.0317807 0.0124044,-0.005542 -0.006144,0.0350241 0.0141569,0.0255366 0.0306074,0.0170576 0.008611,0.0155298 0.001092,0.055454 9.7355e-4,0.054345 0.007331,-0.0160017 0.004062,-0.0302964 0.0209023,-0.0170366 -0.0274564,-0.001701 -4.3822e-4,-0.0532605 -0.023441,-0.0479854 -0.0314454,0.0236137 -0.0156554,-0.0163401 -0.0306786,-0.0261736 -0.0381411,-0.0111372 0.0104335,-0.03513 0.0203836,-0.007073 0.006999,0.0133875 0.0241464,-0.009099 0.036512,-0.004106 0.0148645,0.009078 0.0290149,0.0196597 0.0450204,0.0265804 -0.002318,0.0280229 -0.0220626,0.01336 -0.0110809,0.0417265 0.005821,0.0152279 -0.0245726,0.0110404 -0.0101005,0.0335207 -0.0217749,-0.009088 -0.0199092,0.0298085 -0.0271151,0.0262082 0.0185708,0.005303 0.00314,-0.0361502 0.0299424,-0.0231232 -0.0148997,-0.0269575 0.0237992,-0.0225408 0.006041,-0.049434 0.005052,-0.010412 0.0255961,0.0150767 0.0382025,0.0181841 0.0176295,0.0148791 -0.0298371,0.0366784 -0.0207691,0.055569 0.0146455,0.0214183 0.007556,0.0411638 -0.009055,0.0587958 -0.0116791,0.0224487 -0.0183756,-0.0216252 -0.0288714,-0.009823 -0.0120609,0.002304 0.0215074,-9.3364e-4 0.009748,0.0202673 -0.0158898,0.00782 -0.0504085,0.007399 -0.0625101,-0.0192693 -0.0236407,0.007267 0.0276005,0.006692 0.006471,0.0327443 -0.00614,0.0187414 -0.0289305,-0.0224702 -0.0322811,0.0108518 -0.0126436,-0.003927 -0.0234988,0.003639 -0.035545,0.008251 0.004423,1.6035e-4 0.025366,-0.001371 0.0300896,-0.008914 0.008139,0.007182 0.028672,-0.0263202 0.0275393,0.001017 0.013067,0.0150086 -0.00944,0.0124502 0.008823,0.0278196 -0.0202357,0.00648 0.0145442,0.0316838 -0.0140019,0.0318698 -0.007563,0.009158 0.0324495,-0.00653 0.009057,-0.019619 0.00496,-0.0110066 0.00614,-0.0142693 -8.9004e-4,-0.0255652 0.006677,-0.002887 0.003928,-0.0556307 0.0332042,-0.0310447 0.0119621,0.001239 -0.009596,0.0104209 0.006598,0.02114 -0.0200151,0.004485 0.007714,0.0355499 -0.005184,0.004981 0.0130884,-0.005274 -0.005371,-0.0401691 0.0255445,-0.0250291 0.009257,-0.0352908 0.0289228,0.006824 0.0278617,0.0256156 0.0101636,0.0221006 -0.0114132,0.037838 -0.0199556,0.0558845 -0.0209778,0.0135399 0.0243147,0.0256346 0.003808,0.0323802 6.3708e-4,0.0209715 -0.0123718,0.033173 -0.0143157,0.0515424 -0.0123819,0.005988 -0.0254434,-0.0066 -0.0268569,0.0145111 0.0190894,-0.0326157 0.0254307,0.0196848 0.001672,0.02511106 0.00966,-0.01165663 0.0234117,-0.005545 0.0248284,0.0033177 -0.003823,-0.01179457 -0.015352,-0.03214319 0.001655,-0.04175883 0.0154519,-0.0242274 0.0216949,0.05009313 0.0178511,0.0119112 0.002132,-0.0131266 -0.0282498,-0.0297574 -0.007327,-0.0409375 -0.002699,-0.0193996 0.0238194,-0.0447137 0.0370767,-0.0164061 -0.0149111,0.014143 0.006586,0.0527857 0.008006,0.0383665 -0.0237473,-3.6503e-4 -0.004292,-0.0530802 0.004347,-0.0182558 0.0132083,2.0613e-4 0.0235065,0.0400693 0.0117164,0.007182 -0.002827,-0.0300385 0.0307413,-0.002253 0.0282929,0.0129263 0.003601,0.02760763 -0.003456,-0.034744 0.007887,-5.208e-5 0.0267863,0.0147655 -0.008705,-0.0192794 -0.0174711,-0.0205818 -0.0161962,-0.0188958 -0.004631,-0.0341825 -0.005875,-0.0508274 -0.008556,-0.0249427 -0.0422837,-0.0181362 -0.0384901,-0.0422781 -9.6379e-4,-0.0173967 -0.0224166,-0.0423914 -0.009956,-0.0602756 0.0148845,-0.0225381 0.0161839,-0.0199451 0.0303712,-0.006722 -0.008281,0.0192874 0.0212973,0.0186698 0.0143234,0.033542 0.0320909,0.004493 -0.0102556,0.0319837 -0.0170347,0.0176515 0.004897,0.0112906 0.009732,0.0127323 0.0256983,-7.1537e-4 0.0250903,9.0884e-4 -0.003691,0.0332133 0.0228598,0.0386746 -0.00273,0.0302045 0.0348821,0.0159381 0.0415669,0.0340605 -0.003958,0.0210084 -0.004827,0.0285082 0.003907,0.00685 0.0216139,0.0136914 -0.012358,-0.0189581 -0.0174518,-0.0205377 0.005509,-0.014213 0.0216603,-0.0227822 0.001274,-0.0368398 0.008128,0.0119704 0.0103857,0.0213556 -0.004026,0.0260797 -0.003923,0.0270969 -0.0262003,-0.00734 -0.0279634,-0.019733 -0.0218067,-0.003647 0.009363,-0.0297301 -0.0150777,-0.0345726 7.951e-4,-0.0241022 0.0370453,-0.009405 0.0367773,0.008982 -0.0107244,-0.0197657 0.026253,-0.008201 -0.004837,-0.0155712 -0.008759,-0.0167603 -0.0505899,0.007796 -0.0468154,-0.0203435 -0.0175537,-6.4887e-4 -0.006727,-0.0231362 -0.0219472,-0.0257481 0.001806,-0.0167488 -0.0128712,-0.0380992 -0.0144423,-0.05799 0.005037,-0.0150637 0.0315621,-0.0664622 0.0252376,-0.0193652 0.0129031,0.0146793 0.0327954,0.0241451 0.0340805,0.046423 0.0132999,0.0228668 -0.0199955,-0.0412676 0.0116763,-0.0197792 0.0104431,0.008626 0.0172688,0.022434 0.0310629,0.0302309 0.009919,0.0251158 -0.007645,0.0313986 0.010744,0.0523806 0.00573,0.012505 -0.007708,0.0224099 0.007613,0.0079 -0.009222,-0.0203273 -0.0183737,-0.0279339 -0.0128281,-0.0497105 -0.00109,-0.0214863 -0.0260369,-0.026017 -0.0317523,-0.0408495 -0.0203597,-0.002753 -0.0381678,-0.0132102 -0.0493854,-0.0307852 0.006748,-0.0209518 -0.008454,-0.0309477 -0.0236811,-0.0426276 -0.0259304,-0.008795 -0.008522,-0.0475036 -0.004005,-0.009115 0.0242623,0.012814 0.0533412,0.0157302 0.0773892,0.0299954 0.00379,0.0241757 0.0139025,0.0382791 0.0401528,0.0396513 0.0333491,-2.949e-5 0.0215285,0.0311355 0.0281206,0.0512694 0.0132111,0.00782 0.0559169,-0.002321 0.026737,0.0216489 -0.004886,0.0218673 -0.0234439,0.0391812 -0.027031,0.0605303 0.009889,0.008185 0.0551532,-0.009594 0.0302543,0.0110209 -0.0265182,0.018659 0.004259,0.0238973 0.0249492,0.0193874 0.0220475,0.001978 0.0475451,-0.003662 0.0665153,-0.008208 -0.006986,0.0142056 -0.0322284,0.0189967 -0.0226219,0.038827 0.0229725,0.0230441 -0.0276399,-0.007935 -0.0329311,0.005047 -0.003531,0.0302445 -0.0360251,0.004595 -0.0458442,0.0251761 -0.006046,0.0168742 -0.0377993,0.002716 -0.0346515,0.0201327 0.013592,-0.0200048 0.0279157,0.003383 0.037259,-0.0194838 0.0149215,-0.0155641 0.0430044,0.006015 0.0473538,-0.027427 0.0189059,0.006181 0.0502687,0.005207 0.0193971,0.0268445 -0.00747,0.0141027 -0.0387198,0.0377135 -0.0164348,0.05024316 0.0226954,0.02171336 0.008971,0.0046215 -0.00395,-0.0089382 0.0114431,-0.0272116 0.0381763,-0.04498 0.0485042,-0.0720054 -0.027773,-0.0108114 0.0152871,-0.0280235 0.013172,-0.046833 -0.0270613,-0.007113 -0.0543041,0.0110598 -0.0822494,0.008043 -0.0411499,0.0118319 0.0286555,-0.0405824 -0.023258,-0.0287673 -0.0235496,0.003844 -0.003474,-0.0176412 -0.001468,-0.028895 0.001116,-0.0158828 0.0229283,-0.0254935 0.0186373,-0.0408314 -0.007682,-0.0173725 -0.0432011,0.0104762 -0.0379702,-0.0244633 0.001407,-0.0229864 -0.0103138,-0.0327013 -0.0311912,-0.0370537 -0.0394497,-0.001334 -0.0185298,-0.0495703 -0.0556864,-0.0470459 -0.0221797,-0.008562 -0.0544986,-0.0117993 -0.0620144,-0.0381314 0.0306359,-0.0159484 0.0468151,0.0119095 0.0477631,0.0253697 -0.0213705,-0.0292728 0.0173849,-0.0409777 0.0189795,-0.009554 -5.292e-5,0.0153273 0.009695,0.0120888 0.0176948,0.00418 0.0157932,-0.0139514 0.0339044,0.001155 0.0468218,0.012462 0.015451,-0.002456 0.008487,-0.0522054 0.0313252,-0.0496399 0.02404,0.001838 0.0247858,0.0273744 0.0402461,0.0391741 -0.0243291,2.8036e-4 0.001696,0.0326266 0.0134257,0.036045 0.0196998,0.0146566 0.003331,0.0339793 -0.0126765,0.0163629 -0.003938,0.0192748 -0.0203042,0.0410938 -4.793e-4,0.0150865 -0.001128,-0.0341169 0.033971,0.037596 0.0115338,-0.003929 0.0311555,-0.005236 -0.001593,-0.0339117 -0.0137001,-0.0443032 -0.010915,-0.0186706 0.0133449,-0.0194133 -0.009334,-0.0366364 -0.006424,-0.014612 0.006595,-0.030715 0.0119288,-0.0440137 0.00795,0.0128612 0.0145018,0.0278704 0.022349,0.0401575 0.014444,0.003685 0.0166186,-0.016575 0.0224002,-0.0255881 0.0161309,-0.017615 -0.0167804,-0.0485621 0.0137007,-0.0528019 0.020006,0.005277 0.0161102,0.0378241 0.0258076,0.0418334 0.0148922,-0.011371 0.009725,0.027769 0.0241657,0.0137156 2.2607e-4,0.0163963 0.009683,0.0484874 -0.0145795,0.0478079 -0.001191,0.0109875 0.0251942,-0.0208519 0.0236529,0.010131 -0.0104169,0.006355 -0.0310619,0.0379492 -0.0205551,0.0355102 0.001765,-0.0221415 0.0345687,-0.0314969 0.017053,-0.0577113 0.0155109,-0.0443843 0.0108133,0.0117409 0.0191833,0.0194515 0.004573,-4.5738e-4 -0.007395,0.0727671 0.001213,0.0201027 3.0037e-4,-0.0125709 0.009755,-0.0356767 -0.004421,-0.0236504 7.0832e-4,-0.0235051 -0.003256,-0.0561989 -0.0168002,-0.0179967 9.7351e-4,-0.0126793 -0.0194236,-0.0610984 0.011524,-0.0508305 0.016342,0.003987 0.0290179,-0.0203763 0.0184802,-0.0237146 0.006256,0.0306168 -0.0151137,-0.00617 -0.0104507,0.0195468 -0.0190947,-0.001943 -0.027554,0.004594 -0.034809,0.0200931 0.002786,-0.0297086 -0.0203011,-0.006791 -0.0182242,-0.0356007 0.005467,-0.0139014 0.0146889,-0.0265885 0.0219492,-0.0397146 -0.0115471,-0.004549 -0.0154225,0.0223365 -0.0243719,0.0290698 -0.006282,0.005049 -0.0258664,-0.0277075 -0.040838,-0.00964 -0.009691,0.0220543 0.017356,0.0322576 0.001745,0.0524454 -0.004184,0.008105 -0.0150463,0.0239788 -0.0189568,0.00783 -0.006425,-0.0108484 -0.01324,-0.0220995 -0.0174173,-0.0341484 -0.0283709,-0.0211053 0.009035,-0.0128973 -0.001993,-0.020753 -0.008739,-0.006065 0.009146,-0.0232966 -0.006893,-0.00549 -0.0128807,-0.0161449 -0.0203112,-0.0258417 -0.0119029,-0.0459975 0.0164572,-0.0186575 -0.006243,0.005628 -0.0128363,-0.0141278 0.0192029,0.0120853 0.003869,0.0579104 -0.007084,0.0527874 -0.003469,-0.007886 -0.0138164,-0.028414 -0.0166516,-0.0173405 0.00724,0.0115065 0.0307372,0.0392816 0.0279222,0.005293 0.0222456,0.0101153 0.0168338,0.0383823 0.0209671,0.0562451 -0.00535,0.007625 -0.007198,0.0389124 -0.0185973,0.0227489 -0.007967,-0.009964 -0.02664,-0.0284226 -0.0299276,-0.004647 -0.0113432,0.008702 -0.008426,0.0619122 -0.0281935,0.0408321 -0.0190484,-0.008505 -0.0100938,-0.0249278 -0.0105089,-0.0396152 0.0148646,-0.007646 -0.0182424,-0.0311169 0.006267,-0.0354104 0.0387433,-0.006552 -0.0106688,0.002614 -6.9252e-4,-0.0231992 0.006468,0.0148172 -0.009407,0.0380731 -0.0194837,0.0219712 -0.0215645,-0.004364 -0.049804,-0.0206395 -0.0388646,-0.0472135 0.007076,-0.024301 -0.007699,-0.0589051 0.0141615,-0.0768604 0.0262816,-0.0023 0.0116493,0.0335617 0.0243266,0.0419759 -0.007738,0.0201182 -0.00115,0.030721 0.004541,0.0490229 0.002271,0.0379827 -0.001586,-0.018441 -0.005609,-0.0306415 0.00695,-0.0436202 0.034752,0.0424547 0.0163451,-0.011066 -0.0262928,-0.0126323 -0.0119574,-0.0343223 -0.0325721,-0.053977 -0.0204866,-0.0296352 0.0207969,-0.0400673 0.0298656,-0.0339274 -0.0206795,-0.009745 -0.0503434,0.0135542 -0.0302293,-0.0214951 0.007429,-0.002343 -0.002748,-0.004181 -0.00156,-0.002975 z m -0.002559,0.0553641 c -3.9248e-4,8.8132e-4 -9.7134e-4,-0.002333 0,0 z m 6.8303e-4,0.001491 c 3.953e-5,0.001243 -9.6297e-4,-0.001103 0,0 z m -0.0170114,0.0408284 c -6.2826e-4,0.002019 8.689e-5,-0.001009 0,0 z m -0.001248,0.003373 c -7.0574e-4,-3.2182e-4 0.001089,-0.001461 0,0 z m -0.23882548,0.0158258 c -0.001453,7.1536e-4 -9.1426e-4,-0.001909 0,0 z m 0.48327161,0.0358165 c -0.001563,0.002274 0.001133,-0.002585 0,0 z m -0.24584737,0.0125878 c 0.0111089,0.0184857 0.0341075,0.0198311 0.0470379,0.031745 0.0161538,0.0116432 0.0046,0.0451714 -2.25e-6,0.0542332 -0.0157132,0.0105273 -0.0382415,0.0168506 -0.0332805,-0.0121354 -0.0179404,-0.008116 -0.0354108,-0.003385 -0.0490186,-0.0111001 -0.006768,-0.004245 0.006172,-0.0300927 0.008521,-0.0411931 0.004335,-0.0129439 0.0161659,-0.016799 0.0267427,-0.0215496 z m -0.60521732,0.0327141 c -0.0013305,0.0100023 -0.0017293,-0.009673 0,0 z m 0.56430314,0.0316768 c 0.0287284,-0.003679 0.0121945,0.0160965 -0.007773,0.005726 0.001287,-5.4786e-4 0.006764,-0.009276 0.007773,-0.005726 z m 0.0501566,0.0593413 c -0.00156,-3.1077e-4 -0.00173,-0.00195 0,0 z m 0.001143,9.494e-5 c -8.1913e-4,0.001722 -8.1955e-4,-0.002212 0,0 z m 0.0229353,0.0283359 c -0.001233,0.001486 2.172e-5,-0.002069 0,0 z m -0.0581608,0.008525 c -0.001269,2.865e-4 9.51e-6,-0.001337 0,0 z m 0.0742213,0.002064 c -0.002652,-7.98e-6 4.127e-5,-0.001219 0,0 z m 0.0411752,0.0318505 c -0.001155,0.002854 -9.2584e-4,-0.004432 0,0 z m 6.5391e-4,0.003804 c -5.1301e-4,7.8005e-4 -7.4427e-4,-0.001431 0,0 z m 1.5367e-4,0.001181 c -7.657e-4,0.001383 -3.3366e-4,-0.001404 0,0 z m -1.01e-4,0.002532 c -2.7063e-4,0.001266 -6.77e-4,-9.6497e-4 0,0 z m 0.001212,0 c -2.7063e-4,0.001266 -6.77e-4,-9.6497e-4 0,0 z m -0.003011,4.5025e-4 c -0.001162,7.2025e-4 -3.0418e-4,-8.2964e-4 0,0 z m 0.0136174,0.0239399 c -0.001211,5.0188e-4 -9.3274e-4,-0.001601 0,0 z m 0.005253,0.0779569 c -5.9517e-4,0.001292 -9.5451e-4,-7.1687e-4 0,0 z m -0.16248764,0.0127995 c -5.036e-5,0.0202744 0.0327814,0.0121005 0.0391452,0.0379099 -0.005511,0.0118547 0.001945,0.0276078 -0.007028,0.0403354 -0.0245688,0.023462 -0.0206313,-0.0393816 -0.0529335,-0.0284544 -0.0140019,-0.007605 -0.007297,-0.0233505 0.002737,-0.0315872 0.003025,0.003984 0.0195955,-0.0331488 0.0180793,-0.0182037 z M 0.29277286,-0.69240055 c 0.003442,0.0218877 0.0382635,0.0117287 0.005113,0.008726 -0.009082,0.003907 3.9926e-4,-0.0113764 -0.005113,-0.008726 z m 0.29255412,0.081536 c -0.008139,0.0167224 0.007291,0.005366 0,0 z m -0.0930941,0.002511 c 0.005853,0.0201577 -4.4242e-4,0.0413669 -0.00226,0.055869 0.006054,0.003298 -0.0109549,0.0263111 -3.1414e-4,0.0421424 -0.0255602,0.0213663 0.0158476,-0.002499 -0.001831,-0.0203932 -0.0101265,-0.0192027 0.0412435,-0.0210101 0.0261643,-0.0244681 -0.0104631,0.001711 0.005374,-0.0118834 -0.0154453,0.006035 -0.0216033,-0.008752 0.008198,-0.0190098 -8.8022e-4,-0.0334457 -0.00951,-0.0237952 0.0124701,-0.0174268 -0.005433,-0.0257396 z m -0.15139981,0.0156712 c 0.001949,0.013125 0.0140458,0.0119227 0,0 z m -0.27328388,0.11959549 c 7.661e-4,0.001383 3.3327e-4,-0.001404 0,0 z m -0.0476164,0.0287255 c 0.01968305,0.0338375 -0.04468958,0.007163 -0.02653405,0.0269799 -0.02097383,0.0377912 -0.0022313,0.001709 0.01225685,-0.007662 0.03279443,0.0159668 0.00478652,-0.0204107 0.02892935,-0.0179895 -0.0047377,2.4084e-4 -0.01024404,-0.002425 -0.01465215,-0.001329 z m 0.69892752,0.0121737 c -0.0285766,0.005475 0.016139,0.002328 0.0135914,0.0271281 0.037222,-0.004003 -0.0169395,0.0354344 -0.005984,0.00379 -0.0188427,0.006532 -0.0198971,-0.0151816 -0.0163244,0.0132978 0.00417,-0.0260715 0.0182765,0.0136129 0.0317787,-0.002373 0.0188082,-0.0289699 -0.0169207,-0.007055 -0.0230619,-0.0418438 z m -0.0221547,0.0207675 c -0.009081,0.0316981 0.0107702,-0.002885 0.003512,8.5436e-4 l -0.001477,-7.8655e-4 -0.002036,-6.737e-5 z m 0.23905964,0.014099 c -0.0299168,-0.0170382 -0.0439285,0.0615394 -0.0279124,0.0169228 -0.002607,-0.018999 0.0304921,-0.007875 0.0279124,-0.0169228 z m -0.53306973,0.0758907 c -0.0249859,0.0223453 0.0148614,-0.00357 0.0132171,0.002905 -0.003616,6.7181e-4 -0.0100722,-0.006674 -0.0132171,-0.002905 z m 0.51273243,0.0790603 c -7.9776e-4,0.0307495 -0.0259664,-0.010762 -0.0323153,0.0264943 -0.01163,-0.0303999 -0.003266,-0.009536 -0.003418,0.001207 -0.003618,-0.0233135 -0.0331236,-0.0227992 -0.0274494,-0.0129463 0.0173097,-0.0209708 0.026224,0.0362431 0.0468896,0.0125682 0.002134,0.0190001 0.0313398,-0.001187 0.0218826,0.0278308 0.0127044,0.0110015 -0.0179071,0.0319376 -0.001549,0.0394505 -0.0108056,-0.0303111 0.036872,-0.0165117 0.003657,-0.0346208 0.004905,-0.0133074 -0.003074,-0.0319688 -0.0191631,-0.0269041 -0.001371,-0.0236806 -0.0315374,0.0119269 -0.0120961,-0.0171234 0.0107298,-0.0197614 0.0242974,0.0207286 0.0252631,-0.0131376 0.002456,-8.7716e-4 5.78e-5,-0.004938 -0.001702,-0.002819 z m 0.0119697,0.007323 c 3.3332e-4,0.001404 7.6608e-4,-0.001383 0,0 z m -9.5091e-4,0.002438 c -4.9381e-4,0.00201 9.8995e-4,0.002982 0,0 z m -0.66447536,0.005471 c -0.0182776,0.0135204 -0.0145662,0.0341353 -0.0159198,0.0470619 -0.035843,0.009284 0.0339053,0.002449 2.8727e-4,-0.0230882 0.00338,-0.007064 0.0194005,-0.0161011 0.0156325,-0.0239738 z m 0.64104796,0.024384 c -0.008677,0.0179386 0.001188,0.011747 0.001958,2.6275e-4 z m -0.17016627,0.0618206 c 0.017477,0.0239229 -0.0331634,0.0286018 0.004091,0.0232965 0.005208,7.8902e-4 -0.002841,-0.0238325 -0.004091,-0.0232965 z"
         id="path2667"
         inkscape:connector-curvature="0" /></g></g></svg>