<?xml version="1.0" encoding="UTF-8" standalone="no"?>
<!-- Created with Inkscape (http://www.inkscape.org/) -->

<svg
   xmlns:dc="http://purl.org/dc/elements/1.1/"
   xmlns:cc="http://creativecommons.org/ns#"
   xmlns:rdf="http://www.w3.org/1999/02/22-rdf-syntax-ns#"
   xmlns:svg="http://www.w3.org/2000/svg"
   xmlns="http://www.w3.org/2000/svg"
   xmlns:sodipodi="http://sodipodi.sourceforge.net/DTD/sodipodi-0.dtd"
   xmlns:inkscape="http://www.inkscape.org/namespaces/inkscape"
   version="1.1"
   id="svg834"
   xml:space="preserve"
   width="155.68256"
   height="221.95052"
   viewBox="0 0 155.68256 221.95052"
   sodipodi:docname="concrete1.svg"
   inkscape:version="0.92.4 (5da689c313, 2019-01-14)"><metadata
     id="metadata840"><rdf:RDF><cc:Work
         rdf:about=""><dc:format>image/svg+xml</dc:format><dc:type
           rdf:resource="http://purl.org/dc/dcmitype/StillImage" /><dc:title></dc:title></cc:Work></rdf:RDF></metadata><defs
     id="defs838" /><sodipodi:namedview
     pagecolor="#ffffff"
     bordercolor="#666666"
     borderopacity="1"
     objecttolerance="10"
     gridtolerance="10"
     guidetolerance="10"
     inkscape:pageopacity="0"
     inkscape:pageshadow="2"
     inkscape:window-width="1680"
     inkscape:window-height="933"
     id="namedview836"
     showgrid="false"
     fit-margin-top="0"
     fit-margin-left="0"
     fit-margin-right="0"
     fit-margin-bottom="0"
     inkscape:zoom="1.4166667"
     inkscape:cx="33.156391"
     inkscape:cy="187.44243"
     inkscape:window-x="0"
     inkscape:window-y="1"
     inkscape:window-maximized="1"
     inkscape:current-layer="g842" /><g
     id="g842"
     inkscape:groupmode="layer"
     inkscape:label="concrete breaking2"
     transform="matrix(0,-1.3333333,-1.3333333,0,594.0283,948.11337)"><g
       id="g844"
       transform="matrix(-792,0,0,612,639.86314,-487.53647)"><path
         style="fill:#000000;stroke-width:0.00034473"
         d="m 0.0544969,1.3340136 c -0.005584,0.00161 -0.008092,0.00263 -0.009532,0.0039 -5.8491e-4,5.144e-4 -0.001377,9.352e-4 -0.00176,9.352e-4 -3.8321e-4,0 -7.8697e-4,3.043e-4 -8.9724e-4,6.762e-4 -1.1027e-4,3.719e-4 -0.001299,0.00211 -0.002642,0.00386 -0.004363,0.00569 -0.007138,0.00966 -0.007138,0.010215 0,2.983e-4 -1.2157e-4,5.423e-4 -2.7018e-4,5.423e-4 -1.486e-4,0 -3.5573e-4,4.412e-4 -4.603e-4,9.804e-4 -1.0458e-4,5.392e-4 -3.2391e-4,9.804e-4 -4.8743e-4,9.804e-4 -1.6348e-4,0 -2.9724e-4,3.242e-4 -2.9724e-4,7.205e-4 0,8.7e-4 -0.002058,0.00474 -0.003717,0.00699 -6.614e-4,8.965e-4 -0.00111,0.00182 -9.9776e-4,0.00206 1.126e-4,2.358e-4 7.512e-5,4.287e-4 -8.334e-5,4.287e-4 -1.5842e-4,0 -3.7606e-4,4.537e-4 -4.836e-4,0.00101 -3.2218e-4,0.00166 -8.8661e-4,8.668e-4 -0.001574,-0.00222 l -6.49e-4,-0.00291 7.2203e-4,-10e-4 c 3.9709e-4,-5.51e-4 7.22e-4,-0.0012 7.22e-4,-0.00145 0,-2.471e-4 1.7045e-4,-5.904e-4 3.7878e-4,-7.629e-4 3.161e-4,-2.616e-4 9.89e-4,-0.00212 0.001226,-0.00339 3.403e-5,-1.818e-4 -1.7175e-4,-5.297e-4 -4.5724e-4,-7.731e-4 -4.2785e-4,-3.648e-4 -6.6751e-4,-2.256e-4 -0.001364,7.918e-4 -4.6452e-4,6.788e-4 -0.001045,0.0016 -0.00129,0.00205 -2.4512e-4,4.474e-4 -5.4157e-4,8.134e-4 -6.5878e-4,8.134e-4 -1.1719e-4,0 -5.7634e-4,-9.265e-4 -0.00102,-0.00206 -4.4397e-4,-0.00113 -0.001127,-0.00258 -0.001517,-0.00321 -6.0385e-4,-9.771e-4 -7.8115e-4,-0.00107 -0.001186,-6.383e-4 -6.26e-4,6.723e-4 -5.9978e-4,0.00127 1.247e-4,0.00286 0.001803,0.00395 0.003119,0.010949 0.00312,0.016572 9e-8,0.00136 7.336e-5,0.00172 2.4e-4,0.00118 2.3115e-4,-7.559e-4 2.4061e-4,-7.536e-4 2.6112e-4,6.54e-5 1.182e-5,4.673e-4 -1.4915e-4,9.239e-4 -3.5748e-4,0.00101 -3.0185e-4,1.315e-4 -3.0079e-4,2.873e-4 5.15e-6,7.673e-4 3.16e-4,4.956e-4 2.6233e-4,9.063e-4 -3.0303e-4,0.00232 -3.7785e-4,9.44e-4 -7.7849e-4,0.00181 -8.9028e-4,0.00192 -1.1178e-4,1.1e-4 -2.9445e-4,6.702e-4 -4.059e-4,0.00124 -1.1146e-4,5.747e-4 -6.3849e-4,0.00172 -0.001171,0.00255 -0.001167,0.00181 -0.002037,0.0035 -0.0025,0.00486 -1.8888e-4,5.562e-4 -7.6894e-4,0.00124 -0.001289,0.00152 -5.2003e-4,2.787e-4 -9.4551e-4,6.444e-4 -9.4551e-4,8.125e-4 0,0.00119 -0.005448,0.0078 -0.00693,0.00841 -3.5497e-4,1.458e-4 -6.4536e-4,4.102e-4 -6.4536e-4,5.876e-4 0,4.907e-4 -0.002415,0.00185 -0.003836,0.00215 -6.9294e-4,1.497e-4 -0.001511,5.186e-4 -0.001818,8.197e-4 -3.0703e-4,3.011e-4 -9.5533122e-4,5.53e-4 -0.001441001,5.599e-4 -4.8536e-4,6.8e-6 -0.001575999,2.615e-4 -0.002423999,5.66e-4 -8.4797e-4,3.044e-4 -0.002496,8.472e-4 -0.003663,0.00121 -0.001167,3.589e-4 -0.002251,8.157e-4 -0.002409,0.00101 -1.5833e-4,1.993e-4 -6.03e-4,3.625e-4 -9.8815e-4,3.625e-4 -3.8515e-4,0 -0.001278,3.423e-4 -0.001985,7.608e-4 -7.0652e-4,4.185e-4 -0.001898,9.561e-4 -0.002648,0.0012 -0.001616,5.143e-4 -0.002623,9.828e-4 -0.004796,0.00223 -8.8786e-4,5.103e-4 -0.002797,0.00153 -0.004242,0.00226 -0.00326,0.00166 -0.004424,0.00241 -0.004923,0.00319 -2.1373e-4,3.333e-4 -7.8823e-4,8.734e-4 -0.001277,0.0012 -9.7812e-4,6.546e-4 -0.003934,0.00342 -0.004976,0.00465 l -0.001569,0.00186 c -4.9828e-4,5.932e-4 -0.00104,0.00108 -0.001203,0.00108 -1.634e-4,0 -3.4255e-4,1.324e-4 -3.9811e-4,2.941e-4 -5.55e-5,1.618e-4 -8.5095e-4,0.00109 -0.001768,0.00206 -9.1666e-4,9.706e-4 -0.001712,0.0019 -0.001768,0.00206 -5.556e-5,1.618e-4 -2.942e-4,2.942e-4 -5.3031e-4,2.942e-4 -2.3611e-4,0 -4.2929e-4,1.81e-4 -4.2929e-4,4.024e-4 0,2.213e-4 -0.0015,0.00231 -0.003333,0.00464 -0.001833,0.00233 -0.003334,0.0044 -0.003334,0.0046 -2e-7,1.959e-4 -3.0702e-4,8.309e-4 -6.8181e-4,0.00141 -3.748e-4,5.802e-4 -0.001136,0.00176 -0.001693,0.00262 -5.561e-4,8.618e-4 -0.001374,0.00227 -0.001818,0.00312 -0.002328,0.00449 -0.004697,0.00891 -0.004864,0.00908 -1.0411e-4,1.078e-4 -5.9277e-4,8.956e-4 -0.001086,0.00175 -4.9313e-4,8.55e-4 -0.001106,0.00187 -0.001362,0.00225 -2.5592e-4,3.824e-4 -7.6636e-4,0.00118 -0.001134,0.00178 -3.6796e-4,5.957e-4 -0.001016,0.00164 -0.001439,0.00232 -4.2372e-4,6.781e-4 -7.7039e-4,0.00136 -7.7039e-4,0.00151 0,1.512e-4 -3.0426e-4,8.279e-4 -6.7613e-4,0.0015 -5.7813e-4,0.00105 -0.001247,0.00306 -0.001949,0.00585 -9.487e-5,3.774e-4 -2.5886e-4,7.006e-4 -3.6442e-4,7.181e-4 -0.001093,1.814e-4 -0.002027,3.998e-4 -0.003823,8.938e-4 -0.003488,9.592e-4 -0.007482,3.95e-4 -0.009138,-0.00129 -8.3529e-4,-8.503e-4 -0.002365,-0.00109 -0.002685,-4.19e-4 -1.03e-4,2.157e-4 -5.1209e-4,3.922e-4 -9.0909e-4,3.922e-4 -3.9699e-4,0 -8.1589e-4,1.97e-4 -9.3088e-4,4.378e-4 -1.15e-4,2.408e-4 -2.5858e-4,0.00426 -3.1908e-4,0.00892 -6.05e-5,0.00467 -1.7533e-4,0.00885 -2.5517e-4,0.00929 -1.5151e-4,8.458e-4 -2.4733e-4,9.225e-4 -0.003571,0.00286 -0.001998,0.00116 -0.002435,0.00189 -0.001814,0.00301 2.7504e-4,4.939e-4 0.0017679,0.00136 0.0023421,0.00136 2.335e-4,0 0.001244,-8.824e-4 0.002245,-0.00196 0.001001,-0.00108 0.00201,-0.00196 0.002241,-0.00196 2.3147e-4,0 6.6767e-4,-3.53e-4 9.6933e-4,-7.844e-4 3.0167e-4,-4.313e-4 7.9476e-4,-7.843e-4 0.001096,-7.843e-4 3.0101e-4,0 8.318e-4,-3.952e-4 0.00118,-8.782e-4 4.9527e-4,-6.88e-4 5.9233e-4,-0.00118 4.4804e-4,-0.00229 -1.0131e-4,-7.76e-4 -1.724e-4,-0.0021 -1.5797e-4,-0.00294 1.442e-5,-8.439e-4 2.409e-5,-0.00189 2.145e-5,-0.00232 -2.73e-6,-4.314e-4 -2.12e-6,-0.00173 9.1e-7,-0.00289 3.12e-6,-0.00116 -1.6276e-4,-0.00237 -3.6865e-4,-0.00269 -0.001154,-0.0018 -2.123e-4,-0.00255 0.002043,-0.00162 0.002749,0.00113 0.004058,0.00146 0.004235,0.00109 8.825e-5,-1.848e-4 5.0576e-4,-1.661e-4 9.2779e-4,4.15e-5 9.8591e-4,4.851e-4 0.004052,6.245e-4 0.004742,2.155e-4 4.6724e-4,-2.773e-4 5.3465e-4,-6.49e-5 5.6692e-4,0.00179 8.385e-5,0.00481 3.5338e-4,0.0087 6.9746e-4,0.010069 1.2592e-4,5e-4 2.7886e-4,0.00156 3.3987e-4,0.00235 1.2306e-4,0.0016 4.4367e-4,0.00533 5.6321e-4,0.00654 1.4901e-4,0.00152 0.001024,0.00474 0.001644,0.00606 3.4459e-4,7.333e-4 5.5736e-4,0.00148 4.7283e-4,0.00165 -8.453e-5,1.77e-4 9.299e-5,3.225e-4 3.9449e-4,3.233e-4 9.9848e-4,2.7e-6 0.002524,0.00151 0.002704,0.00267 9.389e-5,6.075e-4 6.293e-4,0.00173 0.00119,0.0025 5.6052e-4,7.688e-4 9.5851e-4,0.00148 8.8443e-4,0.00157 -7.407e-5,9.58e-5 3.4153e-4,8.667e-4 9.2356e-4,0.00171 5.8202e-4,8.463e-4 0.001058,0.00182 0.001058,0.00216 2.6e-7,6.724e-4 -0.001964,0.00349 -0.002433,0.00349 -1.5546e-4,0 -3.7134e-4,4.572e-4 -4.7972e-4,0.00102 -1.435e-4,7.399e-4 -2.74e-5,0.00124 4.2715e-4,0.00182 5.5699e-4,7.208e-4 7.2444e-4,7.541e-4 0.001555,3.089e-4 5.2569e-4,-2.818e-4 9.3071e-4,-7.907e-4 9.3071e-4,-0.00117 0,-3.688e-4 3.4091e-4,-9.066e-4 7.5758e-4,-0.0012 4.1666e-4,-2.886e-4 7.5757e-4,-6.714e-4 7.5757e-4,-8.506e-4 0,-4.263e-4 9.7005e-4,-0.00167 0.001949,-0.0025 0.001022,-8.664e-4 0.001017,-0.00233 -1.155e-5,-0.00344 -4.3416e-4,-4.69e-4 -9.9404e-4,-0.00114 -0.001244,-0.0015 -2.5013e-4,-3.546e-4 -8.5589e-4,-0.00121 -0.001346,-0.00191 -4.9024e-4,-6.966e-4 -0.001651,-0.00279 -0.002579,-0.00465 -9.2824e-4,-0.00186 -0.001941,-0.00385 -0.002251,-0.00443 -3.1001e-4,-5.776e-4 -6.537e-4,-0.00181 -7.6378e-4,-0.00274 -1.1007e-4,-9.322e-4 -3.0302e-4,-0.00196 -4.2877e-4,-0.00228 -2.1546e-4,-5.543e-4 -5.3044e-4,-0.003 -7.3895e-4,-0.00573 -5.111e-5,-6.696e-4 -2.4473e-4,-0.00158 -4.3026e-4,-0.00203 -2.2784e-4,-5.509e-4 -2.425e-4,-0.00114 -4.516e-5,-0.00181 2.1464e-4,-7.306e-4 1.8664e-4,-0.00108 -1.0551e-4,-0.0013 -4.892e-4,-3.761e-4 -8.7455e-4,-0.00285 -8.1258e-4,-0.00521 4.255e-5,-0.00162 2.0911e-4,-0.00333 3.2441e-4,-0.00333 2.631e-5,0 9.434e-5,-4.412e-4 1.5121e-4,-9.804e-4 2.9622e-4,-0.00281 0.001179,-0.0069 0.001548,-0.00718 2.3134e-4,-1.725e-4 4.2063e-4,-4.884e-4 4.2063e-4,-7.021e-4 0,-4.391e-4 9.4089e-4,-0.00224 0.002235,-0.00428 8.0731e-4,-0.00127 0.001695,-0.00228 0.004423,-0.00502 5.7882e-4,-5.817e-4 0.001533,-0.00165 0.002121,-0.00237 5.8784e-4,-7.203e-4 0.001342,-0.00147 0.001675,-0.00167 3.3333e-4,-1.996e-4 0.001015,-7.113e-4 0.001515,-0.00114 5e-4,-4.258e-4 0.00108,-8.833e-4 0.001288,-0.00102 2.0833e-4,-1.333e-4 3.7879e-4,-4.626e-4 3.7879e-4,-7.318e-4 0,-4.792e-4 0.001738,-0.00256 0.002138,-0.00256 1.1137e-4,0 5.2827e-4,-8.294e-4 9.2643e-4,-0.00184 3.9816e-4,-0.00101 0.001205,-0.00247 0.001793,-0.00324 5.8815e-4,-7.657e-4 0.001264,-0.00201 0.001501,-0.00276 2.3729e-4,-7.549e-4 8.1291e-4,-0.00184 0.001279,-0.00241 4.6623e-4,-5.718e-4 8.4769e-4,-0.00123 8.4769e-4,-0.00147 0,-2.37e-4 1.8342e-4,-4.309e-4 4.0758e-4,-4.309e-4 5.1037e-4,0 0.001481,-0.00135 0.001216,-0.00169 -1.0755e-4,-1.392e-4 3.92e-5,-3.696e-4 3.2611e-4,-5.121e-4 4.7922e-4,-2.38e-4 0.008316,-0.010163 0.009186,-0.011635 2.0833e-4,-3.522e-4 3.7879e-4,-8.242e-4 3.7879e-4,-0.00105 0,-2.248e-4 2.2044e-4,-4.087e-4 4.8988e-4,-4.087e-4 3.407e-4,0 4.4163e-4,2.388e-4 3.314e-4,7.843e-4 -1.8837e-4,9.322e-4 6.163e-4,0.00111 8.8731e-4,1.961e-4 9.594e-5,-3.236e-4 3.6438e-4,-5.883e-4 5.9655e-4,-5.883e-4 4.4411e-4,0 5.6016e-4,-4.749e-4 2.2274e-4,-9.116e-4 -1.0967e-4,-1.419e-4 -3.7642e-4,-6.79e-5 -5.9279e-4,1.645e-4 -2.1637e-4,2.324e-4 -5.4235e-4,3.034e-4 -7.2441e-4,1.578e-4 -5.1281e-4,-4.102e-4 2.5013e-4,-0.00137 0.001088,-0.00137 4.083e-4,0 8.528e-4,-3.458e-4 0.001046,-8.14e-4 4.7234e-4,-0.00114 0.001339,-0.0022 0.002031,-0.00249 3.236e-4,-1.329e-4 0.001316,-9.445e-4 0.002206,-0.0018 8.8962e-4,-8.59e-4 0.001833,-0.00156 0.002095,-0.00156 2.6288e-4,0 0.001118,-4.412e-4 0.001901,-9.804e-4 7.827e-4,-5.392e-4 0.001634,-9.804e-4 0.001892,-9.804e-4 2.5763e-4,0 4.6842e-4,-1.636e-4 4.6842e-4,-3.634e-4 0,-4.532e-4 0.003047,-0.00228 0.004687,-0.00281 6.7239e-4,-2.175e-4 0.002313,-7.224e-4 0.003647,-0.00112 0.001333,-3.996e-4 0.002765,-9.067e-4 0.003182,-0.00113 4.1667e-4,-2.202e-4 0.001640999,-6.067e-4 0.002719999,-8.589e-4 C 0.0017794,1.406432 0.0031434,1.4059109 0.0037304,1.4055263 c 5.8743e-4,-3.847e-4 0.001511,-8.232e-4 0.002053,-9.745e-4 5.4167e-4,-1.513e-4 9.8485e-4,-4.235e-4 9.8485e-4,-6.049e-4 0,-1.814e-4 3.7955e-4,-4.377e-4 8.4345e-4,-5.696e-4 4.6388e-4,-1.318e-4 0.001375,-8.517e-4 0.002025,-0.0016 6.4973e-4,-7.48e-4 0.001363,-0.00136 0.001585,-0.00136 3.4285e-4,0 0.007668,-0.00924 0.008811,-0.011117 0.001475,-0.00242 0.003403,-0.00668 0.003403,-0.00752 0,-3.17e-4 1.2718e-4,-5.763e-4 2.826e-4,-5.763e-4 1.5543e-4,0 3.6522e-4,-3.368e-4 4.6615e-4,-7.484e-4 1.0094e-4,-4.116e-4 5.9313e-4,-0.00134 0.001094,-0.00206 5.0058e-4,-7.207e-4 0.001113,-0.0018 0.00136,-0.00239 2.473e-4,-5.931e-4 6.2767e-4,-0.00108 8.4521e-4,-0.00108 2.1755e-4,0 5.8906e-4,-4.828e-4 8.2555e-4,-0.00107 3.8782e-4,-9.677e-4 0.001088,-0.00218 0.001957,-0.00339 1.73e-4,-2.409e-4 5.6591e-4,-0.00114 8.7312e-4,-0.00201 3.0722e-4,-8.627e-4 0.001018,-0.0023 0.001579,-0.0032 5.6148e-4,-8.99e-4 0.001021,-0.0018 0.001021,-0.00201 0,-2.068e-4 2.0454e-4,-5.958e-4 4.5454e-4,-8.643e-4 2.5e-4,-2.685e-4 4.5455e-4,-8.251e-4 4.5455e-4,-0.00124 0,-4.118e-4 2.0454e-4,-8.502e-4 4.5454e-4,-9.744e-4 2.5e-4,-1.241e-4 4.5455e-4,-4.715e-4 4.5455e-4,-7.72e-4 0,-3.004e-4 1.7045e-4,-5.521e-4 3.7879e-4,-5.593e-4 5.8412e-4,-2e-5 0.001742,-0.00141 0.001742,-0.00209 0,-3.353e-4 2.7112e-4,-7.974e-4 6.0249e-4,-0.00103 3.3136e-4,-2.295e-4 6.8275e-4,-8.312e-4 7.8087e-4,-0.00134 9.813e-5,-5.059e-4 4.9834e-4,-0.00111 8.8937e-4,-0.00134 3.91e-4,-2.306e-4 7.5551e-4,-8.204e-4 8.1e-4,-0.00131 7.242e-5,-6.516e-4 3.8451e-4,-9.802e-4 0.00116,-0.00122 0.003471,-0.00108 0.004276,-0.00152 0.004569,-0.00252 1.6297e-4,-5.547e-4 2.2909e-4,-0.0011 1.4697e-4,-0.0012 -2.7385e-4,-3.544e-4 4.5e-4,-0.00166 9.2051e-4,-0.00166 2.5509e-4,0 7.6167e-4,-2.126e-4 0.001126,-4.725e-4 3.6406e-4,-2.598e-4 9.9942e-4,-5.358e-4 0.001412,-6.134e-4 4.1251e-4,-7.76e-5 8.8979e-4,-2.846e-4 0.001061,-4.599e-4 1.7082e-4,-1.754e-4 0.001265,-6.177e-4 0.002432,-9.828e-4 0.002928,-9.166e-4 0.003727,-0.00142 0.003932,-0.00247 9.676e-5,-4.99e-4 5.1309e-4,-0.00111 9.2515e-4,-0.00135 4.1206e-4,-2.43e-4 7.4921e-4,-6.004e-4 7.4921e-4,-7.942e-4 0,-1.938e-4 1.1955e-4,-2.567e-4 2.6567e-4,-1.398e-4 1.4615e-4,1.168e-4 0.001476,3.102e-4 0.002955,4.298e-4 0.003688,2.98e-4 0.006628,7.273e-4 0.006628,9.676e-4 0,3.02e-5 4.0909e-4,1.207e-4 9.0909e-4,2.008e-4 0.001729,2.772e-4 0.00341,9.007e-4 0.005965,0.00221 7.8088e-4,4.009e-4 0.001633,7.289e-4 0.001894,7.289e-4 2.6076e-4,0 4.7412e-4,1.765e-4 4.7412e-4,3.921e-4 0,2.157e-4 1.7882e-4,3.922e-4 3.974e-4,3.922e-4 2.1857e-4,0 6.9015e-4,3.529e-4 0.001048,7.843e-4 3.5778e-4,4.314e-4 8.4239e-4,7.843e-4 0.001077,7.843e-4 2.3452e-4,0 7.5997e-4,3.396e-4 0.001168,7.547e-4 4.0776e-4,4.151e-4 0.001483,0.0011 0.002389,0.00153 9.064e-4,4.251e-4 0.00223,0.00106 0.002941,0.0014 7.8566e-4,3.825e-4 0.002391,6.579e-4 0.004091,7.016e-4 0.002349,6.04e-5 0.003001,-6.45e-5 0.004065,-7.792e-4 6.97e-4,-4.681e-4 0.001353,-0.00103 0.001457,-0.00125 1.0445e-4,-2.188e-4 5.0615e-4,-3.977e-4 8.9264e-4,-3.977e-4 3.8648e-4,0 0.0012,-2.687e-4 0.001807,-5.971e-4 6.2246e-4,-3.366e-4 0.001994,-5.947e-4 0.003143,-5.918e-4 0.006722,1.72e-5 0.008839,-6.669e-4 0.0086,-0.00278 -5.791e-5,-5.133e-4 -2.1767e-4,-0.00111 -3.5494e-4,-0.00133 -1.5188e-4,-2.404e-4 -0.002306,-3.813e-4 -0.005501,-3.598e-4 -0.002888,1.96e-5 -0.005387,-6.48e-5 -0.005554,-1.873e-4 -1.6667e-4,-1.225e-4 -9.1667e-4,-2.605e-4 -0.001667,-3.067e-4 -7.5e-4,-4.61e-5 -0.001909,-1.755e-4 -0.002576,-2.873e-4 -6.6666e-4,-1.119e-4 -0.002167,-3.068e-4 -0.003333,-4.331e-4 -0.001167,-1.264e-4 -0.002462,-3.054e-4 -0.002879,-3.98e-4 -4.1666e-4,-9.25e-5 -0.001848,-3.665e-4 -0.003182,-6.087e-4 -0.002291,-4.164e-4 -0.00471,-9.424e-4 -0.006061,-0.00132 -3.3333e-4,-9.28e-5 -0.00122,-2.646e-4 -0.00197,-3.818e-4 -0.00131,-2.048e-4 -0.004951,-8.862e-4 -0.006212,-0.00116 -3.3333e-4,-7.3e-5 -0.001152,-3.178e-4 -0.001818,-5.439e-4 -6.6667e-4,-2.26e-4 -0.002303,-5.136e-4 -0.003636,-6.39e-4 -0.001333,-1.254e-4 -0.00372,-4.009e-4 -0.005303,-6.122e-4 -0.002946,-3.931e-4 -0.005739,-4.505e-4 -0.006818,-1.401e-4 z m -0.009659,0.00867 c -4.2667e-4,5.426e-4 -5.1334e-4,5.602e-4 -4.3649e-4,8.87e-5 1.0712e-4,-6.574e-4 6.0788e-4,-0.00123 8.2661e-4,-9.497e-4 7.824e-5,1.013e-4 -9.73e-5,4.887e-4 -3.9012e-4,8.61e-4 z m -0.0194735,0.026559 c -9.594e-5,3.236e-4 -2.28e-4,5.883e-4 -2.9351e-4,5.883e-4 -6.549e-5,0 -1.1909e-4,-2.647e-4 -1.1909e-4,-5.883e-4 0,-3.235e-4 1.3209e-4,-5.882e-4 2.9351e-4,-5.882e-4 1.6146e-4,0 2.1503e-4,2.647e-4 1.1909e-4,5.882e-4 z m -0.1068351,0.1145199 c -9.33e-5,1.207e-4 -2.6275e-4,-9.69e-5 -3.7654e-4,-4.837e-4 -1.6445e-4,-5.589e-4 -1.2965e-4,-6.039e-4 1.6963e-4,-2.195e-4 2.071e-4,2.66e-4 3.0021e-4,5.825e-4 2.0691e-4,7.032e-4 z m 5.852e-5,0.00352 c 0,3.236e-4 -1.3208e-4,5.883e-4 -2.9352e-4,5.883e-4 -1.6143e-4,0 -2.1503e-4,-2.647e-4 -1.191e-4,-5.883e-4 9.594e-5,-3.235e-4 2.2802e-4,-5.882e-4 2.9353e-4,-5.882e-4 6.55e-5,0 1.1909e-4,2.647e-4 1.1909e-4,5.882e-4 z M 0.11866358,1.3432419 c -3.75e-4,2.366e-4 -6.8182e-4,7.386e-4 -6.8182e-4,0.00112 0,5.408e-4 2.3945e-4,6.728e-4 0.001136,6.263e-4 9.9625e-4,-5.16e-5 0.001136,-1.791e-4 0.001136,-0.00103 0,-0.0011 -5.654e-4,-0.00135 -0.00159,-7.083e-4 z"
         id="path848"
         inkscape:connector-curvature="0"
         sodipodi:nodetypes="ccsscsscssccsccccscccccscccccccccccccccscsccccccsccccccccscccssscccccccccsccccccscccccscscsccccccccccccccccccccccscccscscccccccccccccsccsccccccssccccsscccssccscscscccscssccccccsccscsscccsccccssscscscccccccsccccccsccsccssscsccccccscccccccccccccccsccccccccssscsccssscsscscscc" /></g></g></svg>